<?xml version="1.0" encoding="UTF-8" standalone="no"?>
<svg
   xmlns:dc="http://purl.org/dc/elements/1.1/"
   xmlns:cc="http://creativecommons.org/ns#"
   xmlns:rdf="http://www.w3.org/1999/02/22-rdf-syntax-ns#"
   xmlns:svg="http://www.w3.org/2000/svg"
   xmlns="http://www.w3.org/2000/svg"
   xmlns:sodipodi="http://sodipodi.sourceforge.net/DTD/sodipodi-0.dtd"
   xmlns:inkscape="http://www.inkscape.org/namespaces/inkscape"
   version="1.1"
   id="Capa_1"
   x="0px"
   y="0px"
   width="451.847px"
   height="451.847px"
   viewBox="0 0 451.847 451.847"
   style="enable-background:new 0 0 451.847 451.847;"
   xml:space="preserve"
   sodipodi:docname="arrow-down-sign-to-navigate — копия.svg"
   inkscape:version="1.0.2-2 (e86c870879, 2021-01-15)"><metadata
   id="metadata41"><rdf:RDF><cc:Work
       rdf:about=""><dc:format>image/svg+xml</dc:format><dc:type
         rdf:resource="http://purl.org/dc/dcmitype/StillImage" /></cc:Work></rdf:RDF></metadata><defs
   id="defs39" /><sodipodi:namedview
   pagecolor="#ffffff"
   bordercolor="#666666"
   borderopacity="1"
   objecttolerance="10"
   gridtolerance="10"
   guidetolerance="10"
   inkscape:pageopacity="0"
   inkscape:pageshadow="2"
   inkscape:window-width="1600"
   inkscape:window-height="1201"
   id="namedview37"
   showgrid="false"
   inkscape:zoom="1.836905"
   inkscape:cx="225.92349"
   inkscape:cy="224.8347"
   inkscape:window-x="-9"
   inkscape:window-y="51"
   inkscape:window-maximized="1"
   inkscape:current-layer="Capa_1" />
<g
   id="g4"
   transform="rotate(90,225.92375,225.92325)">
	<path
   d="m 225.923,354.706 c -8.098,0 -16.195,-3.092 -22.369,-9.263 L 9.27,151.157 c -12.359,-12.359 -12.359,-32.397 0,-44.751 12.354,-12.354 32.388,-12.354 44.748,0 L 225.923,278.321 397.829,106.412 c 12.359,-12.354 32.391,-12.354 44.744,0 12.365,12.354 12.365,32.392 0,44.751 L 248.292,345.449 c -6.177,6.172 -14.274,9.257 -22.369,9.257 z"
   id="path2" />
</g>
<g
   id="g6">
</g>
<g
   id="g8">
</g>
<g
   id="g10">
</g>
<g
   id="g12">
</g>
<g
   id="g14">
</g>
<g
   id="g16">
</g>
<g
   id="g18">
</g>
<g
   id="g20">
</g>
<g
   id="g22">
</g>
<g
   id="g24">
</g>
<g
   id="g26">
</g>
<g
   id="g28">
</g>
<g
   id="g30">
</g>
<g
   id="g32">
</g>
<g
   id="g34">
</g>
<path
   style="fill:#343d5b;fill-opacity:1;stroke-width:0.544394"
   d="m 319.55925,451.22081 c -4.23849,-0.43575 -7.93133,-1.62444 -11.97666,-3.85519 -2.33545,-1.28785 -25.17537,-23.82218 -103.81706,-102.42801 l -100.8229,-100.77692 -2.20517,-4.62735 c -4.313051,-9.05054 -4.313234,-18.16768 -5.4e-4,-27.2197 l 2.20462,-4.62735 101.09564,-101.03743 C 303.76207,6.9813778 305.18817,5.5853029 309.21577,3.684872 c 5.31454,-2.5076786 8.3881,-3.20145022 14.14263,-3.19230233 11.89699,0.0189128 22.5298,6.78767173 27.7503,17.66560433 4.34357,9.050683 4.33444,18.132712 -0.0275,27.352737 -1.69645,3.585879 -5.78985,7.774044 -90.00113,92.084659 l -88.22384,88.32792 88.22384,88.32792 c 84.21128,84.31062 88.30468,88.49879 90.00114,92.08466 4.36193,9.22003 4.37106,18.30206 0.0275,27.35274 -5.79794,12.08114 -18.09593,18.91512 -31.54944,17.532 z"
   id="path866" /></svg>
