<?xml version="1.0" encoding="utf-8"?>
<!-- Generator: Adobe Illustrator 24.3.0, SVG Export Plug-In . SVG Version: 6.00 Build 0)  -->
<svg version="1.1" id="Layer_1" xmlns="http://www.w3.org/2000/svg" xmlns:xlink="http://www.w3.org/1999/xlink" x="0px" y="0px"
	 viewBox="0 0 500 500" style="enable-background:new 0 0 500 500;" xml:space="preserve">
<style type="text/css">
	.st0{fill:#515151;}
</style>
<path class="st0" d="M246.9,141.7c-54.8,0-99.3,44.4-99.3,99.3s44.4,99.3,99.3,99.3s99.3-44.4,99.3-99.3S301.7,141.7,246.9,141.7
	L246.9,141.7z M322.5,221.5l-19.4,11.8c-1-0.8-2.1-1.6-3.3-2.2c-11.7-5.7-27.9,3.3-36.2,20.2c-8.3,16.9-5.5,35.2,6.2,40.9
	s27.9-3.3,36.2-20.2c1.1-2.2,2-4.5,2.7-6.7l13.8-8.4v26.9l-73.2,42.4v2.4h-5.5v-2.4l-19.7-11.4v-21.6c1.2-0.4,2.4-1,3.6-1.7
	c11-7,11.7-25.5,1.6-41.4c-10.1-15.9-27.2-23-38.2-16s-11.7,25.5-1.6,41.4c1.3,2.1,2.8,4,4.3,5.8v16.1l-22.6-13v-84.6l-2.2-1.3
	l2.8-3.8l1.9,1.4l20.1-11.9l18.8,10.2c-0.2,1.3-0.3,2.6-0.2,4c0.9,13,16.9,22.5,35.6,21.1c18.7-1.3,33.2-12.9,32.3-25.9
	c-0.9-13-16.9-22.5-35.6-21.1c-2.5,0.2-4.9,0.5-7.2,1l-13.3-7.2l22.3-13.1l73.8,43.2l2.2-1.6l2.4,3l-2.5,1.8L322.5,221.5
	L322.5,221.5z"/>
<path class="st0" d="M461.5,160.7c-11.6-27.3-28.1-51.9-49.2-72.9c-21.1-21.1-45.6-37.6-72.9-49.2c-28.3-12-58.4-18-89.3-18
	s-61,6.1-89.3,18c-27.3,11.6-51.9,28.1-72.9,49.2c-21.1,21.1-37.6,45.6-49.2,72.9c-12,28.3-18,58.4-18,89.3c0,31,6.1,61,18,89.3
	c11.6,27.3,28.1,51.9,49.2,72.9c21.1,21.1,45.6,37.6,72.9,49.2c28.3,12,58.4,18,89.3,18s61-6.1,89.3-18
	c27.3-11.6,51.9-28.1,72.9-49.2c21.1-21.1,37.6-45.6,49.2-72.9c12-28.3,18-58.4,18-89.3C479.5,219,473.4,189,461.5,160.7
	L461.5,160.7z M455.5,336.8c-11.2,26.6-27.3,50.4-47.8,70.9s-44.3,36.6-70.9,47.8C309.3,467.1,280.1,473,250,473
	s-59.3-5.9-86.8-17.5c-26.6-11.2-50.4-27.3-70.9-47.8c-18-18-32.6-38.6-43.5-61.4l37.7-17l6.9-3.1l-3.1-6.9l-8-17.7l21-9.5l8,17.7
	l3.1,6.9l6.9-3.1l42.3-19.1l-3.1-6.9l-42.3,19.1l-8-17.7l-3.1-6.9l-6.9,3.1l-21,9.5l-6.9,3.1l3.1,6.9l8,17.7l-37.7,17
	c-0.4-0.9-0.8-1.8-1.2-2.6C32.9,309.3,27,280.1,27,250s5.9-59.3,17.5-86.8c11.2-26.6,27.3-50.4,47.8-70.9s44.3-36.6,70.9-47.8
	C190.7,32.9,219.9,27,250,27s59.3,5.9,86.8,17.5c26.6,11.2,50.4,27.3,70.9,47.8c17.1,17.1,31.1,36.5,41.8,57.8l-38.4,17.4l-6.9,3.1
	l3.1,6.9l8,17.7l-21,9.5l-8-17.7l-3.1-6.9l-6.9,3.1L334,202.3l3.1,6.9l42.3-19.1l8,17.7l3.1,6.9l6.9-3.1l21-9.5l6.9-3.1l-3.1-6.9
	l-8-17.7l38.5-17.4c1,2.1,1.9,4.1,2.8,6.3c11.6,27.5,17.5,56.7,17.5,86.8C473,280.1,467.1,309.3,455.5,336.8L455.5,336.8z"/>
<path class="st0" d="M123,236.3l-73.1-20L63.4,167l8.6,2.4L61.2,209l22.7,6.2l9.4-34.3l8.6,2.4l-9.4,34.3l33.2,9.1L123,236.3z
	 M133,189.4l-36-72.8l7.3-7.9l76.8,28.6l-7.8,8.4l-22.9-9.1L129,159.8l11.2,21.7L133,189.4L133,189.4z M124.9,152.2l17.4-18.9
	l-20.8-8.4c-6.3-2.6-11.4-4.8-15.2-6.7c2.9,4,5.5,8.3,7.9,12.8L124.9,152.2z M185.7,136.8L164.3,64l27.3-8c5.6-1.6,10.2-2.2,14-1.7
	s7.1,2,9.9,4.5c2.8,2.5,4.7,5.4,5.7,8.8c0.9,3.1,0.9,6.3,0.1,9.5c-0.9,3.2-2.8,6.2-5.7,8.9c4.8,0,8.8,1.2,12.1,3.6s5.5,5.7,6.8,10
	c1,3.4,1.2,6.8,0.6,10.1c-0.6,3.4-1.7,6.1-3.3,8.3c-1.7,2.2-4,4.2-6.9,5.9c-3,1.7-6.7,3.3-11.4,4.7L185.7,136.8L185.7,136.8z
	 M182.9,91.8l15.7-4.6c4.3-1.3,7.2-2.4,8.9-3.5c2.2-1.4,3.7-3.2,4.5-5.2s0.7-4.4,0-6.9c-0.7-2.4-1.9-4.4-3.6-5.9
	c-1.7-1.5-3.7-2.3-6.1-2.3c-2.3,0-6.1,0.7-11.4,2.2l-14.5,4.3L182.9,91.8L182.9,91.8z M192.8,125.4l18.1-5.3
	c3.1-0.9,5.3-1.7,6.4-2.3c2.1-1,3.8-2.3,5-3.6c1.2-1.4,2-3.1,2.5-5.1c0.4-2.1,0.3-4.2-0.4-6.6c-0.8-2.7-2.2-4.9-4.2-6.5
	s-4.3-2.4-7-2.5s-6.4,0.6-11,1.9l-16.8,4.9L192.8,125.4z M250.6,120.6l20.6-73l32.4,9.2c6.5,1.8,11.3,3.9,14.3,6.2
	c3,2.3,5.1,5.3,6.1,9.2c1.1,3.9,1.1,7.8-0.1,11.9c-1.5,5.2-4.4,9.1-8.7,11.7c-4.4,2.6-10.2,3.4-17.4,2.4c2.2,2,3.8,3.7,4.8,5.3
	c2.1,3.4,3.8,7.4,5.3,12l7.1,23.4l-12.1-3.4l-5.4-17.9c-1.6-5.2-3-9.2-4.1-12c-1.2-2.8-2.3-4.9-3.5-6.3c-1.2-1.3-2.5-2.4-3.9-3.2
	c-1-0.5-2.8-1.2-5.3-1.9L269.4,91l-9.2,32.4L250.6,120.6L250.6,120.6z M271.8,82.6l20.8,5.9c4.4,1.2,8,1.8,10.7,1.6
	c2.7-0.2,5.1-1.1,6.9-2.8c1.9-1.6,3.1-3.6,3.8-6c1-3.5,0.5-6.6-1.3-9.6c-1.9-2.9-5.5-5.2-10.9-6.7l-23.1-6.5L271.8,82.6z
	 M319.8,148.8l48.3-58.5l7.7,6.4l-48.3,58.5L319.8,148.8z M159.5,400.1l6.3,8.3c-6.8,5.1-13.7,7.6-20.7,7.6
	c-7-0.1-13.6-2.6-19.8-7.6c-6.4-5.1-10.6-10.6-12.5-16.4s-2-12-0.1-18.6s5-12.7,9.6-18.4c4.9-6.2,10.4-10.6,16.5-13.3
	c6-2.7,12.2-3.5,18.5-2.3c6.3,1.1,12,3.8,17.3,8c6,4.8,9.7,10.3,11.4,16.6c1.6,6.3,1.1,12.8-1.7,19.5L175,379
	c2.1-5.4,2.6-10.1,1.5-14.2c-1-4.1-3.6-7.7-7.5-10.9c-4.6-3.7-9.3-5.6-14.1-5.9s-9.3,0.9-13.5,3.6s-7.8,6-11,9.9
	c-4,5-6.8,10-8.4,14.9c-1.5,4.9-1.5,9.6,0.1,13.9c1.6,4.4,4.2,8,7.9,10.9c4.4,3.5,9.2,5.3,14.2,5.2
	C149.4,406.3,154.4,404.2,159.5,400.1L159.5,400.1z M182.3,441.4l40.6-70.4l10.7,1.7l19.2,79.7l-11.4-1.8l-5.3-24.1l-31.5-4.9
	L192.9,443L182.3,441.4L182.3,441.4z M208.8,414l25.5,4l-4.6-22c-1.4-6.7-2.4-12.1-2.9-16.4c-1.7,4.7-3.8,9.2-6.3,13.7L208.8,414z
	 M297.3,442.9l-18.4-64.3l-24.2,6.9l-2.5-8.6l58.1-16.7l2.5,8.6l-24.3,7l18.4,64.3L297.3,442.9L297.3,442.9z M336,390.6
	c-8.9-8.9-13.4-18.3-13.6-28.2c-0.2-9.8,3.5-18.6,11.2-26.1c5-5,10.7-8.2,17-9.9c6.4-1.6,12.7-1.3,19,0.8
	c6.3,2.2,12.2,5.9,17.5,11.3c5.4,5.5,9.2,11.4,11.2,17.9c2.1,6.5,2.2,12.9,0.3,19.1c-1.9,6.2-5.1,11.7-9.8,16.4
	c-5.1,5.1-10.9,8.4-17.3,9.9s-12.8,1.2-19.1-1S340.7,395.3,336,390.6L336,390.6z M343.5,383.4c6.4,6.5,13.3,9.9,20.5,10.1
	c7.2,0.3,13.5-2.2,18.8-7.5c5.4-5.3,8-11.6,7.7-18.9c-0.3-7.2-3.8-14.3-10.7-21.2c-4.3-4.4-8.9-7.5-13.6-9.3s-9.4-2.2-14.1-1.1
	c-4.7,1-8.8,3.3-12.3,6.9c-5.1,5-7.7,11.1-7.9,18.2C331.6,367.7,335.5,375.3,343.5,383.4z M434.2,325.3l-73.7-17.9l8-32.9
	c1.6-6.6,3.5-11.5,5.6-14.6c2.2-3.1,5.2-5.3,9-6.5c3.9-1.2,7.8-1.4,11.9-0.4c5.2,1.3,9.2,4,12,8.3s3.8,10.1,3,17.4
	c1.9-2.3,3.6-4,5.1-5c3.3-2.2,7.2-4.1,11.8-5.8l23.2-8l-3,12.3l-17.7,6.1c-5.1,1.8-9.1,3.3-11.9,4.6c-2.8,1.3-4.8,2.5-6.1,3.8
	c-1.3,1.2-2.3,2.6-3,4c-0.5,1.1-1.1,2.8-1.7,5.4l-2.8,11.4l32.7,7.9L434.2,325.3L434.2,325.3z M395.5,305.5l5.1-21.1
	c1.1-4.5,1.5-8.1,1.2-10.9s-1.3-5-3-6.8s-3.8-3-6.1-3.6c-3.5-0.8-6.7-0.3-9.5,1.7c-2.9,2-5,5.7-6.3,11.2l-5.7,23.5L395.5,305.5
	L395.5,305.5z"/>
</svg>
