<svg id="Layer_1" xmlns="http://www.w3.org/2000/svg" viewBox="0 0 500 500"><style>.st0{fill:#fff}</style><path class="st0" d="M246.9 141.7c-54.8 0-99.3 44.4-99.3 99.3s44.4 99.3 99.3 99.3 99.3-44.4 99.3-99.3-44.5-99.3-99.3-99.3zm75.6 79.8l-19.4 11.8c-1-.8-2.1-1.6-3.3-2.2-11.7-5.7-27.9 3.3-36.2 20.2-8.3 16.9-5.5 35.2 6.2 40.9 11.7 5.7 27.9-3.3 36.2-20.2 1.1-2.2 2-4.5 2.7-6.7l13.8-8.4v26.9l-73.2 42.4v2.4h-5.5v-2.4l-19.7-11.4v-21.6c1.2-.4 2.4-1 3.6-1.7 11-7 11.7-25.5 1.6-41.4-10.1-15.9-27.2-23-38.2-16-11 7-11.7 25.5-1.6 41.4 1.3 2.1 2.8 4 4.3 5.8v16.1l-22.6-13v-84.6l-2.2-1.3 2.8-3.8 1.9 1.4 20.1-11.9 18.8 10.2c-.2 1.3-.3 2.6-.2 4 .9 13 16.9 22.5 35.6 21.1 18.7-1.3 33.2-12.9 32.3-25.9-.9-13-16.9-22.5-35.6-21.1-2.5.2-4.9.5-7.2 1l-13.3-7.2 22.3-13.1 73.8 43.2 2.2-1.6 2.4 3-2.5 1.8v21.9z"/><path class="st0" d="M461.5 160.7c-11.6-27.3-28.1-51.9-49.2-72.9-21.1-21.1-45.6-37.6-72.9-49.2-28.3-12-58.4-18-89.3-18s-61 6.1-89.3 18c-27.3 11.6-51.9 28.1-72.9 49.2-21.1 21.1-37.6 45.6-49.2 72.9-12 28.3-18 58.4-18 89.3 0 31 6.1 61 18 89.3 11.6 27.3 28.1 51.9 49.2 72.9 21.1 21.1 45.6 37.6 72.9 49.2 28.3 12 58.4 18 89.3 18s61-6.1 89.3-18c27.3-11.6 51.9-28.1 72.9-49.2 21.1-21.1 37.6-45.6 49.2-72.9 12-28.3 18-58.4 18-89.3 0-31-6.1-61-18-89.3zm-6 176.1c-11.2 26.6-27.3 50.4-47.8 70.9-20.5 20.5-44.3 36.6-70.9 47.8-27.5 11.6-56.7 17.5-86.8 17.5-30.1 0-59.3-5.9-86.8-17.5-26.6-11.2-50.4-27.3-70.9-47.8-18-18-32.6-38.6-43.5-61.4l37.7-17 6.9-3.1-3.1-6.9-8-17.7 21-9.5 8 17.7 3.1 6.9 6.9-3.1 42.3-19.1-3.1-6.9-42.3 19.1-8-17.7-3.1-6.9-6.9 3.1-21 9.5-6.9 3.1 3.1 6.9 8 17.7-37.7 17c-.4-.9-.8-1.8-1.2-2.6C32.9 309.3 27 280.1 27 250c0-30.1 5.9-59.3 17.5-86.8 11.2-26.6 27.3-50.4 47.8-70.9 20.5-20.5 44.3-36.6 70.9-47.8C190.7 32.9 219.9 27 250 27c30.1 0 59.3 5.9 86.8 17.5 26.6 11.2 50.4 27.3 70.9 47.8 17.1 17.1 31.1 36.5 41.8 57.8l-38.4 17.4-6.9 3.1 3.1 6.9 8 17.7-21 9.5-8-17.7-3.1-6.9-6.9 3.1-42.3 19.1 3.1 6.9 42.3-19.1 8 17.7 3.1 6.9 6.9-3.1 21-9.5 6.9-3.1-3.1-6.9-8-17.7 38.5-17.4c1 2.1 1.9 4.1 2.8 6.3 11.6 27.5 17.5 56.7 17.5 86.8 0 30-5.9 59.2-17.5 86.7z"/><path class="st0" d="M123 236.3l-73.1-20L63.4 167l8.6 2.4L61.2 209l22.7 6.2 9.4-34.3 8.6 2.4-9.4 34.3 33.2 9.1-2.7 9.6zm10-46.9l-36-72.8 7.3-7.9 76.8 28.6-7.8 8.4-22.9-9.1-21.4 23.2 11.2 21.7-7.2 7.9zm-8.1-37.2l17.4-18.9-20.8-8.4c-6.3-2.6-11.4-4.8-15.2-6.7 2.9 4 5.5 8.3 7.9 12.8l10.7 21.2zm60.8-15.4L164.3 64l27.3-8c5.6-1.6 10.2-2.2 14-1.7 3.8.5 7.1 2 9.9 4.5 2.8 2.5 4.7 5.4 5.7 8.8.9 3.1.9 6.3.1 9.5-.9 3.2-2.8 6.2-5.7 8.9 4.8 0 8.8 1.2 12.1 3.6 3.3 2.4 5.5 5.7 6.8 10 1 3.4 1.2 6.8.6 10.1-.6 3.4-1.7 6.1-3.3 8.3-1.7 2.2-4 4.2-6.9 5.9-3 1.7-6.7 3.3-11.4 4.7l-27.8 8.2zm-2.8-45l15.7-4.6c4.3-1.3 7.2-2.4 8.9-3.5 2.2-1.4 3.7-3.2 4.5-5.2s.7-4.4 0-6.9c-.7-2.4-1.9-4.4-3.6-5.9-1.7-1.5-3.7-2.3-6.1-2.3-2.3 0-6.1.7-11.4 2.2l-14.5 4.3 6.5 21.9zm9.9 33.6l18.1-5.3c3.1-.9 5.3-1.7 6.4-2.3 2.1-1 3.8-2.3 5-3.6 1.2-1.4 2-3.1 2.5-5.1.4-2.1.3-4.2-.4-6.6-.8-2.7-2.2-4.9-4.2-6.5-2-1.6-4.3-2.4-7-2.5-2.7-.1-6.4.6-11 1.9l-16.8 4.9 7.4 25.1zm57.8-4.8l20.6-73 32.4 9.2c6.5 1.8 11.3 3.9 14.3 6.2 3 2.3 5.1 5.3 6.1 9.2 1.1 3.9 1.1 7.8-.1 11.9-1.5 5.2-4.4 9.1-8.7 11.7-4.4 2.6-10.2 3.4-17.4 2.4 2.2 2 3.8 3.7 4.8 5.3 2.1 3.4 3.8 7.4 5.3 12l7.1 23.4-12.1-3.4-5.4-17.9c-1.6-5.2-3-9.2-4.1-12-1.2-2.8-2.3-4.9-3.5-6.3-1.2-1.3-2.5-2.4-3.9-3.2-1-.5-2.8-1.2-5.3-1.9L269.4 91l-9.2 32.4-9.6-2.8zm21.2-38l20.8 5.9c4.4 1.2 8 1.8 10.7 1.6 2.7-.2 5.1-1.1 6.9-2.8 1.9-1.6 3.1-3.6 3.8-6 1-3.5.5-6.6-1.3-9.6-1.9-2.9-5.5-5.2-10.9-6.7l-23.1-6.5-6.9 24.1zm48 66.2l48.3-58.5 7.7 6.4-48.3 58.5-7.7-6.4zM159.5 400.1l6.3 8.3c-6.8 5.1-13.7 7.6-20.7 7.6-7-.1-13.6-2.6-19.8-7.6-6.4-5.1-10.6-10.6-12.5-16.4-1.9-5.8-2-12-.1-18.6 1.9-6.6 5-12.7 9.6-18.4 4.9-6.2 10.4-10.6 16.5-13.3 6-2.7 12.2-3.5 18.5-2.3 6.3 1.1 12 3.8 17.3 8 6 4.8 9.7 10.3 11.4 16.6 1.6 6.3 1.1 12.8-1.7 19.5L175 379c2.1-5.4 2.6-10.1 1.5-14.2-1-4.1-3.6-7.7-7.5-10.9-4.6-3.7-9.3-5.6-14.1-5.9-4.8-.3-9.3.9-13.5 3.6-4.2 2.7-7.8 6-11 9.9-4 5-6.8 10-8.4 14.9-1.5 4.9-1.5 9.6.1 13.9 1.6 4.4 4.2 8 7.9 10.9 4.4 3.5 9.2 5.3 14.2 5.2 5.2-.1 10.2-2.2 15.3-6.3zm22.8 41.3l40.6-70.4 10.7 1.7 19.2 79.7-11.4-1.8-5.3-24.1-31.5-4.9-11.7 21.4-10.6-1.6zm26.5-27.4l25.5 4-4.6-22c-1.4-6.7-2.4-12.1-2.9-16.4-1.7 4.7-3.8 9.2-6.3 13.7L208.8 414zm88.5 28.9l-18.4-64.3-24.2 6.9-2.5-8.6 58.1-16.7 2.5 8.6-24.3 7 18.4 64.3-9.6 2.8zm38.7-52.3c-8.9-8.9-13.4-18.3-13.6-28.2-.2-9.8 3.5-18.6 11.2-26.1 5-5 10.7-8.2 17-9.9 6.4-1.6 12.7-1.3 19 .8 6.3 2.2 12.2 5.9 17.5 11.3 5.4 5.5 9.2 11.4 11.2 17.9 2.1 6.5 2.2 12.9.3 19.1-1.9 6.2-5.1 11.7-9.8 16.4-5.1 5.1-10.9 8.4-17.3 9.9s-12.8 1.2-19.1-1-11.7-5.5-16.4-10.2zm7.5-7.2c6.4 6.5 13.3 9.9 20.5 10.1 7.2.3 13.5-2.2 18.8-7.5 5.4-5.3 8-11.6 7.7-18.9-.3-7.2-3.8-14.3-10.7-21.2-4.3-4.4-8.9-7.5-13.6-9.3-4.7-1.8-9.4-2.2-14.1-1.1-4.7 1-8.8 3.3-12.3 6.9-5.1 5-7.7 11.1-7.9 18.2-.3 7.1 3.6 14.7 11.6 22.8zm90.7-58.1l-73.7-17.9 8-32.9c1.6-6.6 3.5-11.5 5.6-14.6 2.2-3.1 5.2-5.3 9-6.5 3.9-1.2 7.8-1.4 11.9-.4 5.2 1.3 9.2 4 12 8.3 2.8 4.3 3.8 10.1 3 17.4 1.9-2.3 3.6-4 5.1-5 3.3-2.2 7.2-4.1 11.8-5.8l23.2-8-3 12.3-17.7 6.1c-5.1 1.8-9.1 3.3-11.9 4.6-2.8 1.3-4.8 2.5-6.1 3.8-1.3 1.2-2.3 2.6-3 4-.5 1.1-1.1 2.8-1.7 5.4l-2.8 11.4 32.7 7.9-2.4 9.9zm-38.7-19.8l5.1-21.1c1.1-4.5 1.5-8.1 1.2-10.9-.3-2.8-1.3-5-3-6.8-1.7-1.8-3.8-3-6.1-3.6-3.5-.8-6.7-.3-9.5 1.7-2.9 2-5 5.7-6.3 11.2l-5.7 23.5 24.3 6z"/></svg>