<?xml version="1.0" encoding="utf-8"?>
<!-- Generator: Adobe Illustrator 24.3.0, SVG Export Plug-In . SVG Version: 6.00 Build 0)  -->
<svg version="1.1" id="Слой_1" xmlns="http://www.w3.org/2000/svg" xmlns:xlink="http://www.w3.org/1999/xlink" x="0px" y="0px"
	 viewBox="0 0 1062 435" style="enable-background:new 0 0 1062 435;" xml:space="preserve">
<style type="text/css">
	.st0{fill:#FFFFFF;}
	.st1{fill:url(#SVGID_1_);}
	.st2{fill:url(#SVGID_2_);}
	.st3{fill:url(#SVGID_3_);}
	.st4{fill:none;}
	.st5{fill-rule:evenodd;clip-rule:evenodd;fill:#FFFFFF;}
</style>
<g id="Слой_2_1_">
	<polyline class="st0" points="17.1,211.7 531.8,212.2 531.8,230.7 18.1,230.7 	"/>
	
		<linearGradient id="SVGID_1_" gradientUnits="userSpaceOnUse" x1="586.2877" y1="371.9633" x2="1058.1877" y2="371.9633" gradientTransform="matrix(1 0 0 1 0 -64)">
		<stop  offset="0" style="stop-color:#FF7C7C"/>
		<stop  offset="0.3677" style="stop-color:#FD7B7B"/>
		<stop  offset="0.5001" style="stop-color:#F67979"/>
		<stop  offset="0.5946" style="stop-color:#EA7475"/>
		<stop  offset="0.6709" style="stop-color:#DA6D70"/>
		<stop  offset="0.7363" style="stop-color:#C46469"/>
		<stop  offset="0.7942" style="stop-color:#A85A60"/>
		<stop  offset="0.8466" style="stop-color:#884D56"/>
		<stop  offset="0.8947" style="stop-color:#623E4A"/>
		<stop  offset="0.9376" style="stop-color:#392E3D"/>
		<stop  offset="0.9621" style="stop-color:#1E2334"/>
	</linearGradient>
	<polygon class="st1" points="1058.1,258.2 742.8,208.4 586.3,220.2 586.3,229.2 770.3,245.2 1058.2,407.5 	"/>
	
		<linearGradient id="SVGID_2_" gradientUnits="userSpaceOnUse" x1="584.2877" y1="351.2133" x2="1058.0878" y2="351.2133" gradientTransform="matrix(1 0 0 1 0 -64)">
		<stop  offset="0" style="stop-color:#838FFF"/>
		<stop  offset="0.3375" style="stop-color:#828EFD"/>
		<stop  offset="0.4808" style="stop-color:#7E8AF6"/>
		<stop  offset="0.5875" style="stop-color:#7883E9"/>
		<stop  offset="0.6759" style="stop-color:#6F7AD8"/>
		<stop  offset="0.753" style="stop-color:#646EC1"/>
		<stop  offset="0.8222" style="stop-color:#565FA4"/>
		<stop  offset="0.8856" style="stop-color:#454D82"/>
		<stop  offset="0.9427" style="stop-color:#32385C"/>
		<stop  offset="0.9926" style="stop-color:#1E2334"/>
	</linearGradient>
	<polygon class="st2" points="584.3,223.2 584.3,217.2 747.3,216.2 1058.1,299.2 1058.1,358.2 759.4,231.7 	"/>
	
		<linearGradient id="SVGID_3_" gradientUnits="userSpaceOnUse" x1="585.2877" y1="317.7133" x2="1058.0878" y2="317.7133" gradientTransform="matrix(1 0 0 1 0 -64)">
		<stop  offset="0" style="stop-color:#A2FF7C"/>
		<stop  offset="0.3336" style="stop-color:#A1FD7B"/>
		<stop  offset="0.4754" style="stop-color:#9CF679"/>
		<stop  offset="0.5807" style="stop-color:#95E975"/>
		<stop  offset="0.6682" style="stop-color:#8AD86F"/>
		<stop  offset="0.7444" style="stop-color:#7DC168"/>
		<stop  offset="0.8128" style="stop-color:#6BA45E"/>
		<stop  offset="0.8755" style="stop-color:#578253"/>
		<stop  offset="0.9336" style="stop-color:#405B46"/>
		<stop  offset="0.9861" style="stop-color:#263038"/>
		<stop  offset="1" style="stop-color:#1E2334"/>
	</linearGradient>
	<polygon class="st3" points="585.3,218.2 585.3,211.2 739.3,207.2 1058.1,258.2 1058.1,300.2 747.6,216.5 	"/>
	
		<rect x="662.3" y="286.3" transform="matrix(0.9572 -0.2894 0.2894 0.9572 -56.0952 206.364)" class="st4" width="15" height="13.1"/>
	
		<rect x="668" y="287.4" transform="matrix(0.9572 -0.2894 0.2894 0.9572 -54.9048 205.8784)" class="st0" width="1.5" height="2.4"/>
	
		<rect x="669.3" y="291.6" transform="matrix(0.9572 -0.2894 0.2894 0.9572 -56.0723 206.4348)" class="st0" width="1.5" height="2.4"/>
	
		<rect x="670.5" y="295.8" transform="matrix(0.9572 -0.2894 0.2894 0.9572 -57.2326 206.9653)" class="st0" width="1.5" height="2.4"/>
	
		<rect x="658.5" y="273.8" transform="matrix(0.9572 -0.2894 0.2894 0.9572 -52.6375 204.7357)" class="st4" width="15" height="13.1"/>
	
		<rect x="664.2" y="274.9" transform="matrix(0.9572 -0.2894 0.2894 0.9572 -51.4502 204.2503)" class="st0" width="1.5" height="2.4"/>
	
		<rect x="665.5" y="279" transform="matrix(0.9572 -0.2894 0.2894 0.9572 -52.5862 204.7941)" class="st0" width="1.5" height="2.4"/>
	
		<rect x="666.7" y="283.2" transform="matrix(0.9572 -0.2894 0.2894 0.9572 -53.749 205.3246)" class="st0" width="1.5" height="2.4"/>
	
		<rect x="654.7" y="261.2" transform="matrix(0.9572 -0.2894 0.2894 0.9572 -49.1549 203.0951)" class="st4" width="15" height="13.1"/>
	
		<rect x="660.4" y="262.3" transform="matrix(0.9572 -0.2894 0.2894 0.9572 -47.9747 202.61)" class="st0" width="1.5" height="2.4"/>
	
		<rect x="661.7" y="266.5" transform="matrix(0.9572 -0.2894 0.2894 0.9572 -49.1209 203.1655)" class="st0" width="1.5" height="2.4"/>
	
		<rect x="662.9" y="270.6" transform="matrix(0.9572 -0.2894 0.2894 0.9572 -50.2736 203.6842)" class="st0" width="1.5" height="2.4"/>
	
		<rect x="650.9" y="248.6" transform="matrix(0.9572 -0.2894 0.2894 0.9572 -45.671 201.4543)" class="st4" width="15" height="13.1"/>
	
		<rect x="656.6" y="249.7" transform="matrix(0.9572 -0.2894 0.2894 0.9572 -44.4831 200.9688)" class="st0" width="1.5" height="2.4"/>
	
		<rect x="657.9" y="253.9" transform="matrix(0.9572 -0.2894 0.2894 0.9572 -45.6479 201.5254)" class="st0" width="1.5" height="2.4"/>
	
		<rect x="659.1" y="258.1" transform="matrix(0.9572 -0.2894 0.2894 0.9572 -46.806 202.0554)" class="st0" width="1.5" height="2.4"/>
	
		<rect x="647.1" y="236" transform="matrix(0.9572 -0.2894 0.2894 0.9572 -42.1877 199.8137)" class="st4" width="15" height="13.1"/>
	
		<rect x="652.8" y="237.1" transform="matrix(0.9572 -0.2894 0.2894 0.9572 -40.9996 199.328)" class="st0" width="1.5" height="2.4"/>
	
		<rect x="654" y="241.3" transform="matrix(0.9572 -0.2894 0.2894 0.9572 -42.1688 199.8577)" class="st0" width="1.5" height="2.4"/>
	
		<rect x="655.3" y="245.5" transform="matrix(0.9572 -0.2894 0.2894 0.9572 -43.3249 200.4148)" class="st0" width="1.5" height="2.4"/>
	
		<rect x="643.3" y="223.4" transform="matrix(0.9572 -0.2894 0.2894 0.9572 -38.7041 198.173)" class="st4" width="15" height="13.1"/>
	
		<rect x="649" y="224.5" transform="matrix(0.9572 -0.2894 0.2894 0.9572 -37.5215 197.6879)" class="st0" width="1.5" height="2.4"/>
	
		<rect x="650.2" y="228.7" transform="matrix(0.9572 -0.2894 0.2894 0.9572 -38.6853 198.217)" class="st0" width="1.5" height="2.4"/>
	
		<rect x="651.5" y="232.9" transform="matrix(0.9572 -0.2894 0.2894 0.9572 -39.8492 198.7748)" class="st0" width="1.5" height="2.4"/>
	
		<rect x="639.5" y="210.9" transform="matrix(0.9572 -0.2894 0.2894 0.9572 -35.2459 196.5446)" class="st4" width="15" height="13.1"/>
	
		<rect x="645.2" y="212" transform="matrix(0.9572 -0.2894 0.2894 0.9572 -34.059 196.0591)" class="st0" width="1.5" height="2.4"/>
	
		<rect x="646.4" y="216.1" transform="matrix(0.9572 -0.2894 0.2894 0.9572 -35.2071 196.5769)" class="st0" width="1.5" height="2.4"/>
	
		<rect x="647.7" y="220.3" transform="matrix(0.9572 -0.2894 0.2894 0.9572 -36.3578 197.1334)" class="st0" width="1.5" height="2.4"/>
	
		<rect x="635.7" y="198.3" transform="matrix(0.9572 -0.2894 0.2894 0.9572 -31.7635 194.9041)" class="st4" width="15" height="13.1"/>
	
		<rect x="641.4" y="199.4" transform="matrix(0.9572 -0.2894 0.2894 0.9572 -30.5754 194.4183)" class="st0" width="1.5" height="2.4"/>
	
		<rect x="642.6" y="203.6" transform="matrix(0.9572 -0.2894 0.2894 0.9572 -31.7423 194.9477)" class="st0" width="1.5" height="2.4"/>
	
		<rect x="643.9" y="207.7" transform="matrix(0.9572 -0.2894 0.2894 0.9572 -32.8743 195.4926)" class="st0" width="1.5" height="2.4"/>
	
		<rect x="631.9" y="185.7" transform="matrix(0.9572 -0.2894 0.2894 0.9572 -28.2798 193.2633)" class="st4" width="15" height="13.1"/>
	
		<rect x="637.6" y="186.8" transform="matrix(0.9572 -0.2894 0.2894 0.9572 -27.0919 192.7776)" class="st0" width="1.5" height="2.4"/>
	
		<rect x="638.8" y="191" transform="matrix(0.9572 -0.2894 0.2894 0.9572 -28.2611 193.3073)" class="st0" width="1.5" height="2.4"/>
	
		<rect x="640.1" y="195.2" transform="matrix(0.9572 -0.2894 0.2894 0.9572 -29.4224 193.8651)" class="st0" width="1.5" height="2.4"/>
	
		<rect x="628.1" y="173.1" transform="matrix(0.9572 -0.2894 0.2894 0.9572 -24.7962 191.6226)" class="st4" width="15" height="13.1"/>
	
		<rect x="633.8" y="174.2" transform="matrix(0.9572 -0.2894 0.2894 0.9572 -23.612 191.1375)" class="st0" width="1.5" height="2.4"/>
	
		<rect x="635" y="178.4" transform="matrix(0.9572 -0.2894 0.2894 0.9572 -24.7776 191.6665)" class="st0" width="1.5" height="2.4"/>
	
		<rect x="636.3" y="182.6" transform="matrix(0.9572 -0.2894 0.2894 0.9572 -25.9337 192.2237)" class="st0" width="1.5" height="2.4"/>
	
		<rect x="624.3" y="160.6" transform="matrix(0.9572 -0.2894 0.2894 0.9572 -21.3392 189.9944)" class="st4" width="15" height="13.1"/>
	
		<rect x="630" y="161.6" transform="matrix(0.9572 -0.2894 0.2894 0.9572 -20.1262 189.4964)" class="st0" width="1.5" height="2.4"/>
	
		<rect x="631.2" y="165.8" transform="matrix(0.9572 -0.2894 0.2894 0.9572 -21.2977 190.0265)" class="st0" width="1.5" height="2.4"/>
	
		<rect x="632.5" y="170" transform="matrix(0.9572 -0.2894 0.2894 0.9572 -22.4538 190.5836)" class="st0" width="1.5" height="2.4"/>
	
		<rect x="620.5" y="148" transform="matrix(0.9572 -0.2894 0.2894 0.9572 -17.8547 188.3535)" class="st4" width="15" height="13.1"/>
	
		<rect x="626.2" y="149.1" transform="matrix(0.9572 -0.2894 0.2894 0.9572 -16.6677 187.8679)" class="st0" width="1.5" height="2.4"/>
	
		<rect x="627.4" y="153.3" transform="matrix(0.9572 -0.2894 0.2894 0.9572 -17.8384 188.3978)" class="st0" width="1.5" height="2.4"/>
	
		<rect x="628.7" y="157.4" transform="matrix(0.9572 -0.2894 0.2894 0.9572 -18.9702 188.9429)" class="st0" width="1.5" height="2.4"/>
	
		<rect x="616.7" y="135.4" transform="matrix(0.9572 -0.2894 0.2894 0.9572 -14.372 186.713)" class="st4" width="15" height="13.1"/>
	
		<rect x="622.4" y="136.5" transform="matrix(0.9572 -0.2894 0.2894 0.9572 -13.1877 186.2279)" class="st0" width="1.5" height="2.4"/>
	
		<rect x="623.6" y="140.7" transform="matrix(0.9572 -0.2894 0.2894 0.9572 -14.3513 186.7563)" class="st0" width="1.5" height="2.4"/>
	
		<rect x="624.9" y="144.8" transform="matrix(0.9572 -0.2894 0.2894 0.9572 -15.4831 187.3015)" class="st0" width="1.5" height="2.4"/>
	
		<rect x="612.9" y="122.8" transform="matrix(0.9572 -0.2894 0.2894 0.9572 -10.8884 185.0723)" class="st4" width="15" height="13.1"/>
	
		<rect x="618.6" y="123.9" transform="matrix(0.9572 -0.2894 0.2894 0.9572 -9.7041 184.5872)" class="st0" width="1.5" height="2.4"/>
	
		<rect x="619.8" y="128.1" transform="matrix(0.9572 -0.2894 0.2894 0.9572 -10.8734 185.1169)" class="st0" width="1.5" height="2.4"/>
	
		<rect x="621.1" y="132.3" transform="matrix(0.9572 -0.2894 0.2894 0.9572 -12.0274 185.6735)" class="st0" width="1.5" height="2.4"/>
	
		<rect x="609.1" y="110.2" transform="matrix(0.9572 -0.2894 0.2894 0.9572 -7.405 183.4316)" class="st4" width="15" height="13.1"/>
	
		<rect x="614.8" y="111.3" transform="matrix(0.9572 -0.2894 0.2894 0.9572 -6.2205 182.9466)" class="st0" width="1.5" height="2.4"/>
	
		<rect x="616" y="115.5" transform="matrix(0.9572 -0.2894 0.2894 0.9572 -7.3898 183.4762)" class="st0" width="1.5" height="2.4"/>
	
		<rect x="617.3" y="119.7" transform="matrix(0.9572 -0.2894 0.2894 0.9572 -8.5459 184.0333)" class="st0" width="1.5" height="2.4"/>
	
		<rect x="605.3" y="97.7" transform="matrix(0.9572 -0.2894 0.2894 0.9572 -3.9477 181.8033)" class="st4" width="15" height="13.1"/>
	
		<rect x="610.9" y="98.8" transform="matrix(0.9572 -0.2894 0.2894 0.9572 -2.7705 181.2903)" class="st0" width="1.5" height="2.4"/>
	
		<rect x="612.2" y="102.9" transform="matrix(0.9572 -0.2894 0.2894 0.9572 -3.9028 181.8346)" class="st0" width="1.5" height="2.4"/>
	
		<rect x="613.5" y="107.1" transform="matrix(0.9572 -0.2894 0.2894 0.9572 -5.0623 182.3927)" class="st0" width="1.5" height="2.4"/>
	
		<rect x="601.5" y="85.1" transform="matrix(0.9572 -0.2894 0.2894 0.9572 -0.4634 180.1624)" class="st4" width="15" height="13.1"/>
	
		<rect x="607.1" y="86.2" transform="matrix(0.9572 -0.2894 0.2894 0.9572 0.7077 179.6512)" class="st0" width="1.5" height="2.4"/>
	
		<rect x="608.4" y="90.4" transform="matrix(0.9572 -0.2894 0.2894 0.9572 -0.4471 180.2067)" class="st0" width="1.5" height="2.4"/>
	
		<rect x="609.7" y="94.5" transform="matrix(0.9572 -0.2894 0.2894 0.9572 -1.5787 180.752)" class="st0" width="1.5" height="2.4"/>
	<rect x="597.7" y="72.5" transform="matrix(0.9572 -0.2894 0.2894 0.9572 3.0193 178.522)" class="st4" width="15" height="13.1"/>
	
		<rect x="603.3" y="73.6" transform="matrix(0.9572 -0.2894 0.2894 0.9572 4.1913 178.0105)" class="st0" width="1.5" height="2.4"/>
	<rect x="604.6" y="77.8" transform="matrix(0.9572 -0.2894 0.2894 0.9572 3.0365 178.566)" class="st0" width="1.5" height="2.4"/>
	<rect x="605.9" y="82" transform="matrix(0.9572 -0.2894 0.2894 0.9572 1.8784 179.1238)" class="st0" width="1.5" height="2.4"/>
	
		<rect x="593.8" y="59.9" transform="matrix(0.9572 -0.2894 0.2894 0.9572 6.4905 176.8548)" class="st4" width="15" height="13.1"/>
	<rect x="599.5" y="61" transform="matrix(0.9572 -0.2894 0.2894 0.9572 7.6781 176.3687)" class="st0" width="1.5" height="2.4"/>
	<rect x="600.8" y="65.2" transform="matrix(0.9572 -0.2894 0.2894 0.9572 6.5181 176.926)" class="st0" width="1.5" height="2.4"/>
	<rect x="602.1" y="69.4" transform="matrix(0.9572 -0.2894 0.2894 0.9572 5.364 177.4824)" class="st0" width="1.5" height="2.4"/>
	<rect x="590" y="47.3" transform="matrix(0.9572 -0.2894 0.2894 0.9572 9.9741 175.2141)" class="st4" width="15" height="13.1"/>
	
		<rect x="595.7" y="48.4" transform="matrix(0.9572 -0.2894 0.2894 0.9572 11.1585 174.7292)" class="st0" width="1.5" height="2.4"/>
	<rect x="597" y="52.6" transform="matrix(0.9572 -0.2894 0.2894 0.9572 10.0049 175.2841)" class="st0" width="1.5" height="2.4"/>
	
		<rect x="598.3" y="56.8" transform="matrix(0.9572 -0.2894 0.2894 0.9572 8.8488 175.8413)" class="st0" width="1.5" height="2.4"/>
	
		<rect x="605.4" y="39.4" transform="matrix(0.7858 -0.6185 0.6185 0.7858 102.7682 388.9614)" class="st4" width="15" height="13.4"/>
	
		<rect x="614.7" y="48.5" transform="matrix(0.7858 -0.6185 0.6185 0.7858 101.0488 391.3271)" class="st0" width="1.5" height="2.5"/>
	
		<rect x="611.9" y="45.1" transform="matrix(0.7858 -0.6185 0.6185 0.7858 102.5975 388.8635)" class="st0" width="1.5" height="2.5"/>
	
		<rect x="609.2" y="41.5" transform="matrix(0.7858 -0.6185 0.6185 0.7858 104.2077 386.4244)" class="st0" width="1.5" height="2.5"/>
	
		<rect x="613.7" y="49.9" transform="matrix(0.7858 -0.6185 0.6185 0.7858 98.0347 396.327)" class="st4" width="15" height="13.4"/>
	
		<rect x="623.1" y="59.1" transform="matrix(0.7858 -0.6185 0.6185 0.7858 96.2704 398.7531)" class="st0" width="1.5" height="2.5"/>
	
		<rect x="620.2" y="55.5" transform="matrix(0.7858 -0.6185 0.6185 0.7858 97.927 396.2613)" class="st0" width="1.5" height="2.5"/>
	<rect x="617.4" y="52" transform="matrix(0.7857 -0.6186 0.6186 0.7857 99.5405 393.8277)" class="st0" width="1.5" height="2.5"/>
	<rect x="622" y="60.5" transform="matrix(0.7858 -0.6185 0.6185 0.7858 93.2637 403.7503)" class="st4" width="15" height="13.4"/>
	
		<rect x="631.3" y="69.6" transform="matrix(0.7857 -0.6186 0.6186 0.7857 91.6078 406.154)" class="st0" width="1.5" height="2.5"/>
	
		<rect x="628.6" y="66.1" transform="matrix(0.7858 -0.6185 0.6185 0.7858 93.1485 403.6872)" class="st0" width="1.5" height="2.5"/>
	
		<rect x="625.8" y="62.6" transform="matrix(0.7858 -0.6185 0.6185 0.7858 94.6998 401.2179)" class="st0" width="1.5" height="2.5"/>
	<rect x="630.3" y="71" transform="matrix(0.7858 -0.6185 0.6185 0.7858 88.5307 411.1154)" class="st4" width="15" height="13.4"/>
	
		<rect x="639.6" y="80.3" transform="matrix(0.7858 -0.6185 0.6185 0.7858 86.7706 413.5364)" class="st0" width="1.5" height="2.5"/>
	
		<rect x="636.8" y="76.6" transform="matrix(0.7858 -0.6185 0.6185 0.7858 88.4234 411.0498)" class="st0" width="1.5" height="2.5"/>
	<rect x="634" y="73.2" transform="matrix(0.7858 -0.6185 0.6185 0.7858 89.9745 408.5804)" class="st0" width="1.5" height="2.5"/>
	
		<rect x="638.6" y="81.6" transform="matrix(0.7858 -0.6185 0.6185 0.7858 83.7599 418.5382)" class="st4" width="15" height="13.4"/>
	
		<rect x="647.9" y="90.7" transform="matrix(0.7857 -0.6186 0.6186 0.7857 82.1048 420.9456)" class="st0" width="1.5" height="2.5"/>
	
		<rect x="645.2" y="87.2" transform="matrix(0.7858 -0.6185 0.6185 0.7858 83.6488 418.4705)" class="st0" width="1.5" height="2.5"/>
	
		<rect x="642.4" y="83.8" transform="matrix(0.7858 -0.6185 0.6185 0.7858 85.1957 416.0062)" class="st0" width="1.5" height="2.5"/>
	
		<rect x="646.9" y="92.2" transform="matrix(0.7858 -0.6185 0.6185 0.7858 79.0262 425.9042)" class="st4" width="15" height="13.4"/>
	
		<rect x="656.3" y="101.3" transform="matrix(0.7858 -0.6185 0.6185 0.7858 77.3219 428.3601)" class="st0" width="1.5" height="2.5"/>
	
		<rect x="653.5" y="97.8" transform="matrix(0.7857 -0.6186 0.6186 0.7857 78.948 425.9358)" class="st0" width="1.5" height="2.5"/>
	
		<rect x="650.7" y="94.3" transform="matrix(0.7857 -0.6186 0.6186 0.7857 80.4991 423.4659)" class="st0" width="1.5" height="2.5"/>
	
		<rect x="655.2" y="102.8" transform="matrix(0.7858 -0.6185 0.6185 0.7858 74.2559 433.3266)" class="st4" width="15" height="13.4"/>
	
		<rect x="664.5" y="111.8" transform="matrix(0.7858 -0.6185 0.6185 0.7858 72.5928 435.7281)" class="st0" width="1.5" height="2.5"/>
	
		<rect x="661.8" y="108.3" transform="matrix(0.7858 -0.6185 0.6185 0.7858 74.145 433.2589)" class="st0" width="1.5" height="2.5"/>
	
		<rect x="659" y="104.9" transform="matrix(0.7858 -0.6185 0.6185 0.7858 75.6963 430.7895)" class="st0" width="1.5" height="2.5"/>
	
		<rect x="663.5" y="113.4" transform="matrix(0.7858 -0.6185 0.6185 0.7858 69.4872 440.7473)" class="st4" width="15" height="13.4"/>
	
		<rect x="672.9" y="122.4" transform="matrix(0.7858 -0.6185 0.6185 0.7858 67.8132 443.1536)" class="st0" width="1.5" height="2.5"/>
	
		<rect x="670.1" y="118.9" transform="matrix(0.7858 -0.6185 0.6185 0.7858 69.3806 440.6819)" class="st0" width="1.5" height="2.5"/>
	
		<rect x="667.4" y="115.3" transform="matrix(0.7857 -0.6186 0.6186 0.7857 71.0512 438.2929)" class="st0" width="1.5" height="2.5"/>
	
		<rect x="671.8" y="123.9" transform="matrix(0.7858 -0.6185 0.6185 0.7858 64.7513 448.1155)" class="st4" width="15" height="13.4"/>
	
		<rect x="681.1" y="132.9" transform="matrix(0.7858 -0.6185 0.6185 0.7858 63.0891 450.5166)" class="st0" width="1.5" height="2.5"/>
	
		<rect x="678.4" y="129.5" transform="matrix(0.7858 -0.6185 0.6185 0.7858 64.6362 448.0523)" class="st0" width="1.5" height="2.5"/>
	
		<rect x="675.7" y="125.9" transform="matrix(0.7858 -0.6185 0.6185 0.7858 66.2426 445.6183)" class="st0" width="1.5" height="2.5"/>
	
		<rect x="680.1" y="134.5" transform="matrix(0.7858 -0.6185 0.6185 0.7858 59.9832 455.5356)" class="st4" width="15" height="13.4"/>
	
		<rect x="689.5" y="143.5" transform="matrix(0.7858 -0.6185 0.6185 0.7858 58.3143 457.9368)" class="st0" width="1.5" height="2.5"/>
	
		<rect x="686.7" y="140.1" transform="matrix(0.7858 -0.6185 0.6185 0.7858 59.877 455.4705)" class="st0" width="1.5" height="2.5"/>
	
		<rect x="684" y="136.5" transform="matrix(0.7858 -0.6185 0.6185 0.7858 61.4833 453.0364)" class="st0" width="1.5" height="2.5"/>
	
		<rect x="688.5" y="144.9" transform="matrix(0.7858 -0.6185 0.6185 0.7858 55.3023 462.9392)" class="st4" width="15" height="13.4"/>
	<rect x="697.7" y="154" transform="matrix(0.7857 -0.6186 0.6186 0.7857 53.651 465.3557)" class="st0" width="1.5" height="2.5"/>
	
		<rect x="695" y="150.6" transform="matrix(0.7858 -0.6185 0.6185 0.7858 55.1374 462.8355)" class="st0" width="1.5" height="2.5"/>
	
		<rect x="692.3" y="147" transform="matrix(0.7858 -0.6185 0.6185 0.7858 56.7385 460.4067)" class="st0" width="1.5" height="2.5"/>
	
		<rect x="696.8" y="155.5" transform="matrix(0.7858 -0.6185 0.6185 0.7858 50.5343 470.3593)" class="st4" width="15" height="13.4"/>
	
		<rect x="706.1" y="164.6" transform="matrix(0.7858 -0.6185 0.6185 0.7858 48.8105 472.7252)" class="st0" width="1.5" height="2.5"/>
	
		<rect x="703.3" y="161.1" transform="matrix(0.7857 -0.6186 0.6186 0.7857 50.439 470.3105)" class="st0" width="1.5" height="2.5"/>
	
		<rect x="700.6" y="157.6" transform="matrix(0.7858 -0.6185 0.6185 0.7858 51.9796 467.825)" class="st0" width="1.5" height="2.5"/>
	
		<rect x="705.1" y="166" transform="matrix(0.7858 -0.6185 0.6185 0.7858 45.7986 477.7271)" class="st4" width="15" height="13.4"/>
	
		<rect x="714.4" y="175.2" transform="matrix(0.7858 -0.6185 0.6185 0.7858 44.0463 480.1487)" class="st0" width="1.5" height="2.5"/>
	
		<rect x="711.7" y="171.6" transform="matrix(0.7858 -0.6185 0.6185 0.7858 45.6887 477.6593)" class="st0" width="1.5" height="2.5"/>
	
		<rect x="708.9" y="168.1" transform="matrix(0.7858 -0.6185 0.6185 0.7858 47.2399 475.1899)" class="st0" width="1.5" height="2.5"/>
	
		<rect x="713.4" y="176.6" transform="matrix(0.7858 -0.6185 0.6185 0.7858 41.0297 485.1481)" class="st4" width="15" height="13.4"/>
	
		<rect x="722.7" y="185.8" transform="matrix(0.7858 -0.6185 0.6185 0.7858 39.3009 487.5188)" class="st0" width="1.5" height="2.5"/>
	
		<rect x="719.9" y="182.2" transform="matrix(0.7858 -0.6185 0.6185 0.7858 40.9247 485.0829)" class="st0" width="1.5" height="2.5"/>
	
		<rect x="717.2" y="178.7" transform="matrix(0.7857 -0.6186 0.6186 0.7857 42.5423 482.6675)" class="st0" width="1.5" height="2.5"/>
	
		<rect x="721.7" y="187.2" transform="matrix(0.7858 -0.6185 0.6185 0.7858 36.2951 492.5151)" class="st4" width="15" height="13.4"/>
	
		<rect x="731" y="196.4" transform="matrix(0.7858 -0.6185 0.6185 0.7858 34.5427 494.9373)" class="st0" width="1.5" height="2.5"/>
	
		<rect x="728.3" y="192.8" transform="matrix(0.7858 -0.6185 0.6185 0.7858 36.1495 492.5027)" class="st0" width="1.5" height="2.5"/>
	
		<rect x="725.5" y="189.3" transform="matrix(0.7858 -0.6185 0.6185 0.7858 37.7008 490.0334)" class="st0" width="1.5" height="2.5"/>
	
		<rect x="730" y="197.8" transform="matrix(0.7858 -0.6185 0.6185 0.7858 31.5256 499.9365)" class="st4" width="15" height="13.4"/>
	
		<rect x="739.3" y="206.8" transform="matrix(0.7857 -0.6186 0.6186 0.7857 29.8793 502.3591)" class="st0" width="1.5" height="2.5"/>
	
		<rect x="736.5" y="203.3" transform="matrix(0.7858 -0.6185 0.6185 0.7858 31.4209 499.8714)" class="st0" width="1.5" height="2.5"/>
	
		<rect x="733.8" y="199.8" transform="matrix(0.7857 -0.6186 0.6186 0.7857 33.0334 497.4644)" class="st0" width="1.5" height="2.5"/>
	
		<rect x="738.3" y="208.4" transform="matrix(0.7858 -0.6185 0.6185 0.7858 26.7545 507.3594)" class="st4" width="15" height="13.4"/>
	
		<rect x="747.6" y="217.4" transform="matrix(0.7858 -0.6185 0.6185 0.7858 25.0941 509.7612)" class="st0" width="1.5" height="2.5"/>
	
		<rect x="744.9" y="213.9" transform="matrix(0.7858 -0.6185 0.6185 0.7858 26.6457 507.2911)" class="st0" width="1.5" height="2.5"/>
	
		<rect x="742.1" y="210.5" transform="matrix(0.7858 -0.6185 0.6185 0.7858 28.1969 504.8217)" class="st0" width="1.5" height="2.5"/>
	
		<rect x="746.6" y="218.9" transform="matrix(0.7858 -0.6185 0.6185 0.7858 22.0227 514.7239)" class="st4" width="15" height="13.4"/>
	
		<rect x="755.9" y="227.9" transform="matrix(0.7858 -0.6185 0.6185 0.7858 20.36 517.1279)" class="st0" width="1.5" height="2.5"/>
	
		<rect x="753.1" y="224.4" transform="matrix(0.7858 -0.6185 0.6185 0.7858 21.9172 514.66)" class="st0" width="1.5" height="2.5"/>
	
		<rect x="750.3" y="221" transform="matrix(0.7858 -0.6185 0.6185 0.7858 23.4684 512.1906)" class="st0" width="1.5" height="2.5"/>
	
		<rect x="754.9" y="229.5" transform="matrix(0.7858 -0.6185 0.6185 0.7858 17.2503 522.1478)" class="st4" width="15" height="13.4"/>
	
		<rect x="764.3" y="238.5" transform="matrix(0.7858 -0.6185 0.6185 0.7858 15.5947 524.5387)" class="st0" width="1.5" height="2.5"/>
	
		<rect x="761.5" y="235" transform="matrix(0.7858 -0.6185 0.6185 0.7858 17.1477 522.0818)" class="st0" width="1.5" height="2.5"/>
	
		<rect x="758.8" y="231.4" transform="matrix(0.7857 -0.6186 0.6186 0.7857 18.8159 519.7148)" class="st0" width="1.5" height="2.5"/>
	<rect x="763.2" y="240" transform="matrix(0.7858 -0.6185 0.6185 0.7858 12.516 529.5145)" class="st4" width="15" height="13.4"/>
	
		<rect x="772.5" y="249" transform="matrix(0.7858 -0.6185 0.6185 0.7858 10.8562 531.9164)" class="st0" width="1.5" height="2.5"/>
	
		<rect x="769.7" y="245.6" transform="matrix(0.7858 -0.6185 0.6185 0.7858 12.4136 529.4485)" class="st0" width="1.5" height="2.5"/>
	<rect x="767" y="242" transform="matrix(0.7858 -0.6185 0.6185 0.7858 14.0199 527.0145)" class="st0" width="1.5" height="2.5"/>
	
		<rect x="771.5" y="250.6" transform="matrix(0.7858 -0.6185 0.6185 0.7858 7.7504 536.9329)" class="st4" width="15" height="13.4"/>
	
		<rect x="780.8" y="259.6" transform="matrix(0.7858 -0.6185 0.6185 0.7858 6.0866 539.3382)" class="st0" width="1.5" height="2.5"/>
	
		<rect x="778.1" y="256.2" transform="matrix(0.7858 -0.6185 0.6185 0.7858 7.644 536.8704)" class="st0" width="1.5" height="2.5"/>
	
		<rect x="775.3" y="252.6" transform="matrix(0.7858 -0.6185 0.6185 0.7858 9.2503 534.4362)" class="st0" width="1.5" height="2.5"/>
	<rect x="779.9" y="261" transform="matrix(0.7858 -0.6185 0.6185 0.7858 3.067 544.3381)" class="st4" width="15" height="13.4"/>
	
		<rect x="789.2" y="270.2" transform="matrix(0.7858 -0.6185 0.6185 0.7858 1.3172 546.7601)" class="st0" width="1.5" height="2.5"/>
	
		<rect x="786.4" y="266.7" transform="matrix(0.7858 -0.6185 0.6185 0.7858 2.9146 544.2257)" class="st0" width="1.5" height="2.5"/>
	
		<rect x="783.7" y="263.1" transform="matrix(0.7858 -0.6185 0.6185 0.7858 4.5073 541.8026)" class="st0" width="1.5" height="2.5"/>
	
		<rect x="788.2" y="271.6" transform="matrix(0.7858 -0.6185 0.6185 0.7858 -1.7028 551.7599)" class="st4" width="15" height="13.4"/>
	
		<rect x="797.5" y="280.7" transform="matrix(0.7858 -0.6185 0.6185 0.7858 -3.4121 554.1154)" class="st0" width="1.5" height="2.5"/>
	
		<rect x="794.7" y="277.3" transform="matrix(0.7858 -0.6185 0.6185 0.7858 -1.8596 551.6588)" class="st0" width="1.5" height="2.5"/>
	
		<rect x="791.9" y="273.7" transform="matrix(0.7858 -0.6185 0.6185 0.7858 -0.2534 549.2248)" class="st0" width="1.5" height="2.5"/>
	
		<rect x="796.5" y="282.2" transform="matrix(0.7858 -0.6185 0.6185 0.7858 -6.4371 559.1266)" class="st4" width="15" height="13.4"/>
	
		<rect x="805.8" y="291.3" transform="matrix(0.7858 -0.6185 0.6185 0.7858 -8.1865 561.5486)" class="st0" width="1.5" height="2.5"/>
	
		<rect x="803.1" y="287.8" transform="matrix(0.7858 -0.6185 0.6185 0.7858 -6.574 559.116)" class="st0" width="1.5" height="2.5"/>
	
		<rect x="800.2" y="284.2" transform="matrix(0.7858 -0.6185 0.6185 0.7858 -4.9874 556.5915)" class="st0" width="1.5" height="2.5"/>
	
		<rect x="804.8" y="292.7" transform="matrix(0.7858 -0.6185 0.6185 0.7858 -11.2024 566.5449)" class="st4" width="15" height="13.4"/>
	
		<rect x="814" y="301.9" transform="matrix(0.7858 -0.6185 0.6185 0.7858 -12.9207 568.9153)" class="st0" width="1.5" height="2.5"/>
	
		<rect x="811.3" y="298.3" transform="matrix(0.7858 -0.6185 0.6185 0.7858 -11.3083 566.4827)" class="st0" width="1.5" height="2.5"/>
	
		<rect x="808.5" y="294.8" transform="matrix(0.7858 -0.6185 0.6185 0.7858 -9.757 564.0134)" class="st0" width="1.5" height="2.5"/>
	
		<rect x="813.1" y="303.3" transform="matrix(0.7858 -0.6185 0.6185 0.7858 -15.9767 573.97)" class="st4" width="15" height="13.4"/>
	
		<rect x="822.4" y="312.5" transform="matrix(0.7858 -0.6185 0.6185 0.7858 -17.6902 576.3372)" class="st0" width="1.5" height="2.5"/>
	
		<rect x="819.7" y="308.9" transform="matrix(0.7858 -0.6185 0.6185 0.7858 -16.0724 573.8928)" class="st0" width="1.5" height="2.5"/>
	
		<rect x="816.9" y="305.4" transform="matrix(0.7858 -0.6185 0.6185 0.7858 -14.5213 571.4234)" class="st0" width="1.5" height="2.5"/>
	
		<rect x="821.4" y="313.9" transform="matrix(0.7858 -0.6185 0.6185 0.7858 -20.711 581.3367)" class="st4" width="15" height="13.4"/>
	
		<rect x="830.7" y="323" transform="matrix(0.7858 -0.6185 0.6185 0.7858 -22.4188 583.692)" class="st0" width="1.5" height="2.5"/>
	
		<rect x="827.9" y="319.4" transform="matrix(0.7858 -0.6185 0.6185 0.7858 -20.812 581.2713)" class="st0" width="1.5" height="2.5"/>
	
		<rect x="825.1" y="316" transform="matrix(0.7858 -0.6185 0.6185 0.7858 -19.2607 578.8019)" class="st0" width="1.5" height="2.5"/>
	
		<rect x="829.7" y="324.5" transform="matrix(0.7858 -0.6185 0.6185 0.7858 -25.4794 588.7575)" class="st4" width="15" height="13.4"/>
	
		<rect x="839" y="333.5" transform="matrix(0.7858 -0.6185 0.6185 0.7858 -27.1388 591.1609)" class="st0" width="1.5" height="2.5"/>
	
		<rect x="836.2" y="330" transform="matrix(0.7858 -0.6185 0.6185 0.7858 -25.5815 588.6931)" class="st0" width="1.5" height="2.5"/>
	
		<rect x="833.5" y="326.6" transform="matrix(0.7858 -0.6185 0.6185 0.7858 -24.0302 586.2236)" class="st0" width="1.5" height="2.5"/>
	<rect x="838" y="335" transform="matrix(0.7858 -0.6185 0.6185 0.7858 -30.2116 596.1226)" class="st4" width="15" height="13.4"/>
	
		<rect x="847.3" y="344" transform="matrix(0.7858 -0.6185 0.6185 0.7858 -31.8729 598.5277)" class="st0" width="1.5" height="2.5"/>
	
		<rect x="844.5" y="340.5" transform="matrix(0.7858 -0.6185 0.6185 0.7858 -30.3156 596.0598)" class="st0" width="1.5" height="2.5"/>
	
		<rect x="841.7" y="337.1" transform="matrix(0.7858 -0.6185 0.6185 0.7858 -28.7644 593.5904)" class="st0" width="1.5" height="2.5"/>
	
		<rect x="846.3" y="345.6" transform="matrix(0.7858 -0.6185 0.6185 0.7858 -34.9849 603.5468)" class="st4" width="15" height="13.4"/>
	
		<rect x="855.6" y="354.6" transform="matrix(0.7858 -0.6185 0.6185 0.7858 -36.6425 605.9496)" class="st0" width="1.5" height="2.5"/>
	
		<rect x="852.9" y="351.2" transform="matrix(0.7858 -0.6185 0.6185 0.7858 -35.095 603.4805)" class="st0" width="1.5" height="2.5"/>
	
		<rect x="850.1" y="347.7" transform="matrix(0.7858 -0.6185 0.6185 0.7858 -33.528 601.0001)" class="st0" width="1.5" height="2.5"/>
	
		<rect x="835.6" y="360" transform="matrix(0.3661 -0.9306 0.9306 0.3661 193.2423 1017.0382)" class="st4" width="15" height="13.3"/>
	
		<rect x="838.3" y="363.6" transform="matrix(0.3661 -0.9306 0.9306 0.3661 192.3916 1012.1136)" class="st0" width="1.5" height="2.5"/>
	
		<rect x="842.5" y="365.2" transform="matrix(0.3661 -0.9306 0.9306 0.3661 193.5556 1017.0173)" class="st0" width="1.5" height="2.5"/>
	
		<rect x="846.6" y="366.8" transform="matrix(0.3661 -0.9306 0.9306 0.3661 194.6513 1021.7784)" class="st0" width="1.5" height="2.5"/>
	
		<rect x="823.2" y="355.1" transform="matrix(0.3661 -0.9306 0.9306 0.3661 189.9169 1002.3784)" class="st4" width="15" height="13.3"/>
	
		<rect x="825.9" y="358.7" transform="matrix(0.3661 -0.9306 0.9306 0.3661 189.0652 997.4584)" class="st0" width="1.5" height="2.5"/>
	
		<rect x="830.1" y="360.3" transform="matrix(0.3661 -0.9306 0.9306 0.3661 190.2295 1002.361)" class="st0" width="1.5" height="2.5"/>
	
		<rect x="834.1" y="361.9" transform="matrix(0.3661 -0.9306 0.9306 0.3661 191.3251 1007.1233)" class="st0" width="1.5" height="2.5"/>
	
		<rect x="810.8" y="350.3" transform="matrix(0.3661 -0.9306 0.9306 0.3661 186.5906 987.7228)" class="st4" width="15" height="13.3"/>
	
		<rect x="813.5" y="353.8" transform="matrix(0.3661 -0.9306 0.9306 0.3661 185.7387 982.8033)" class="st0" width="1.5" height="2.5"/>
	
		<rect x="817.7" y="355.4" transform="matrix(0.3661 -0.9306 0.9306 0.3661 186.9063 987.6901)" class="st0" width="1.5" height="2.5"/>
	
		<rect x="821.8" y="357" transform="matrix(0.3661 -0.9306 0.9306 0.3661 188.0266 992.5632)" class="st0" width="1.5" height="2.5"/>
	
		<rect x="798.4" y="345.4" transform="matrix(0.3661 -0.9306 0.9306 0.3661 183.2644 973.0673)" class="st4" width="15" height="13.3"/>
	
		<rect x="801.1" y="348.9" transform="matrix(0.3661 -0.9306 0.9306 0.3661 182.4127 968.1481)" class="st0" width="1.5" height="2.5"/>
	
		<rect x="805.3" y="350.5" transform="matrix(0.3661 -0.9306 0.9306 0.3661 183.616 973.0844)" class="st0" width="1.5" height="2.5"/>
	
		<rect x="809.4" y="352.1" transform="matrix(0.3661 -0.9306 0.9306 0.3661 184.6972 977.9225)" class="st0" width="1.5" height="2.5"/>
	
		<rect x="786" y="340.5" transform="matrix(0.3661 -0.9306 0.9306 0.3661 179.9629 958.5217)" class="st4" width="15" height="13.3"/>
	
		<rect x="788.7" y="344.1" transform="matrix(0.3661 -0.9306 0.9306 0.3661 179.1142 953.5886)" class="st0" width="1.5" height="2.5"/>
	
		<rect x="792.9" y="345.6" transform="matrix(0.3661 -0.9306 0.9306 0.3661 180.2896 958.4293)" class="st0" width="1.5" height="2.5"/>
	
		<rect x="797" y="347.3" transform="matrix(0.3661 -0.9306 0.9306 0.3661 181.3571 963.3404)" class="st0" width="1.5" height="2.5"/>
	
		<rect x="773.6" y="335.6" transform="matrix(0.3661 -0.9306 0.9306 0.3661 176.6357 943.8701)" class="st4" width="15" height="13.3"/>
	
		<rect x="776.3" y="339.2" transform="matrix(0.3661 -0.9306 0.9306 0.3661 175.7849 938.9474)" class="st0" width="1.5" height="2.5"/>
	
		<rect x="780.5" y="340.7" transform="matrix(0.3661 -0.9306 0.9306 0.3661 176.9634 943.7742)" class="st0" width="1.5" height="2.5"/>
	
		<rect x="784.6" y="342.4" transform="matrix(0.3661 -0.9306 0.9306 0.3661 178.031 948.684)" class="st0" width="1.5" height="2.5"/>
	
		<rect x="761.2" y="330.7" transform="matrix(0.3661 -0.9306 0.9306 0.3661 173.3103 929.2106)" class="st4" width="15" height="13.3"/>
	
		<rect x="763.9" y="334.3" transform="matrix(0.3661 -0.9306 0.9306 0.3661 172.4586 924.2924)" class="st0" width="1.5" height="2.5"/>
	
		<rect x="768" y="335.9" transform="matrix(0.3661 -0.9306 0.9306 0.3661 173.6371 929.1189)" class="st0" width="1.5" height="2.5"/>
	
		<rect x="772.3" y="337.6" transform="matrix(0.3661 -0.9306 0.9306 0.3661 174.7298 934.1375)" class="st0" width="1.5" height="2.5"/>
	
		<rect x="748.8" y="325.9" transform="matrix(0.3661 -0.9306 0.9306 0.3661 169.9839 914.5566)" class="st4" width="15" height="13.3"/>
	
		<rect x="751.5" y="329.4" transform="matrix(0.3661 -0.9306 0.9306 0.3661 169.1257 909.6715)" class="st0" width="1.5" height="2.5"/>
	
		<rect x="755.7" y="331" transform="matrix(0.3661 -0.9306 0.9306 0.3661 170.3385 914.5601)" class="st0" width="1.5" height="2.5"/>
	
		<rect x="759.8" y="332.7" transform="matrix(0.3661 -0.9306 0.9306 0.3661 171.4065 919.4675)" class="st0" width="1.5" height="2.5"/>
	
		<rect x="736.4" y="321" transform="matrix(0.3661 -0.9306 0.9306 0.3661 166.6827 900.0093)" class="st4" width="15" height="13.3"/>
	
		<rect x="739.2" y="324.6" transform="matrix(0.3661 -0.9306 0.9306 0.3661 165.8245 895.1256)" class="st0" width="1.5" height="2.5"/>
	
		<rect x="743.3" y="326.1" transform="matrix(0.3661 -0.9306 0.9306 0.3661 167.0028 899.9523)" class="st0" width="1.5" height="2.5"/>
	
		<rect x="747.4" y="327.8" transform="matrix(0.3661 -0.9306 0.9306 0.3661 168.0841 904.7906)" class="st0" width="1.5" height="2.5"/>
	
		<rect x="724" y="316.1" transform="matrix(0.3661 -0.9306 0.9306 0.3661 163.3564 885.3538)" class="st4" width="15" height="13.3"/>
	
		<rect x="726.7" y="319.7" transform="matrix(0.3661 -0.9306 0.9306 0.3661 162.5072 880.4236)" class="st0" width="1.5" height="2.5"/>
	
		<rect x="730.9" y="321.3" transform="matrix(0.3661 -0.9306 0.9306 0.3661 163.6767 885.2966)" class="st0" width="1.5" height="2.5"/>
	
		<rect x="735" y="322.9" transform="matrix(0.3661 -0.9306 0.9306 0.3661 164.7579 890.1348)" class="st0" width="1.5" height="2.5"/>
	
		<rect x="711.6" y="311.2" transform="matrix(0.3661 -0.9306 0.9306 0.3661 160.0295 870.702)" class="st4" width="15" height="13.3"/>
	
		<rect x="714.3" y="314.8" transform="matrix(0.3661 -0.9306 0.9306 0.3661 159.1781 865.7813)" class="st0" width="1.5" height="2.5"/>
	
		<rect x="718.5" y="316.4" transform="matrix(0.3661 -0.9306 0.9306 0.3661 160.3505 870.6408)" class="st0" width="1.5" height="2.5"/>
	
		<rect x="722.6" y="318" transform="matrix(0.3661 -0.9306 0.9306 0.3661 161.4316 875.4792)" class="st0" width="1.5" height="2.5"/>
	
		<rect x="699.2" y="306.4" transform="matrix(0.3661 -0.9306 0.9306 0.3661 156.7038 856.0443)" class="st4" width="15" height="13.3"/>
	
		<rect x="701.9" y="309.9" transform="matrix(0.3661 -0.9306 0.9306 0.3661 155.8458 851.1583)" class="st0" width="1.5" height="2.5"/>
	
		<rect x="706.1" y="311.5" transform="matrix(0.3661 -0.9306 0.9306 0.3661 157.0242 855.985)" class="st0" width="1.5" height="2.5"/>
	
		<rect x="710.2" y="313.1" transform="matrix(0.3661 -0.9306 0.9306 0.3661 158.1367 860.9006)" class="st0" width="1.5" height="2.5"/>
	
		<rect x="686.8" y="301.5" transform="matrix(0.3661 -0.9306 0.9306 0.3661 153.3776 841.3873)" class="st4" width="15" height="13.3"/>
	
		<rect x="689.5" y="305.1" transform="matrix(0.3661 -0.9306 0.9306 0.3661 152.5195 836.5024)" class="st0" width="1.5" height="2.5"/>
	
		<rect x="693.7" y="306.6" transform="matrix(0.3661 -0.9306 0.9306 0.3661 153.7291 841.4073)" class="st0" width="1.5" height="2.5"/>
	
		<rect x="697.8" y="308.2" transform="matrix(0.3661 -0.9306 0.9306 0.3661 154.813 846.233)" class="st0" width="1.5" height="2.5"/>
	
		<rect x="674.4" y="296.6" transform="matrix(0.3661 -0.9306 0.9306 0.3661 150.0762 826.8416)" class="st4" width="15" height="13.3"/>
	
		<rect x="677.2" y="300.2" transform="matrix(0.3661 -0.9306 0.9306 0.3661 149.2181 821.9565)" class="st0" width="1.5" height="2.5"/>
	
		<rect x="681.3" y="301.7" transform="matrix(0.3661 -0.9306 0.9306 0.3661 150.4053 826.7401)" class="st0" width="1.5" height="2.5"/>
	
		<rect x="685.4" y="303.4" transform="matrix(0.3661 -0.9306 0.9306 0.3661 151.4779 831.6216)" class="st0" width="1.5" height="2.5"/>
	
		<rect x="656.2" y="298.7" transform="matrix(0.7815 -0.6239 0.6239 0.7815 -46.146 480.5426)" class="st4" width="13.6" height="15"/>
	
		<rect x="658" y="308.2" transform="matrix(0.7816 -0.6238 0.6238 0.7816 -48.7139 478.7355)" class="st0" width="2.5" height="1.5"/>
	
		<rect x="661.6" y="305.3" transform="matrix(0.7816 -0.6238 0.6238 0.7816 -46.1188 480.3085)" class="st0" width="2.5" height="1.5"/>
	
		<rect x="665.1" y="302.5" transform="matrix(0.7816 -0.6238 0.6238 0.7816 -43.6134 481.8961)" class="st0" width="2.5" height="1.5"/>
	
		<rect x="645.5" y="307.2" transform="matrix(0.7815 -0.6239 0.6239 0.7815 -53.8038 475.7394)" class="st4" width="13.6" height="15"/>
	
		<rect x="647.4" y="316.6" transform="matrix(0.7815 -0.6239 0.6239 0.7815 -56.2506 474.0312)" class="st0" width="2.5" height="1.5"/>
	
		<rect x="650.9" y="313.8" transform="matrix(0.7816 -0.6238 0.6238 0.7816 -53.7735 475.5037)" class="st0" width="2.5" height="1.5"/>
	
		<rect x="654.5" y="310.9" transform="matrix(0.7815 -0.6239 0.6239 0.7815 -51.149 477.1913)" class="st0" width="2.5" height="1.5"/>
	
		<rect x="634.8" y="315.6" transform="matrix(0.7816 -0.6238 0.6238 0.7816 -61.4288 470.8542)" class="st4" width="13.6" height="15"/>
	
		<rect x="636.8" y="325.1" transform="matrix(0.7816 -0.6238 0.6238 0.7816 -63.9036 469.1917)" class="st0" width="2.5" height="1.5"/>
	
		<rect x="640.3" y="322.3" transform="matrix(0.7816 -0.6238 0.6238 0.7816 -61.3774 470.7374)" class="st0" width="2.5" height="1.5"/>
	
		<rect x="643.8" y="319.5" transform="matrix(0.7816 -0.6238 0.6238 0.7816 -58.8592 472.3169)" class="st0" width="2.5" height="1.5"/>
	
		<rect x="624.2" y="324.1" transform="matrix(0.7815 -0.6239 0.6239 0.7815 -69.0316 466.1143)" class="st4" width="13.6" height="15"/>
	
		<rect x="626.1" y="333.6" transform="matrix(0.7815 -0.6239 0.6239 0.7815 -71.5124 464.4612)" class="st0" width="2.5" height="1.5"/>
	
		<rect x="629.6" y="330.7" transform="matrix(0.7815 -0.6239 0.6239 0.7815 -68.9727 465.9989)" class="st0" width="2.5" height="1.5"/>
	
		<rect x="633.2" y="327.9" transform="matrix(0.7815 -0.6239 0.6239 0.7815 -66.4108 467.6214)" class="st0" width="2.5" height="1.5"/>
	
		<rect x="613.5" y="332.6" transform="matrix(0.7816 -0.6238 0.6238 0.7816 -76.6876 461.2834)" class="st4" width="13.6" height="15"/>
	
		<rect x="615.5" y="342.1" transform="matrix(0.7815 -0.6239 0.6239 0.7815 -79.1152 459.6937)" class="st0" width="2.5" height="1.5"/>
	
		<rect x="619" y="339.3" transform="matrix(0.7816 -0.6238 0.6238 0.7816 -76.6334 461.1647)" class="st0" width="2.5" height="1.5"/>
	
		<rect x="622.5" y="336.4" transform="matrix(0.7815 -0.6239 0.6239 0.7815 -74.0697 462.8187)" class="st0" width="2.5" height="1.5"/>
	
		<rect x="602.9" y="341.1" transform="matrix(0.7815 -0.6239 0.6239 0.7815 -84.2362 456.579)" class="st4" width="13.6" height="15"/>
	
		<rect x="604.8" y="350.6" transform="matrix(0.7815 -0.6239 0.6239 0.7815 -86.7741 454.8911)" class="st0" width="2.5" height="1.5"/>
	
		<rect x="608.4" y="347.7" transform="matrix(0.7815 -0.6239 0.6239 0.7815 -84.1785 456.464)" class="st0" width="2.5" height="1.5"/>
	
		<rect x="611.9" y="344.9" transform="matrix(0.7815 -0.6239 0.6239 0.7815 -81.6726 458.0513)" class="st0" width="2.5" height="1.5"/>
	
		<rect x="592.3" y="349.6" transform="matrix(0.7815 -0.6239 0.6239 0.7815 -91.8949 451.7764)" class="st4" width="13.6" height="15"/>
	
		<rect x="594.2" y="359.1" transform="matrix(0.7815 -0.6239 0.6239 0.7815 -94.377 450.1237)" class="st0" width="2.5" height="1.5"/>
	
		<rect x="597.7" y="356.2" transform="matrix(0.7815 -0.6239 0.6239 0.7815 -91.8374 451.6614)" class="st0" width="2.5" height="1.5"/>
	
		<rect x="601.2" y="353.4" transform="matrix(0.7815 -0.6239 0.6239 0.7815 -89.3315 453.2488)" class="st0" width="2.5" height="1.5"/>
	
		<rect x="581.7" y="358.1" transform="matrix(0.7815 -0.6239 0.6239 0.7815 -99.498 447.0092)" class="st4" width="13.6" height="15"/>
	
		<rect x="583.5" y="367.5" transform="matrix(0.7815 -0.6239 0.6239 0.7815 -102.0009 445.2652)" class="st0" width="2.5" height="1.5"/>
	
		<rect x="587.1" y="364.7" transform="matrix(0.7816 -0.6238 0.6238 0.7816 -99.4933 446.8257)" class="st0" width="2.5" height="1.5"/>
	
		<rect x="590.6" y="361.9" transform="matrix(0.7815 -0.6239 0.6239 0.7815 -96.9344 448.4813)" class="st0" width="2.5" height="1.5"/>
	
		<rect x="591.5" y="29.4" transform="matrix(0.9572 -0.2894 0.2894 0.9572 14.9177 172.9333)" class="st0" width="1.5" height="13.2"/>
	<polygon class="st5" points="582.7,7.1 586.6,19.8 588,19.3 586.5,14.3 586.5,14.2 586.6,14.2 586.6,14.2 586.6,14.2 586.6,14.2 
		586.6,14.2 586.6,14.2 586.6,14.2 586.6,14.3 586.6,14.3 587,14.9 587.9,15.9 589.5,18 590.7,17 586.6,11.8 584.5,9.2 583.5,7.9 
		583,7.3 582.9,7.1 582.8,7.1 582.8,7.1 582.8,7.1 582.8,7.1 582.8,7.1 582.8,7.1 582.8,7.1 	"/>
	
		<rect x="600" y="24.4" transform="matrix(0.7858 -0.6185 0.6185 0.7858 109.4986 378.1992)" class="st0" width="1.5" height="13.2"/>
	
		<rect x="862.3" y="359.6" transform="matrix(0.7858 -0.6185 0.6185 0.7858 -40.3784 611.7941)" class="st0" width="1.5" height="9.2"/>
	<polygon class="st5" points="876.8,380.4 871.1,373.1 869.9,374 872.2,376.9 872.2,377 872.1,377 872.1,377 872.1,377 872.1,377 
		872.1,377 872,377 871.6,376.8 870.8,376.5 869.1,375.8 868.5,377.2 872.8,378.9 874.9,379.7 876,380.2 876.6,380.4 876.7,380.4 
		876.7,380.4 876.7,380.4 876.7,380.4 876.7,380.4 876.7,380.4 876.7,380.4 	"/>
	
		<rect x="856.9" y="367.5" transform="matrix(0.3661 -0.9306 0.9306 0.3661 197.4207 1033.9146)" class="st0" width="1.5" height="9.2"/>
	
		<rect x="673.7" y="299.7" transform="matrix(0.3661 -0.9306 0.9306 0.3661 147.9696 818.0765)" class="st0" width="1.5" height="1.4"/>
	<polygon class="st5" points="671.6,298.5 673,299 672.4,300.4 671.9,300.2 671.9,300.3 671.9,300.3 671.9,300.3 671.9,300.3 
		671.9,300.3 671.9,300.3 671.9,300.3 671.8,300.4 671.7,300.4 671.5,300.6 670.5,299.5 671.1,299 671.4,298.8 671.5,298.7 
		671.6,298.6 671.6,298.6 671.6,298.6 671.6,298.6 671.6,298.6 671.6,298.6 671.6,298.6 	"/>
	
		<rect x="668.8" y="300.5" transform="matrix(0.7815 -0.6239 0.6239 0.7815 -41.6569 483.5251)" class="st0" width="1.4" height="1.5"/>
	<polygon class="st0" points="521.2,4.9 586.7,5.5 586.7,369.9 880.8,369.9 880.8,434.2 521.8,434.2 	"/>
	<polygon class="st0" points="371.9,32.3 475.7,32.3 475.7,3.2 342.3,3.2 342.3,197.4 476.7,197.4 476.7,168.3 371.9,168.3 
		371.9,112.4 449.5,112.4 449.5,83.3 371.9,83.3 	"/>
	<polygon class="st0" points="371.4,272.2 476.2,272.2 476.2,243.6 342.3,243.6 342.3,434.2 371.4,434.2 371.4,346 447.6,346 
		447.6,317.4 371.4,317.4 	"/>
	<path class="st0" d="M262.3,107.8c-16.7-15-42.7-42-108.9-45.7c-25.1-1.4-88.7,5.7-89.1,46.9c-0.4,42.5,107.3,64.8,144.1,90.4
		c0.4,0.3-142.4,0.4-143.1,0c-44.6-26.6-67-61.2-64.8-88.6C7.6,23.7,91.5,2.2,152.7,1.2c30.9-0.5,91.9,8.5,152.9,63.2
		C305.8,64.6,262.5,108,262.3,107.8z"/>
	<path class="st0" d="M166.8,243.6c-0.8-0.4,105.2-0.3,105.5,0c27.4,30.1,31,54.5,32.2,74.8c3.2,54.3-49.8,118.3-151.7,115.6
		c-70.2-1.9-93.1-12.3-152.3-62.6c-0.3-0.2,44.9-47.1,45.1-46.9c44,27.3,57.8,43.8,107.1,45.7c64.9,2.5,88.3-31.2,87.3-49.4
		C238.6,294.7,220.6,267.7,166.8,243.6z"/>
</g>
</svg>
