<svg id="Слой_1" data-name="Слой 1" xmlns="http://www.w3.org/2000/svg" xmlns:xlink="http://www.w3.org/1999/xlink" viewBox="0 0 1046.44779 434.01912"><defs><style>.cls-1,.cls-5{fill:none;}.cls-1,.cls-8{stroke:#000;stroke-miterlimit:10;}.cls-2{fill:url(#Безымянный_градиент_4);}.cls-3{fill:url(#Безымянный_градиент_2);}.cls-4{fill:url(#Безымянный_градиент_3);}.cls-6,.cls-7{fill:#1d1d1b;}.cls-7{fill-rule:evenodd;}</style><linearGradient id="Безымянный_градиент_4" x1="586.33775" y1="371.97284" x2="1046.23777" y2="371.97284" gradientTransform="translate(0.21002 -64.70373)" gradientUnits="userSpaceOnUse"><stop offset="0" stop-color="#ff7c7c"/><stop offset="0.426" stop-color="#ff7e7e" stop-opacity="0.574"/><stop offset="0.5795" stop-color="#ff8585" stop-opacity="0.4205"/><stop offset="0.6889" stop-color="#ff9090" stop-opacity="0.3111"/><stop offset="0.7773" stop-color="#ffa1a1" stop-opacity="0.2227"/><stop offset="0.853" stop-color="#ffb7b7" stop-opacity="0.147"/><stop offset="0.9201" stop-color="#ffd3d3" stop-opacity="0.07992"/><stop offset="0.9793" stop-color="#fff2f2" stop-opacity="0.02075"/><stop offset="1" stop-color="#fff" stop-opacity="0"/></linearGradient><linearGradient id="Безымянный_градиент_2" x1="584.33775" y1="351.22285" x2="1046.13779" y2="351.22285" gradientTransform="translate(0.21002 -64.70373)" gradientUnits="userSpaceOnUse"><stop offset="0" stop-color="#838fff"/><stop offset="0.4307" stop-color="#8591ff" stop-opacity="0.5693"/><stop offset="0.5859" stop-color="#8c97ff" stop-opacity="0.4141"/><stop offset="0.6965" stop-color="#97a2ff" stop-opacity="0.3035"/><stop offset="0.7859" stop-color="#a8b1ff" stop-opacity="0.2141"/><stop offset="0.8625" stop-color="#bec5ff" stop-opacity="0.1375"/><stop offset="0.9302" stop-color="#daddff" stop-opacity="0.06976"/><stop offset="0.9901" stop-color="#f9faff" stop-opacity="0.00987"/><stop offset="1" stop-color="#fff" stop-opacity="0"/></linearGradient><linearGradient id="Безымянный_градиент_3" x1="585.33775" y1="317.72285" x2="1046.13779" y2="317.72285" gradientTransform="translate(0.21002 -64.70373)" gradientUnits="userSpaceOnUse"><stop offset="0" stop-color="#a2ff7c"/><stop offset="0.4307" stop-color="#a3ff7e" stop-opacity="0.5693"/><stop offset="0.5859" stop-color="#a8ff85" stop-opacity="0.4141"/><stop offset="0.6965" stop-color="#b1ff90" stop-opacity="0.3035"/><stop offset="0.7859" stop-color="#bdffa1" stop-opacity="0.2141"/><stop offset="0.8625" stop-color="#ccffb7" stop-opacity="0.1375"/><stop offset="0.9302" stop-color="#dfffd3" stop-opacity="0.06976"/><stop offset="0.9901" stop-color="#f6fff2" stop-opacity="0.00987"/><stop offset="1" stop-color="#fafff8" stop-opacity="0"/></linearGradient></defs><polyline points="17.348 211.019 532.048 211.519 532.048 230.019 18.348 230.019"/><polyline class="cls-1" points="821.448 432.819 522.148 432.819 520.748 3.519"/><polygon class="cls-2" points="1046.348 257.519 743.048 207.719 586.548 219.519 586.548 228.519 770.548 244.519 1046.448 406.819 1046.348 257.519"/><polygon class="cls-3" points="584.548 222.519 584.548 216.519 747.548 215.519 1046.348 298.519 1046.348 357.519 759.648 231.019 584.548 222.519"/><polygon class="cls-4" points="585.548 217.519 585.548 210.519 739.548 206.519 1046.348 257.519 1046.348 299.519 747.848 215.819 585.548 217.519"/><rect class="cls-5" x="662.32967" y="286.71603" width="15.00015" height="13.20015" transform="translate(-55.95759 205.23925) rotate(-16.78595)"/><rect class="cls-6" x="668.05622" y="287.90855" width="1.50002" height="2.40002" transform="translate(-54.78607 204.76438) rotate(-16.78595)"/><rect class="cls-6" x="669.3351" y="292.01232" width="1.50002" height="2.40002" transform="translate(-55.91674 205.30858) rotate(-16.78595)"/><rect class="cls-6" x="670.45918" y="296.23215" width="1.50002" height="2.40002" transform="translate(-57.08751 205.81301) rotate(-16.78595)"/><rect class="cls-5" x="658.52958" y="274.11551" width="15.00015" height="13.20015" transform="translate(-52.48051 203.60489) rotate(-16.78595)"/><rect class="cls-6" x="664.22925" y="275.2122" width="1.50002" height="2.40002" transform="translate(-51.28247 203.11817) rotate(-16.78595)"/><rect class="cls-6" x="665.53272" y="279.41195" width="1.50002" height="2.40002" transform="translate(-52.4398 203.67356) rotate(-16.78595)"/><rect class="cls-6" x="666.75465" y="283.711" width="1.50002" height="2.40002" transform="translate(-53.62929 204.20963) rotate(-16.78595)"/><rect class="cls-5" x="654.72939" y="261.51501" width="15.00015" height="13.20015" transform="translate(-49.00345 201.9705) rotate(-16.78595)"/><rect class="cls-6" x="660.4315" y="262.6115" width="1.50002" height="2.40002" transform="translate(-47.80525 201.48448) rotate(-16.78595)"/><rect class="cls-6" x="661.73253" y="266.81145" width="1.50002" height="2.40002" transform="translate(-48.96274 202.03917) rotate(-16.78595)"/><rect class="cls-6" x="662.9569" y="271.1103" width="1.50002" height="2.40002" transform="translate(-50.15207 202.57594) rotate(-16.78595)"/><rect class="cls-5" x="650.93004" y="248.91433" width="15.00015" height="13.20013" transform="translate(-45.5263 200.33635) rotate(-16.78595)"/><rect class="cls-6" x="656.62931" y="250.01111" width="1.50002" height="2.40002" transform="translate(-44.3283 199.84952) rotate(-16.78595)"/><rect class="cls-6" x="657.92978" y="254.21104" width="1.50002" height="2.40002" transform="translate(-45.48581 200.40405) rotate(-16.78595)"/><rect class="cls-6" x="659.15671" y="258.50979" width="1.50002" height="2.40002" transform="translate(-46.675 200.94155) rotate(-16.78595)"/><rect class="cls-5" x="647.12896" y="236.31394" width="15.00015" height="13.20013" transform="translate(-42.04931 198.70171) rotate(-16.78595)"/><rect class="cls-6" x="652.75989" y="237.53541" width="1.50002" height="2.40002" transform="translate(-40.89023 198.20046) rotate(-16.78595)"/><rect class="cls-6" x="654.03647" y="241.63922" width="1.50002" height="2.40002" transform="translate(-42.021 198.74399) rotate(-16.78595)"/><rect class="cls-6" x="655.35662" y="245.90931" width="1.50002" height="2.40002" transform="translate(-43.19794 199.3072) rotate(-16.78595)"/><rect class="cls-5" x="643.32876" y="223.71343" width="15.00015" height="13.20013" transform="translate(-38.57224 197.06732) rotate(-16.78595)"/><rect class="cls-6" x="648.95964" y="224.93502" width="1.50002" height="2.40002" transform="translate(-37.4132 196.56606) rotate(-16.78595)"/><rect class="cls-6" x="650.23629" y="229.03872" width="1.50002" height="2.40002" transform="translate(-38.54394 197.10961) rotate(-16.78595)"/><rect class="cls-6" x="651.55404" y="233.309" width="1.50002" height="2.40002" transform="translate(-39.72103 197.67213) rotate(-16.78595)"/><rect class="cls-5" x="639.52857" y="211.11291" width="15.00015" height="13.20013" transform="translate(-35.09517 195.43294) rotate(-16.78595)"/><rect class="cls-6" x="645.13297" y="212.23838" width="1.50002" height="2.40002" transform="translate(-33.9095 194.91993) rotate(-16.78595)"/><rect class="cls-6" x="646.43604" y="216.43822" width="1.50002" height="2.40002" transform="translate(-35.06688 195.47521) rotate(-16.78595)"/><rect class="cls-6" x="647.75624" y="220.70829" width="1.50002" height="2.40002" transform="translate(-36.24381 196.03842) rotate(-16.78595)"/><rect class="cls-5" x="635.72939" y="198.51221" width="15.00015" height="13.20013" transform="translate(-31.61801 193.79883) rotate(-16.78595)"/><rect class="cls-6" x="641.33278" y="199.63787" width="1.50002" height="2.40002" transform="translate(-30.43243 193.28554) rotate(-16.78595)"/><rect class="cls-6" x="642.63345" y="203.83803" width="1.50002" height="2.40002" transform="translate(-31.59001 193.84014) rotate(-16.78595)"/><rect class="cls-6" x="643.92912" y="208.01167" width="1.50002" height="2.40002" transform="translate(-32.74013 194.39216) rotate(-16.78595)"/><rect class="cls-5" x="631.92824" y="185.91182" width="15.00015" height="13.20013" transform="translate(-28.14102 192.16417) rotate(-16.78595)"/><rect class="cls-6" x="637.55917" y="187.1334" width="1.50002" height="2.40002" transform="translate(-26.98197 191.66292) rotate(-16.78595)"/><rect class="cls-6" x="638.83756" y="191.23683" width="1.50002" height="2.40002" transform="translate(-28.11256 192.20697) rotate(-16.78595)"/><rect class="cls-6" x="640.12893" y="195.41117" width="1.50002" height="2.40002" transform="translate(-29.26307 192.75778) rotate(-16.78595)"/><rect class="cls-5" x="628.12795" y="173.31134" width="15.00015" height="13.20013" transform="translate(-24.66396 190.52976) rotate(-16.78595)"/><rect class="cls-6" x="633.75909" y="174.53301" width="1.50002" height="2.40002" transform="translate(-23.50494 190.02857) rotate(-16.78595)"/><rect class="cls-6" x="635.03737" y="178.6362" width="1.50002" height="2.40002" transform="translate(-24.63546 190.57257) rotate(-16.78595)"/><rect class="cls-6" x="636.35332" y="182.9071" width="1.50002" height="2.40002" transform="translate(-25.81281 191.1346) rotate(-16.78595)"/><rect class="cls-5" x="624.32786" y="160.71083" width="15.00015" height="13.20013" transform="translate(-21.18689 188.8954) rotate(-16.78595)"/><rect class="cls-6" x="629.93226" y="161.83629" width="1.50002" height="2.40002" transform="translate(-20.00122 188.38239) rotate(-16.78595)"/><rect class="cls-6" x="631.23529" y="166.03601" width="1.50002" height="2.40002" transform="translate(-21.15857 188.93765) rotate(-16.78595)"/><rect class="cls-6" x="632.45976" y="170.33499" width="1.50002" height="2.40002" transform="translate(-22.34792 189.47445) rotate(-16.78595)"/><rect class="cls-5" x="620.52857" y="148.11011" width="15.00015" height="13.20013" transform="translate(-17.70973 187.26126) rotate(-16.78595)"/><rect class="cls-6" x="626.13207" y="149.23578" width="1.50002" height="2.40002" transform="translate(-16.52415 186.74801) rotate(-16.78595)"/><rect class="cls-6" x="627.43284" y="153.43602" width="1.50002" height="2.40002" transform="translate(-17.68175 187.30263) rotate(-16.78595)"/><rect class="cls-6" x="628.65957" y="157.73449" width="1.50002" height="2.40002" transform="translate(-18.87086 187.84007) rotate(-16.78595)"/><rect class="cls-5" x="616.63191" y="135.53861" width="15.00015" height="13.20013" transform="translate(-14.24515 185.60025) rotate(-16.78595)"/><rect class="cls-6" x="622.35856" y="136.73152" width="1.50002" height="2.40002" transform="translate(-13.07375 185.12542) rotate(-16.78595)"/><rect class="cls-6" x="623.63485" y="140.83503" width="1.50002" height="2.40002" transform="translate(-14.20445 185.66886) rotate(-16.78595)"/><rect class="cls-6" x="624.85938" y="145.13398" width="1.50002" height="2.40002" transform="translate(-15.39379 186.20568) rotate(-16.78595)"/><rect class="cls-5" x="612.92982" y="123.01737" width="15.00015" height="13.20013" transform="translate(-10.7868 183.99757) rotate(-16.78595)"/><rect class="cls-6" x="618.55838" y="124.13102" width="1.50002" height="2.40003" transform="translate(-9.59669 183.49104) rotate(-16.78595)"/><rect class="cls-6" x="619.83466" y="128.23442" width="1.50002" height="2.40002" transform="translate(-10.72735 184.03447) rotate(-16.78595)"/><rect class="cls-6" x="621.05699" y="132.53398" width="1.50002" height="2.40002" transform="translate(-11.91697 184.57068) rotate(-16.78595)"/><rect class="cls-5" x="609.12963" y="110.41686" width="15.00015" height="13.20013" transform="translate(-7.30973 182.36318) rotate(-16.78595)"/><rect class="cls-6" x="614.8332" y="111.51245" width="1.50002" height="2.40003" transform="translate(-6.11121 181.87755) rotate(-16.78595)"/><rect class="cls-6" x="616.03458" y="115.63392" width="1.50002" height="2.40003" transform="translate(-7.25029 182.40011) rotate(-16.78595)"/><rect class="cls-6" x="617.25901" y="119.93287" width="1.50002" height="2.40003" transform="translate(-8.43964 182.9369) rotate(-16.78595)"/><rect class="cls-5" x="605.33024" y="97.81606" width="15.00015" height="13.20013" transform="translate(-3.83255 180.72902) rotate(-16.78595)"/><rect class="cls-6" x="611.03301" y="98.91193" width="1.50002" height="2.40003" transform="translate(-2.63414 180.24316) rotate(-16.78595)"/><rect class="cls-6" x="612.33038" y="103.11327" width="1.50002" height="2.40003" transform="translate(-3.7922 180.79685) rotate(-16.78595)"/><rect class="cls-6" x="613.45876" y="107.33238" width="1.50002" height="2.40003" transform="translate(-4.96258 181.3025) rotate(-16.78595)"/><rect class="cls-5" x="601.52926" y="85.21586" width="15.00015" height="13.20013" transform="translate(-0.35561 179.09441) rotate(-16.78595)"/><rect class="cls-6" x="607.25611" y="86.40877" width="1.50002" height="2.40003" transform="translate(0.8158 178.61964) rotate(-16.78595)"/><rect class="cls-6" x="608.5324" y="90.51217" width="1.50002" height="2.40003" transform="translate(-0.31487 179.16308) rotate(-16.78595)"/><rect class="cls-6" x="609.65857" y="94.73187" width="1.50002" height="2.40003" transform="translate(-1.48552 179.66811) rotate(-16.78595)"/><rect class="cls-5" x="597.72907" y="72.61535" width="15.00015" height="13.20013" transform="translate(3.12146 177.46003) rotate(-16.78595)"/><rect class="cls-6" x="603.45596" y="73.80828" width="1.50002" height="2.40003" transform="translate(4.29287 176.98527) rotate(-16.78595)"/><rect class="cls-6" x="604.73221" y="77.91167" width="1.50002" height="2.40003" transform="translate(3.1622 177.52869) rotate(-16.78595)"/><rect class="cls-6" x="605.85638" y="82.13198" width="1.50002" height="2.40003" transform="translate(1.99129 178.03318) rotate(-16.78595)"/><rect class="cls-5" x="593.92882" y="60.01477" width="15.00015" height="13.20013" transform="translate(6.59854 175.82562) rotate(-16.78595)"/><rect class="cls-6" x="599.62889" y="61.11134" width="1.50002" height="2.40003" transform="translate(7.79663 175.33901) rotate(-16.78595)"/><rect class="cls-6" x="600.93196" y="65.31108" width="1.50002" height="2.40003" transform="translate(6.63928 175.89428) rotate(-16.78595)"/><rect class="cls-6" x="602.0582" y="69.53078" width="1.50002" height="2.40003" transform="translate(5.46863 176.39934) rotate(-16.78595)"/><rect class="cls-5" x="590.12943" y="47.41397" width="15.00015" height="13.20013" transform="translate(10.07572 174.19145) rotate(-16.78595)"/><rect class="cls-6" x="595.8287" y="48.51083" width="1.50002" height="2.40003" transform="translate(11.2737 173.70463) rotate(-16.78595)"/><rect class="cls-6" x="597.12977" y="52.71127" width="1.50002" height="2.40003" transform="translate(10.11606 174.25935) rotate(-16.78595)"/><rect class="cls-6" x="598.3562" y="57.00953" width="1.50002" height="2.40003" transform="translate(8.927 174.79669) rotate(-16.78595)"/><rect class="cls-5" x="605.42629" y="39.42367" width="14.99984" height="13.39985" transform="translate(102.63495 387.7565) rotate(-38.14886)"/><rect class="cls-6" x="614.81317" y="48.6058" width="1.49998" height="2.49997" transform="translate(100.89279 390.18253) rotate(-38.14886)"/><rect class="cls-6" x="611.96254" y="45.12845" width="1.49998" height="2.49997" transform="translate(102.4319 387.67895) rotate(-38.14886)"/><rect class="cls-6" x="609.22078" y="41.53777" width="1.49998" height="2.49997" transform="translate(104.06427 385.2184) rotate(-38.14886)"/><rect class="cls-5" x="613.73347" y="50.0355" width="14.99984" height="13.39985" transform="translate(97.8543 395.1545) rotate(-38.14886)"/><rect class="cls-6" x="623.01611" y="59.14465" width="1.49998" height="2.49997" transform="translate(96.13494 397.50055) rotate(-38.14886)"/><rect class="cls-6" x="620.27052" y="55.73914" width="1.49998" height="2.49997" transform="translate(97.65212 395.07719) rotate(-38.14886)"/><rect class="cls-6" x="617.52881" y="52.14841" width="1.49998" height="2.49997" transform="translate(99.28453 392.61667) rotate(-38.14886)"/><rect class="cls-5" x="622.0424" y="60.64513" width="14.99984" height="13.39986" transform="translate(93.07537 402.55311) rotate(-38.14886)"/><rect class="cls-6" x="631.32414" y="69.75539" width="1.49998" height="2.49997" transform="translate(91.35515 404.89884) rotate(-38.14886)"/><rect class="cls-6" x="628.5954" y="66.20939" width="1.49998" height="2.49997" transform="translate(92.9627 402.45588) rotate(-38.14886)"/><rect class="cls-6" x="625.83684" y="62.75926" width="1.49998" height="2.49997" transform="translate(94.50466 400.01498) rotate(-38.14886)"/><rect class="cls-5" x="630.32406" y="71.12223" width="14.99984" height="13.39986" transform="translate(88.37249 409.90656) rotate(-38.14886)"/><rect class="cls-6" x="639.71083" y="80.30435" width="1.49998" height="2.49997" transform="translate(86.63031 412.33252) rotate(-38.14886)"/><rect class="cls-6" x="636.90333" y="76.82012" width="1.49998" height="2.49997" transform="translate(88.18288 409.85411) rotate(-38.14886)"/><rect class="cls-6" x="634.1185" y="73.23633" width="1.49998" height="2.49997" transform="translate(89.8018 407.36843) rotate(-38.14886)"/><rect class="cls-5" x="638.63109" y="81.73427" width="14.99984" height="13.39986" transform="translate(83.59167 417.30451) rotate(-38.14886)"/><rect class="cls-6" x="647.91373" y="90.84325" width="1.49998" height="2.49997" transform="translate(81.87243 419.65052) rotate(-38.14886)"/><rect class="cls-6" x="645.16814" y="87.43773" width="1.49998" height="2.49997" transform="translate(83.3896 417.22717) rotate(-38.14886)"/><rect class="cls-6" x="642.42653" y="83.84709" width="1.49998" height="2.49997" transform="translate(85.02198 414.76673) rotate(-38.14886)"/><rect class="cls-5" x="646.94012" y="92.34369" width="14.99984" height="13.39986" transform="translate(78.8129 424.70314) rotate(-38.14886)"/><rect class="cls-6" x="656.2292" y="101.44555" width="1.49998" height="2.49997" transform="translate(77.09943 427.05161) rotate(-38.14886)"/><rect class="cls-6" x="653.49307" y="97.90803" width="1.49998" height="2.49997" transform="translate(78.70016 424.6059) rotate(-38.14886)"/><rect class="cls-6" x="650.73451" y="94.45779" width="1.49998" height="2.49997" transform="translate(80.2422 422.16497) rotate(-38.14886)"/><rect class="cls-5" x="655.22073" y="102.82207" width="14.99984" height="13.39986" transform="translate(74.109 432.05621) rotate(-38.14886)"/><rect class="cls-6" x="664.60847" y="112.00292" width="1.49998" height="2.49997" transform="translate(72.36781 434.4825) rotate(-38.14886)"/><rect class="cls-6" x="661.8011" y="108.51877" width="1.49998" height="2.49997" transform="translate(73.92036 432.00419) rotate(-38.14886)"/><rect class="cls-6" x="659.01607" y="104.93498" width="1.49998" height="2.49997" transform="translate(75.53924 429.51839) rotate(-38.14886)"/><rect class="cls-5" x="663.52985" y="113.43161" width="14.99984" height="13.39986" transform="translate(69.33018 439.45493) rotate(-38.14886)"/><rect class="cls-6" x="672.81141" y="122.54187" width="1.49998" height="2.49997" transform="translate(67.60991 441.80054) rotate(-38.14886)"/><rect class="cls-6" x="670.06571" y="119.13636" width="1.49998" height="2.49997" transform="translate(69.12706 439.37712) rotate(-38.14886)"/><rect class="cls-6" x="667.3241" y="115.54572" width="1.49998" height="2.49997" transform="translate(70.75944 436.91668) rotate(-38.14886)"/><rect class="cls-5" x="671.83679" y="124.04354" width="14.99984" height="13.39985" transform="translate(64.54941 446.85279) rotate(-38.14886)"/><rect class="cls-6" x="681.11943" y="133.15259" width="1.49998" height="2.49997" transform="translate(62.83011 449.19882) rotate(-38.14886)"/><rect class="cls-6" x="678.39059" y="129.6066" width="1.49998" height="2.49997" transform="translate(64.43764 446.7558) rotate(-38.14886)"/><rect class="cls-6" x="675.64003" y="126.14787" width="1.49998" height="2.49997" transform="translate(65.98663 444.31801) rotate(-38.14886)"/><rect class="cls-5" x="680.11955" y="134.51945" width="14.99984" height="13.39985" transform="translate(59.8475 454.20667) rotate(-38.14886)"/><rect class="cls-6" x="689.50613" y="143.70157" width="1.49998" height="2.49997" transform="translate(58.10527 456.63251) rotate(-38.14886)"/><rect class="cls-6" x="686.69867" y="140.21742" width="1.49998" height="2.49997" transform="translate(59.6578 454.15414) rotate(-38.14886)"/><rect class="cls-6" x="684.01873" y="136.70542" width="1.49998" height="2.49997" transform="translate(61.25478 451.74859) rotate(-38.14886)"/><rect class="cls-5" x="688.42687" y="145.13087" width="14.99984" height="13.39985" transform="translate(55.06712 461.60467) rotate(-38.14886)"/><rect class="cls-6" x="697.70907" y="154.24039" width="1.49998" height="2.49997" transform="translate(53.34745 463.95053) rotate(-38.14886)"/><rect class="cls-6" x="694.90706" y="150.75091" width="1.49998" height="2.49997" transform="translate(54.90444 461.47438) rotate(-38.14886)"/><rect class="cls-6" x="692.22177" y="147.24427" width="1.49998" height="2.49997" transform="translate(56.49696 459.06667) rotate(-38.14886)"/><rect class="cls-5" x="696.73565" y="155.74087" width="14.99984" height="13.39985" transform="translate(50.28794 469.00327) rotate(-38.14886)"/><rect class="cls-6" x="706.0227" y="164.84564" width="1.49998" height="2.49997" transform="translate(48.57224 471.3511) rotate(-38.14886)"/><rect class="cls-6" x="703.21514" y="161.36152" width="1.49998" height="2.49997" transform="translate(50.12473 468.87267) rotate(-38.14886)"/><rect class="cls-6" x="700.5352" y="157.84952" width="1.49998" height="2.49997" transform="translate(51.7217 466.46713) rotate(-38.14886)"/><rect class="cls-5" x="705.04209" y="166.3531" width="14.99984" height="13.39985" transform="translate(45.50688 476.40089) rotate(-38.14886)"/><rect class="cls-6" x="714.33083" y="175.45648" width="1.49998" height="2.49997" transform="translate(43.79239 478.74947) rotate(-38.14886)"/><rect class="cls-6" x="711.60199" y="171.91049" width="1.49998" height="2.49997" transform="translate(45.39992 476.30646) rotate(-38.14886)"/><rect class="cls-6" x="708.92195" y="168.39849" width="1.49998" height="2.49997" transform="translate(46.99687 473.90084) rotate(-38.14886)"/><rect class="cls-5" x="713.32525" y="176.8288" width="14.99984" height="13.39985" transform="translate(40.80518 483.75497) rotate(-38.14886)"/><rect class="cls-6" x="722.71173" y="186.01083" width="1.49998" height="2.49997" transform="translate(39.06299 486.18073) rotate(-38.14886)"/><rect class="cls-6" x="719.861" y="182.53357" width="1.49998" height="2.49997" transform="translate(40.60202 483.6771) rotate(-38.14886)"/><rect class="cls-6" x="717.12229" y="178.94012" width="1.49998" height="2.49997" transform="translate(42.23676 481.21785) rotate(-38.14886)"/><rect class="cls-5" x="721.63208" y="187.44075" width="14.99984" height="13.39985" transform="translate(36.02438 491.15277) rotate(-38.14886)"/><rect class="cls-6" x="730.91472" y="196.54994" width="1.49998" height="2.49997" transform="translate(34.305 493.49884) rotate(-38.14886)"/><rect class="cls-6" x="728.16903" y="193.1443" width="1.49998" height="2.49997" transform="translate(35.82223 491.07539) rotate(-38.14886)"/><rect class="cls-6" x="725.42742" y="189.55366" width="1.49998" height="2.49997" transform="translate(37.45461 488.61495) rotate(-38.14886)"/><rect class="cls-5" x="729.94141" y="198.0502" width="14.99984" height="13.39985" transform="translate(31.24565 498.55159) rotate(-38.14886)"/><rect class="cls-6" x="739.2228" y="207.1605" width="1.49998" height="2.49997" transform="translate(29.52532 500.89711) rotate(-38.14886)"/><rect class="cls-6" x="736.49396" y="203.61463" width="1.49998" height="2.49997" transform="translate(31.13277 498.45412) rotate(-38.14886)"/><rect class="cls-6" x="733.81402" y="200.10262" width="1.49998" height="2.49997" transform="translate(32.72975 496.04857) rotate(-38.14886)"/><rect class="cls-5" x="738.22192" y="208.52836" width="14.99984" height="13.39985" transform="translate(26.54187 505.90456) rotate(-38.14886)"/><rect class="cls-6" x="747.60935" y="217.70951" width="1.49998" height="2.49997" transform="matrix(0.78641, -0.61771, 0.61771, 0.78641, 24.80042, 508.33072)"/><rect class="cls-6" x="744.83042" y="214.1271" width="1.49998" height="2.49997" transform="translate(26.41974 505.84898) rotate(-38.14886)"/><rect class="cls-6" x="742.01696" y="210.64145" width="1.49998" height="2.49997" transform="translate(27.97192 503.36659) rotate(-38.14886)"/><rect class="cls-5" x="746.53114" y="219.13805" width="14.99984" height="13.39985" transform="translate(21.76297 513.30336) rotate(-38.14886)"/><rect class="cls-6" x="755.81549" y="228.24553" width="1.49998" height="2.49997" transform="translate(20.04501 515.65011) rotate(-38.14886)"/><rect class="cls-6" x="753.14175" y="224.73515" width="1.49998" height="2.49997" transform="translate(21.64231 513.24874) rotate(-38.14886)"/><rect class="cls-6" x="750.32819" y="221.24941" width="1.49998" height="2.49997" transform="translate(23.19452 510.76626) rotate(-38.14886)"/><rect class="cls-5" x="754.83768" y="229.75001" width="14.99984" height="13.39985" transform="translate(16.9821 520.70099) rotate(-38.14886)"/><rect class="cls-6" x="764.12362" y="238.85639" width="1.49998" height="2.49997" transform="translate(15.26516 523.04849) rotate(-38.14886)"/><rect class="cls-6" x="761.44978" y="235.34582" width="1.49998" height="2.49997" transform="translate(16.86255 520.64702) rotate(-38.14886)"/><rect class="cls-6" x="758.71489" y="231.79848" width="1.49998" height="2.49997" transform="translate(18.46962 518.19997) rotate(-38.14886)"/><rect class="cls-5" x="763.12074" y="240.22595" width="14.99984" height="13.39985" transform="translate(12.28023 528.05506) rotate(-38.14886)"/><rect class="cls-6" x="772.51032" y="249.40532" width="1.49998" height="2.49997" transform="translate(10.54034 530.48217) rotate(-38.14886)"/><rect class="cls-6" x="769.73149" y="245.82295" width="1.49998" height="2.49997" transform="translate(12.15966 528.00051) rotate(-38.14886)"/><rect class="cls-6" x="766.91798" y="242.33737" width="1.49998" height="2.49997" transform="translate(13.71179 525.51809) rotate(-38.14886)"/><rect class="cls-5" x="771.42727" y="250.83797" width="14.99984" height="13.39985" transform="translate(7.49932 535.4527) rotate(-38.14886)"/><rect class="cls-6" x="780.70997" y="259.94712" width="1.49998" height="2.49997" transform="translate(5.77997 537.79879) rotate(-38.14886)"/><rect class="cls-6" x="778.03612" y="256.43648" width="1.49998" height="2.49999" transform="translate(7.37741 535.39729) rotate(-38.14886)"/><rect class="cls-6" x="775.22266" y="252.95086" width="1.49998" height="2.49997" transform="translate(8.92957 532.9149) rotate(-38.14886)"/><rect class="cls-5" x="779.73695" y="261.44744" width="14.99984" height="13.39985" transform="translate(2.72065 542.85174) rotate(-38.14886)"/><rect class="cls-6" x="789.01808" y="270.55771" width="1.49998" height="2.49997" transform="translate(1.00028 545.1971) rotate(-38.14886)"/><rect class="cls-6" x="786.34414" y="267.0472" width="1.49998" height="2.49997" transform="translate(2.59762 542.79557) rotate(-38.14886)"/><rect class="cls-6" x="783.6093" y="263.49983" width="1.49998" height="2.49997" transform="translate(4.20471 540.34855) rotate(-38.14886)"/><rect class="cls-5" x="788.01701" y="271.92589" width="14.99984" height="13.39985" transform="translate(-1.98341 550.2045) rotate(-38.14886)"/><rect class="cls-6" x="797.40464" y="281.10669" width="1.49998" height="2.49997" transform="translate(-3.7246 552.6307) rotate(-38.14886)"/><rect class="cls-6" x="794.73084" y="277.59615" width="1.49998" height="2.49997" transform="translate(-2.12721 550.22926) rotate(-38.14886)"/><rect class="cls-6" x="791.81224" y="274.03869" width="1.49998" height="2.49997" transform="translate(-0.55313 547.66657) rotate(-38.14886)"/><rect class="cls-5" x="796.32663" y="282.53526" width="14.99984" height="13.39985" transform="translate(-6.76202 557.60347) rotate(-38.14886)"/><rect class="cls-6" x="805.60758" y="291.64555" width="1.49998" height="2.49997" transform="translate(-8.48244 559.94872) rotate(-38.14886)"/><rect class="cls-6" x="802.93384" y="288.13504" width="1.49998" height="2.49997" transform="translate(-6.88507 557.54732) rotate(-38.14886)"/><rect class="cls-6" x="800.12028" y="284.64949" width="1.49998" height="2.49997" transform="translate(-5.33297 555.06488) rotate(-38.14886)"/><rect class="cls-5" x="804.63466" y="293.14606" width="14.99984" height="13.39985" transform="translate(-11.54186 565.00177) rotate(-38.14886)"/><rect class="cls-6" x="813.91561" y="302.25641" width="1.49998" height="2.49997" transform="translate(-13.26232 567.34704) rotate(-38.14886)"/><rect class="cls-6" x="811.24182" y="298.74574" width="1.49998" height="2.49997" transform="translate(-11.66485 564.94557) rotate(-38.14886)"/><rect class="cls-6" x="808.42831" y="295.26022" width="1.49998" height="2.49997" transform="translate(-10.11277 562.46317) rotate(-38.14886)"/><rect class="cls-5" x="812.91462" y="303.62444" width="14.99984" height="13.39985" transform="translate(-16.2459 572.35445) rotate(-38.14886)"/><rect class="cls-6" x="822.30231" y="312.80535" width="1.49998" height="2.49997" transform="translate(-17.98714 574.78072) rotate(-38.14886)"/><rect class="cls-6" x="819.62837" y="309.29472" width="1.49998" height="2.49997" transform="translate(-16.38973 572.37917) rotate(-38.14886)"/><rect class="cls-6" x="816.70992" y="305.73729" width="1.49998" height="2.49997" transform="translate(-14.81564 569.81658) rotate(-38.14886)"/><rect class="cls-5" x="821.22451" y="314.23373" width="14.99984" height="13.39985" transform="translate(-21.02441 579.75358) rotate(-38.14886)"/><rect class="cls-6" x="830.51735" y="323.33529" width="1.49998" height="2.49997" transform="translate(-22.7369 582.10431) rotate(-38.14886)"/><rect class="cls-6" x="827.83331" y="319.8323" width="1.49998" height="2.49997" transform="translate(-21.14636 579.69815) rotate(-38.14886)"/><rect class="cls-6" x="825.01785" y="316.34808" width="1.49998" height="2.49997" transform="translate(-19.59549 577.21483) rotate(-38.14886)"/><rect class="cls-5" x="829.53064" y="324.84575" width="14.99984" height="13.39985" transform="translate(-25.80541 587.15097) rotate(-38.14886)"/><rect class="cls-6" x="838.81519" y="333.95354" width="1.49998" height="2.49997" transform="translate(-27.52351 589.49791) rotate(-38.14886)"/><rect class="cls-6" x="836.14135" y="330.44303" width="1.49998" height="2.49997" transform="translate(-25.92616 587.09644) rotate(-38.14886)"/><rect class="cls-6" x="833.32779" y="326.95742" width="1.49998" height="2.49997" transform="translate(-24.37402 584.61399) rotate(-38.14886)"/><rect class="cls-5" x="837.814" y="335.32175" width="14.99984" height="13.39985" transform="translate(-30.50725 594.50524) rotate(-38.14886)"/><rect class="cls-6" x="847.20187" y="344.50246" width="1.49998" height="2.49997" transform="translate(-32.24833 596.93158) rotate(-38.14886)"/><rect class="cls-6" x="844.46186" y="341.04483" width="1.49998" height="2.49997" transform="translate(-30.69777 594.50054) rotate(-38.14886)"/><rect class="cls-6" x="841.71447" y="337.50634" width="1.49998" height="2.49997" transform="translate(-29.09883 592.04766) rotate(-38.14886)"/><rect class="cls-5" x="846.12033" y="345.93383" width="14.99984" height="13.39985" transform="translate(-35.28824 601.90277) rotate(-38.14886)"/><rect class="cls-6" x="855.40486" y="355.04147" width="1.49998" height="2.49997" transform="translate(-37.00626 604.24966) rotate(-38.14886)"/><rect class="cls-6" x="852.73107" y="351.53081" width="1.49998" height="2.49997" transform="translate(-35.40879 601.8482) rotate(-38.14886)"/><rect class="cls-6" x="849.91746" y="348.04523" width="1.49998" height="2.49997" transform="translate(-33.85669 599.36572) rotate(-38.14886)"/><rect class="cls-5" x="835.40278" y="360.45191" width="15" height="13.29999" transform="translate(192.42126 1015.89754) rotate(-68.4816)"/><rect class="cls-6" x="838.14289" y="364.05244" width="1.5" height="2.5" transform="translate(191.55624 1011.02773) rotate(-68.4816)"/><rect class="cls-6" x="842.28701" y="365.74456" width="1.5" height="2.5" transform="translate(192.60612 1015.95444) rotate(-68.4816)"/><rect class="cls-6" x="846.42624" y="367.32462" width="1.5" height="2.5" transform="translate(193.75715 1020.80566) rotate(-68.4816)"/><rect class="cls-5" x="823.07181" y="355.59414" width="15" height="13.29999" transform="translate(189.13248 1001.35011) rotate(-68.4816)"/><rect class="cls-6" x="825.80456" y="359.23527" width="1.5" height="2.5" transform="translate(188.22502 996.49914) rotate(-68.4816)"/><rect class="cls-6" x="829.93129" y="360.82955" width="1.5" height="2.5" transform="translate(189.35491 1001.34774) rotate(-68.4816)"/><rect class="cls-6" x="834.08798" y="362.50786" width="1.5" height="2.5" transform="translate(190.4256 1006.27741) rotate(-68.4816)"/><rect class="cls-5" x="810.70922" y="350.71777" width="15" height="13.29999" transform="translate(185.84097 986.76147) rotate(-68.4816)"/><rect class="cls-6" x="813.44914" y="354.3191" width="1.5" height="2.5" transform="translate(184.97508 981.89198) rotate(-68.4816)"/><rect class="cls-6" x="817.50712" y="355.937" width="1.5" height="2.5" transform="translate(186.03947 986.69157) rotate(-68.4816)"/><rect class="cls-6" x="821.68754" y="357.5149" width="1.5" height="2.5" transform="translate(187.21859 991.57974) rotate(-68.4816)"/><rect class="cls-5" x="798.28463" y="345.82729" width="15" height="13.29999" transform="translate(182.52333 972.10623) rotate(-68.4816)"/><rect class="cls-6" x="801.01777" y="349.46604" width="1.5" height="2.5" transform="translate(181.61834 967.25412) rotate(-68.4816)"/><rect class="cls-6" x="805.18559" y="351.05755" width="1.5" height="2.5" transform="translate(182.77682 972.13919) rotate(-68.4816)"/><rect class="cls-6" x="809.25648" y="352.66025" width="1.5" height="2.5" transform="translate(183.86352 976.94116) rotate(-68.4816)"/><rect class="cls-5" x="785.95364" y="340.96958" width="15" height="13.29999" transform="translate(179.23448 957.55881) rotate(-68.4816)"/><rect class="cls-6" x="788.60023" y="344.53606" width="1.5" height="2.5" transform="translate(178.34192 952.58042) rotate(-68.4816)"/><rect class="cls-6" x="792.76832" y="346.12728" width="1.5" height="2.5" transform="translate(179.50083 957.46555) rotate(-68.4816)"/><rect class="cls-6" x="796.83898" y="347.72997" width="1.5" height="2.5" transform="translate(180.5874 962.26732) rotate(-68.4816)"/><rect class="cls-5" x="773.54613" y="336.0155" width="15" height="13.29999" transform="translate(175.98682 942.87918) rotate(-68.4816)"/><rect class="cls-6" x="776.28578" y="339.61873" width="1.5" height="2.5" transform="translate(175.11899 938.01063) rotate(-68.4816)"/><rect class="cls-6" x="780.33732" y="341.27141" width="1.5" height="2.5" transform="translate(176.14695 942.82626) rotate(-68.4816)"/><rect class="cls-6" x="784.41468" y="342.83748" width="1.5" height="2.5" transform="translate(177.27182 947.61107) rotate(-68.4816)"/><rect class="cls-5" x="761.12164" y="331.12453" width="15" height="13.29999" transform="translate(172.6697 928.22371) rotate(-68.4816)"/><rect class="cls-6" x="763.85498" y="334.7623" width="1.5" height="2.5" transform="translate(171.76574 923.37117) rotate(-68.4816)"/><rect class="cls-6" x="767.91963" y="336.34253" width="1.5" height="2.5" transform="translate(172.86939 928.15312) rotate(-68.4816)"/><rect class="cls-6" x="772.13818" y="338.03471" width="1.5" height="2.5" transform="translate(173.96635 933.14912) rotate(-68.4816)"/><rect class="cls-5" x="748.69777" y="326.22966" width="15" height="13.29999" transform="translate(169.35661 913.56636) rotate(-68.4816)"/><rect class="cls-6" x="751.43729" y="329.83392" width="1.5" height="2.5" transform="translate(168.48773 908.69834) rotate(-68.4816)"/><rect class="cls-6" x="755.64993" y="331.50351" width="1.5" height="2.5" transform="translate(169.60196 913.67455) rotate(-68.4816)"/><rect class="cls-6" x="759.72102" y="333.10431" width="1.5" height="2.5" transform="translate(170.69055 918.47551) rotate(-68.4816)"/><rect class="cls-5" x="736.42758" y="321.39259" width="15" height="13.29999" transform="translate(166.08704 899.08857) rotate(-68.4816)"/><rect class="cls-6" x="739.00662" y="324.97628" width="1.5" height="2.5" transform="translate(165.1357 894.05823) rotate(-68.4816)"/><rect class="cls-6" x="743.21927" y="326.64587" width="1.5" height="2.5" transform="translate(166.24993 899.03445) rotate(-68.4816)"/><rect class="cls-6" x="747.29002" y="328.24874" width="1.5" height="2.5" transform="translate(167.33638 903.83641) rotate(-68.4816)"/><rect class="cls-5" x="724.00369" y="316.49832" width="15" height="13.29999" transform="translate(162.77337 884.43157) rotate(-68.4816)"/><rect class="cls-6" x="726.74322" y="320.10252" width="1.5" height="2.5" transform="translate(161.90457 879.56354) rotate(-68.4816)"/><rect class="cls-6" x="730.80138" y="321.71858" width="1.5" height="2.5" transform="translate(162.97077 884.36213) rotate(-68.4816)"/><rect class="cls-6" x="734.87213" y="323.32127" width="1.5" height="2.5" transform="translate(164.05739 889.16398) rotate(-68.4816)"/><rect class="cls-5" x="711.57948" y="311.60564" width="15" height="13.29999" transform="translate(159.45802 869.77529) rotate(-68.4816)"/><rect class="cls-6" x="714.31903" y="315.21003" width="1.5" height="2.5" transform="translate(158.58906 864.90739) rotate(-68.4816)"/><rect class="cls-6" x="718.46392" y="316.8967" width="1.5" height="2.5" transform="translate(159.64448 869.83138) rotate(-68.4816)"/><rect class="cls-6" x="722.54086" y="318.46558" width="1.5" height="2.5" transform="translate(160.76649 874.61757) rotate(-68.4816)"/><rect class="cls-5" x="699.24826" y="306.75069" width="15" height="13.29999" transform="translate(156.16645 855.2294) rotate(-68.4816)"/><rect class="cls-6" x="701.98157" y="310.38742" width="1.5" height="2.5" transform="translate(155.26345 850.37618) rotate(-68.4816)"/><rect class="cls-6" x="706.06262" y="311.909" width="1.5" height="2.5" transform="translate(156.43204 855.13624) rotate(-68.4816)"/><rect class="cls-6" x="710.12714" y="313.54494" width="1.5" height="2.5" transform="translate(157.48378 859.95334) rotate(-68.4816)"/><rect class="cls-5" x="686.7874" y="301.95016" width="15" height="13.29999" transform="translate(152.74216 840.59736) rotate(-68.4816)"/><rect class="cls-6" x="689.47076" y="305.42364" width="1.5" height="2.5" transform="translate(151.95941 835.5943) rotate(-68.4816)"/><rect class="cls-6" x="693.63829" y="307.01637" width="1.5" height="2.5" transform="translate(153.11657 840.47987) rotate(-68.4816)"/><rect class="cls-6" x="697.86368" y="308.6726" width="1.5" height="2.5" transform="translate(154.25129 845.45948) rotate(-68.4816)"/><rect class="cls-5" x="674.41623" y="296.90448" width="15" height="13.29999" transform="translate(149.60274 825.89354) rotate(-68.4816)"/><rect class="cls-6" x="677.15584" y="300.50794" width="1.5" height="2.5" transform="translate(148.73468 821.02511) rotate(-68.4816)"/><rect class="cls-6" x="681.20813" y="302.15604" width="1.5" height="2.5" transform="translate(149.76735 825.83854) rotate(-68.4816)"/><rect class="cls-6" x="685.43938" y="303.78011" width="1.5" height="2.5" transform="translate(150.93571 830.80323) rotate(-68.4816)"/><rect class="cls-5" x="656.22122" y="298.99991" width="13.60035" height="15.00041" transform="translate(-45.97314 480.63512) rotate(-38.65891)"/><rect class="cls-6" x="658.05615" y="308.44511" width="2.50007" height="1.50004" transform="translate(-48.47075 478.90483) rotate(-38.65891)"/><rect class="cls-6" x="661.6306" y="305.60379" width="2.50007" height="1.50004" transform="translate(-45.91259 480.51513) rotate(-38.65891)"/><rect class="cls-6" x="665.17398" y="302.9082" width="2.50007" height="1.50004" transform="translate(-43.45227 482.13795) rotate(-38.65891)"/><rect class="cls-5" x="645.55163" y="307.55104" width="13.60035" height="15.00041" transform="translate(-53.65282 475.84374) rotate(-38.65891)"/><rect class="cls-6" x="647.45879" y="316.98467" width="2.50007" height="1.50004" transform="translate(-56.12738 474.15604) rotate(-38.65891)"/><rect class="cls-6" x="651.02573" y="314.10134" width="2.50007" height="1.50004" transform="translate(-53.54462 475.75245) rotate(-38.65891)"/><rect class="cls-6" x="654.53663" y="311.30757" width="2.50007" height="1.50004" transform="translate(-51.03009 477.33347) rotate(-38.65891)"/><rect class="cls-5" x="634.96818" y="316.08153" width="13.60035" height="15.00041" transform="translate(-61.30073 471.10166) rotate(-38.65891)"/><rect class="cls-6" x="636.84622" y="325.52052" width="2.50007" height="1.50004" transform="translate(-63.78502 469.39694) rotate(-38.65891)"/><rect class="cls-6" x="640.36332" y="322.69468" width="2.50007" height="1.50004" transform="translate(-61.2491 470.9748) rotate(-38.65891)"/><rect class="cls-6" x="643.93161" y="319.80507" width="2.50007" height="1.50004" transform="translate(-58.66212 472.57068) rotate(-38.65891)"/><rect class="cls-5" x="624.23617" y="324.55456" width="13.60035" height="15.00041" transform="translate(-68.94531 466.25418) rotate(-38.65891)"/><rect class="cls-6" x="626.24255" y="334.01658" width="2.50007" height="1.50004" transform="translate(-71.41586 464.63467) rotate(-38.65891)"/><rect class="cls-6" x="629.72347" y="331.09653" width="2.50007" height="1.50004" transform="translate(-68.82901 466.1693) rotate(-38.65891)"/><rect class="cls-6" x="633.22007" y="328.31229" width="2.50007" height="1.50004" transform="translate(-66.32356 467.74348) rotate(-38.65891)"/><rect class="cls-5" x="613.75214" y="333.11375" width="13.60035" height="15.00041" transform="translate(-76.58936 461.58049) rotate(-38.65891)"/><rect class="cls-6" x="615.53096" y="342.52432" width="2.50007" height="1.50004" transform="translate(-79.07763 459.80755) rotate(-38.65891)"/><rect class="cls-6" x="619.04158" y="339.65487" width="2.50007" height="1.50004" transform="translate(-76.51588 461.37182) rotate(-38.65891)"/><rect class="cls-6" x="622.67862" y="336.88626" width="2.50007" height="1.50004" transform="translate(-73.98943 463.03716) rotate(-38.65891)"/><rect class="cls-5" x="603.02715" y="341.62921" width="13.60035" height="15.00041" transform="translate(-84.25889 456.74669) rotate(-38.65891)"/><rect class="cls-6" x="604.92704" y="351.01971" width="2.50007" height="1.50004" transform="translate(-86.70811 455.04499) rotate(-38.65891)"/><rect class="cls-6" x="608.39247" y="348.24082" width="2.50007" height="1.50004" transform="translate(-84.21283 456.60087) rotate(-38.65891)"/><rect class="cls-6" x="611.96076" y="345.35112" width="2.50007" height="1.50004" transform="translate(-81.6258 458.19673) rotate(-38.65891)"/><rect class="cls-5" x="592.43553" y="350.11789" width="13.60035" height="15.00041" transform="translate(-91.88248 451.99034) rotate(-38.65891)"/><rect class="cls-6" x="594.27807" y="359.60612" width="2.50007" height="1.50004" transform="translate(-94.4053 450.27423) rotate(-38.65891)"/><rect class="cls-6" x="597.83157" y="356.72982" width="2.50007" height="1.50004" transform="translate(-91.82988 451.86378) rotate(-38.65891)"/><rect class="cls-6" x="601.36326" y="353.88945" width="2.50007" height="1.50004" transform="translate(-89.28168 453.44758) rotate(-38.65891)"/><rect class="cls-5" x="581.84626" y="358.60525" width="13.60035" height="15.00041" transform="translate(-99.50472 447.23517) rotate(-38.65891)"/><rect class="cls-6" x="583.67415" y="368.10102" width="2.50007" height="1.50004" transform="translate(-102.03547 445.51156) rotate(-38.65891)"/><rect class="cls-6" x="587.2544" y="365.21089" width="2.50007" height="1.50004" transform="translate(-99.44554 447.11479) rotate(-38.65891)"/><rect class="cls-6" x="590.6454" y="362.35483" width="2.50007" height="1.50004" transform="translate(-96.91837 448.60727) rotate(-38.65891)"/><rect class="cls-6" x="591.63039" y="29.40993" width="1.50002" height="13.30013" transform="translate(15.03713 171.91051) rotate(-16.78595)"/><polygon class="cls-7" points="582.948 6.419 586.748 19.119 588.248 18.619 586.748 13.619 586.748 13.519 586.748 13.519 586.848 13.519 586.848 13.519 586.848 13.519 586.848 13.519 586.848 13.519 586.848 13.519 586.848 13.619 586.848 13.619 587.248 14.219 588.148 15.219 589.748 17.319 590.948 16.319 586.848 11.119 584.748 8.519 583.748 7.219 583.248 6.619 583.148 6.419 583.048 6.419 583.048 6.419 583.048 6.419 583.048 6.419 583.048 6.419 583.048 6.419 583.048 6.419 582.948 6.419"/><rect class="cls-6" x="600.0334" y="24.44511" width="1.49998" height="13.29985" transform="translate(109.32459 377.04583) rotate(-38.14886)"/><rect class="cls-6" x="862.12965" y="360.04147" width="1.49998" height="9.19991" transform="translate(-40.72773 610.18709) rotate(-38.14886)"/><polygon class="cls-7" points="876.748 380.119 871.048 372.919 869.948 373.819 872.148 376.719 872.148 376.719 872.148 376.819 872.148 376.819 872.148 376.819 872.048 376.819 872.048 376.819 872.048 376.719 871.548 376.619 870.748 376.219 869.048 375.619 868.448 377.019 872.748 378.619 874.948 379.519 875.948 379.919 876.548 380.119 876.648 380.219 876.648 380.219 876.748 380.219 876.748 380.219 876.748 380.219 876.748 380.219 876.748 380.219 876.748 380.219 876.748 380.119"/><rect class="cls-6" x="856.6648" y="368.01801" width="1.5" height="9.20001" transform="translate(196.47863 1032.89087) rotate(-68.4816)"/><rect class="cls-6" x="673.63656" y="300.10921" width="1.5" height="1.39999" transform="translate(147.38887 817.15039) rotate(-68.4816)"/><polygon class="cls-7" points="671.848 298.119 673.148 298.719 672.648 300.119 672.048 299.919 672.048 299.919 672.048 300.019 672.048 300.019 672.048 300.019 672.048 300.019 672.048 300.019 672.048 300.019 671.948 300.019 671.848 300.119 671.648 300.319 670.648 299.119 671.248 298.719 671.548 298.419 671.648 298.319 671.748 298.319 671.748 298.319 671.748 298.219 671.748 298.219 671.748 298.219 671.748 298.219 671.748 298.219 671.848 298.119"/><rect class="cls-6" x="668.87923" y="300.8812" width="1.40006" height="1.50004" transform="translate(-41.49466 483.66483) rotate(-38.65891)"/><polygon class="cls-8" points="521.448 4.219 586.948 4.819 586.948 369.219 881.048 369.219 881.048 433.519 522.048 433.519 521.448 4.219"/><polygon class="cls-8" points="372.148 31.619 475.948 31.619 475.948 2.519 342.548 2.519 342.548 196.719 476.948 196.719 476.948 167.519 372.148 167.519 372.148 111.719 449.748 111.719 449.748 82.619 372.148 82.619 372.148 31.619"/><polygon class="cls-8" points="371.548 271.519 476.448 271.519 476.448 242.919 342.548 242.919 342.548 433.519 371.548 433.519 371.548 345.319 447.848 345.319 447.848 316.719 371.548 316.719 371.548 271.519"/><path class="cls-8" d="M262.33775,107.72285c-16.7-15-42.7-42-108.9-45.7-25.2-1.4-88.8,5.7-89.2,46.9-.4,42.5,107.3,64.8,144.1,90.4.4.3-142.4.4-143.1,0-44.6-26.6-67-61.2-64.8-88.6,7.2-87,91.1-108.5,152.3-109.5,30.9-.5,91.9,8.5,152.9,63.2C305.83775,64.62285,262.53776,108.02285,262.33775,107.72285Z" transform="translate(0.21002 -0.70373)"/><path class="cls-8" d="M166.83775,243.62284c-.8-.4,105.2-.3,105.5,0,27.4,30.1,31,54.5,32.2,74.8,3.2,54.3-49.8,118.3-151.7,115.6-70.2-1.9-93.1-12.3-152.3-62.6-.3-.2,44.9-47.1,45.1-46.9,44,27.3,57.8,43.8,107.1,45.7,64.9,2.5,88.3-31.2,87.3-49.4C238.63775,294.72285,220.63775,267.72285,166.83775,243.62284Z" transform="translate(0.21002 -0.70373)"/></svg>