<svg id="Слой_1" data-name="Слой 1" xmlns="http://www.w3.org/2000/svg" viewBox="0 0 31.15382 49.99886"><defs><style>.cls-1{fill:none;stroke:#000;stroke-linecap:round;stroke-linejoin:round;}.cls-2{fill-rule:evenodd;}</style></defs><path class="cls-1" d="M25.781,30.66931c-.04809-.09388-.30675.88511,1.22857,3.599,1.02683,1.815,3.88982,3.58471,3.45635,7.72016-.00231.02246-.342,7.54809-9.36161,7.91357-.18939.00763-7.89377-.73311-8.31935-8.29243-.00677-.121-.35854-4.01277,3.79149-7.47615,1.11154-.92764,1.27349-1.546,1.6286-3.20139.00686-.03189,7.81069-1.77306,7.81069-1.77306" transform="translate(-6.61661 -0.40324)"/><path class="cls-1" d="M18.31277,28.13416l7.75959-1.43338" transform="translate(-6.61661 -0.40324)"/><path class="cls-1" d="M18.23792,25.44469l7.75951-1.43347" transform="translate(-6.61661 -0.40324)"/><path class="cls-1" d="M24.65261,22.96124A3.32477,3.32477,0,0,0,20.11284,22.86" transform="translate(-6.61661 -0.40324)"/><path class="cls-1" d="M23.25309,32.03385c-.66941,2.3425,1.135,6.52785,1.05693,6.50539-2.33556-.67164-2.33085-1.42695-2.33085-1.42695s-1.50334,1.49965-2.38194,1.07184c-.06859-.03335,1.77032-3.9633,1.53807-6.18749" transform="translate(-6.61661 -0.40324)"/><path class="cls-1" d="M22.5.90324a27.931,27.931,0,0,1-.32947,4.36092,4.74158,4.74158,0,0,1,2.61145.30723c1.47882.46546,3.84036,3.204,3.84036,3.204l-.61445.79.74614.54869-.6803.70216.74605.65835-.768.65835.78995.57065-.72411.70216.61446.61454-.74614.61445L28.05178,16.5l-11.43337-.15363-.13169-.85588-1.11916-.63641.96562-.74614-.812-.746.85588-.52675-.70224-.79.61445-.52675-.74614-.8119.65835-.48285-.61445-.6364.85579-.65835a6.55925,6.55925,0,0,1,2.809-3.24783,10.96465,10.96465,0,0,1,2.787-.395" transform="translate(-6.61661 -0.40324)"/><path class="cls-2" d="M9.99567,20.59868c-.57123-.52862-1.52983.03644-1.52983.03644a.94139.94139,0,0,0-.23671,1.34123c.21606.383.47413.1569,2.32666,1.26864,1.0027,1.23194-.17742,2.52285-1.09485.90093-.879-.83807-2.14508-.72039-2.55227-1.63763-.01195-.027-1.048-1.27461.8558-2.80249a3.04034,3.04034,0,0,1,3.08914-.13293C12.334,20.39068,11.79182,22.26106,9.99567,20.59868Z" transform="translate(-6.61661 -0.40324)"/><path class="cls-2" d="M10.72554,25.354h0a.80493.80493,0,0,0-.48881,1.028l.02935.08254a.80485.80485,0,0,0,1.028.48875h0a.80478.80478,0,0,0,.48875-1.0279l-.02935-.08254A.80481.80481,0,0,0,10.72554,25.354Z" transform="translate(-6.61661 -0.40324)"/><path class="cls-2" d="M34.39138,20.4496c.57122-.52862,1.52983.03644,1.52983.03644a.94139.94139,0,0,1,.23671,1.34123c-.21606.383-.47414.1569-2.32666,1.26864-1.0027,1.23194.17742,2.52285,1.09485.90093.879-.83807,2.14508-.72039,2.55226-1.63763.01195-.027,1.048-1.27461-.8558-2.80249a3.04034,3.04034,0,0,0-3.08914-.13293C32.05309,20.2416,32.59522,22.112,34.39138,20.4496Z" transform="translate(-6.61661 -0.40324)"/><path class="cls-2" d="M33.6615,25.205h0a.80492.80492,0,0,1,.48881,1.028l-.02935.08254a.80485.80485,0,0,1-1.028.48875h0a.80478.80478,0,0,1-.48875-1.0279l.02935-.08254A.80481.80481,0,0,1,33.6615,25.205Z" transform="translate(-6.61661 -0.40324)"/></svg>