<?xml version="1.0" encoding="utf-8"?>
<!-- Generator: Adobe Illustrator 24.3.0, SVG Export Plug-In . SVG Version: 6.00 Build 0)  -->
<svg version="1.1" id="Capa_1" xmlns="http://www.w3.org/2000/svg" xmlns:xlink="http://www.w3.org/1999/xlink" x="0px" y="0px"
	 viewBox="0 0 512 512" style="enable-background:new 0 0 512 512;" xml:space="preserve">
<path d="M256,0C114.6,0,0,114.6,0,256s114.6,256,256,256s256-114.6,256-256S397.4,0,256,0z M194.3,355.1c-5.2,3.9-11.6,6.2-18.5,6.2
	h-37c-17,0-30.8-13.8-30.8-30.8v-98.7c0-17,13.8-30.8,30.8-30.8h55.5V355.1z M388.8,271.9c1.9,3.8,2.9,8,2.9,12.3
	c0,10.7-6.1,20.1-15.2,24.7c2.8,5.6,3.7,12.1,2.2,18.5c-2.8,12.5-14.5,21.5-27.9,21.5H237.5c-8.1,0-20.8-2.6-30.8-7.3V209.5l1.5-0.8
	l35.5-76.9V90c0-1.9,0.9-3.7,2.3-4.8c0.4-0.3,9.5-7.5,22.4-7.5c14.3,0,37,22.6,37,49.3c0,16.9-6,37.9-9.8,49.3h76.2
	c16.6,0,30.7,12.3,32.2,28c0.8,8.8-2.1,17.2-7.9,23.5c5.1,5.1,8,12,8,19.4C404,257.9,397.9,267.3,388.8,271.9z"/>
</svg>
