<svg id="Capa_1" enable-background="new 0 0 511.902 511.902" height="512" viewBox="0 0 511.902 511.902" width="512" xmlns="http://www.w3.org/2000/svg"><g><g><path d="m255.433 33.221c-59.796 0-108.272 48.476-108.272 108.256 0 40.422 22.168 75.645 54.993 94.244l16.114-12.119h78.064l13.338 11.601c32.304-18.735 54.018-53.691 54.018-93.726.001-59.78-48.459-108.256-108.255-108.256z" fill="#ee878a"/><path d="m218.863 219.715c-20.625-19.704-33.491-47.456-33.491-78.237 0-53.259 38.497-97.553 89.176-106.581-6.205-1.106-12.592-1.675-19.115-1.675-59.796 0-108.272 48.476-108.272 108.256 0 40.42 22.149 75.66 54.974 94.258z" fill="#ec6e73"/><g><g id="XMLID_248_"><g><path d="m309.671 235.203c-15.939 9.254-34.462 14.546-54.238 14.546-19.384 0-37.562-5.089-53.298-14.013l.36-12.401c0-10.757 5.543-20.731 14.64-26.43l19.932-12.479v-54.018h37.5v54.018l19.932 12.479c9.113 5.699 14.64 15.673 14.64 26.43z" fill="#f9f7f7"/></g></g><path d="m244.873 157.729v6.647h-7.806v20.05l-19.932 12.479c-9.097 5.699-14.64 15.673-14.64 26.43l-.36 12.401c5.125 2.907 14.03 6.842 13.031 6.276l.418-12.88c0-10.757 5.543-20.731 14.64-26.43l17.561-10.995c1.475-.924 2.371-2.541 2.371-4.282 0-2.817 2.308-5.058 5.125-5.03.18.002.361.003.542.003 6.567 0 12.872-1.134 18.744-3.194v-21.475z" fill="#f2eae7"/><circle cx="255.822" cy="125.624" fill="#f9f7f7" r="47.379"/><path d="m225.501 125.625c0-23.253 16.785-42.59 38.879-46.609-2.768-.503-5.644-.771-8.558-.771-26.167 0-47.379 21.213-47.379 47.38s21.213 47.379 47.379 47.379c2.913 0 5.774-.264 8.542-.768-22.094-4.018-38.863-23.358-38.863-46.611z" fill="#f2eae7"/><path d="m399.671 266.364c-57.762 0-104.588 46.826-104.588 104.573 0 39.047 21.413 73.072 53.122 91.037l15.566-11.707h75.408l12.885 11.206c31.205-18.097 52.181-51.864 52.181-90.537-.001-57.745-46.813-104.572-104.574-104.572z" fill="#cfeffc"/><path d="m364.345 446.513c-19.923-19.034-32.351-45.842-32.351-75.575 0-51.447 37.187-94.234 86.142-102.955-5.994-1.068-12.163-1.618-18.464-1.618-57.762 0-104.588 46.826-104.588 104.573 0 39.045 21.396 73.086 53.103 91.051z" fill="#a9e4f9"/><g id="XMLID_250_"><g><path d="m452.063 461.475c-15.397 8.939-33.29 14.051-52.392 14.051-18.725 0-36.284-4.916-51.485-13.537l.348-11.979c0-10.391 5.354-20.025 14.142-25.531l19.254-12.054v-52.181h36.224v52.181l19.254 12.054c8.803 5.505 14.142 15.14 14.142 25.531z" fill="#f9f7f7"/></g></g><path d="m389.47 386.636v6.421h-7.541v19.368l-19.254 12.055c-8.787 5.505-14.142 15.14-14.142 25.531l-.348 11.979c4.95 2.808 13.552 6.609 12.588 6.062l.404-12.442c0-10.391 5.354-20.025 14.141-25.531l16.964-10.621c1.425-.892 2.29-2.455 2.29-4.136 0-2.721 2.229-4.886 4.95-4.859.174.002.349.003.524.003 6.344 0 12.434-1.095 18.106-3.085v-20.745z" fill="#f2eae7"/><circle cx="400.047" cy="355.624" fill="#f9f7f7" r="45.768"/><path d="m370.757 355.624c0-22.462 16.214-41.141 37.556-45.023-2.674-.486-5.452-.745-8.267-.745-25.277 0-45.768 20.491-45.768 45.768 0 25.276 20.491 45.767 45.768 45.767 2.814 0 5.577-.255 8.251-.742-21.341-3.881-37.54-22.563-37.54-45.025z" fill="#f2eae7"/><path d="m111.885 265.364c-57.762 0-104.588 46.826-104.588 104.573 0 39.047 21.413 73.072 53.122 91.037l15.566-11.707h75.408l12.885 11.206c31.205-18.097 52.181-51.864 52.181-90.537-.001-57.745-46.812-104.572-104.574-104.572z" fill="#9de5d1"/><path d="m76.559 445.513c-19.923-19.034-32.351-45.842-32.351-75.575 0-51.447 37.187-94.234 86.142-102.955-5.994-1.068-12.163-1.618-18.464-1.618-57.762 0-104.588 46.826-104.588 104.573 0 39.045 21.396 73.086 53.103 91.051z" fill="#82dec5"/><g id="XMLID_251_"><g><path d="m164.277 460.475c-15.397 8.939-33.29 14.051-52.392 14.051-18.725 0-36.284-4.916-51.485-13.537l.348-11.979c0-10.391 5.354-20.025 14.142-25.531l19.254-12.054v-52.181h36.224v52.181l19.254 12.054c8.803 5.505 14.142 15.14 14.142 25.531z" fill="#f9f7f7"/></g></g><path d="m101.684 385.636v6.421h-7.541v19.368l-19.253 12.054c-8.787 5.505-14.142 15.14-14.142 25.531l-.348 11.979c4.95 2.808 13.552 6.609 12.588 6.062l.404-12.442c0-10.391 5.354-20.025 14.141-25.531l16.964-10.621c1.425-.892 2.29-2.455 2.29-4.136 0-2.721 2.229-4.886 4.95-4.859.174.002.349.003.524.003 6.344 0 12.434-1.095 18.106-3.085v-20.745h-28.683z" fill="#f2eae7"/><circle cx="112.261" cy="354.624" fill="#f9f7f7" r="45.768"/><path d="m82.971 354.624c0-22.462 16.214-41.141 37.556-45.023-2.674-.486-5.452-.745-8.267-.745-25.277 0-45.768 20.491-45.768 45.768 0 25.276 20.491 45.767 45.768 45.767 2.814 0 5.577-.255 8.251-.742-21.341-3.881-37.54-22.563-37.54-45.025z" fill="#f2eae7"/></g></g><path d="m399.025 257.541c-43.657 0-81.603 24.915-100.371 61.271l-34.823-17.971v-46.758c58.578-4.06 104.998-53.006 104.998-112.598 0-26.903-9.627-52.963-27.108-73.377-2.694-3.146-7.429-3.514-10.575-.818-3.146 2.693-3.513 7.429-.818 10.574 15.155 17.699 23.502 40.293 23.502 63.621 0 31.508-14.969 59.582-38.165 77.496-.689-12.27-7.192-23.337-17.702-29.915l-15.88-9.938v-6.065c16.593-9.125 27.866-26.775 27.866-47.012 0-29.564-24.052-53.616-53.617-53.616s-53.617 24.052-53.617 53.616c0 20.237 11.273 37.887 27.866 47.012v6.065l-15.879 9.938c-10.673 6.678-17.203 17.988-17.721 30.483-23.618-17.886-38.906-46.221-38.906-78.064 0-53.97 43.907-97.878 97.877-97.878 18.375 0 36.29 5.127 51.806 14.827 3.512 2.197 8.139 1.129 10.335-2.384 2.196-3.512 1.129-8.14-2.384-10.335-17.902-11.192-38.566-17.108-59.757-17.108-62.241 0-112.877 50.637-112.877 112.878 0 59.848 46.821 108.958 105.756 112.646v46.709l-35.42 18.279c-18.713-36.524-56.752-61.579-100.533-61.579-62.241.001-112.878 50.638-112.878 112.878 0 10.634 1.483 21.17 4.408 31.317 1.147 3.979 5.301 6.27 9.284 5.13 3.98-1.147 6.277-5.304 5.129-9.284-2.535-8.796-3.821-17.935-3.821-27.163 0-53.97 43.908-97.877 97.877-97.877s97.877 43.907 97.877 97.877c0 31.508-14.969 59.582-38.165 77.496-.689-12.27-7.192-23.337-17.702-29.915l-15.88-9.938v-6.065c16.593-9.125 27.866-26.775 27.866-47.012 0-29.564-24.052-53.616-53.617-53.616-29.564 0-53.616 24.052-53.616 53.616 0 20.237 11.273 37.887 27.866 47.012v6.065l-15.879 9.938c-10.679 6.683-17.211 18.002-17.722 30.506-8.233-6.215-15.543-13.76-21.568-22.468-2.356-3.406-7.029-4.258-10.435-1.899-3.406 2.356-4.257 7.028-1.9 10.435 21.112 30.509 55.832 48.723 92.875 48.723 62.241 0 112.877-50.637 112.877-112.877 0-13.134-2.263-25.749-6.406-37.482l36.982-19.085 36.34 18.754c-4.218 11.828-6.523 24.556-6.523 37.814 0 62.24 50.637 112.877 112.877 112.877s112.877-50.637 112.877-112.877-50.635-112.879-112.876-112.879zm-324.384 97.442c0-21.293 17.323-38.616 38.616-38.616s38.617 17.323 38.617 38.616-17.324 38.617-38.617 38.617-38.616-17.324-38.616-38.617zm-5.786 102.828v-7.727c0-7.925 4.011-15.166 10.729-19.37l19.401-12.142c2.19-1.371 3.521-3.773 3.521-6.357v-4.699c3.474.71 7.07 1.084 10.75 1.084s7.276-.374 10.75-1.084v4.699c0 2.584 1.331 4.986 3.521 6.357l19.401 12.142c6.718 4.204 10.729 11.445 10.729 19.37v7.35c-13.427 6.938-28.654 10.861-44.781 10.861-15.511 0-30.549-3.694-44.021-10.484zm148.859-331.76c0-21.293 17.323-38.616 38.617-38.616s38.617 17.323 38.617 38.616-17.323 38.616-38.617 38.616-38.617-17.323-38.617-38.616zm-5.785 95.1c0-7.925 4.011-15.166 10.729-19.37l19.401-12.142c2.19-1.371 3.521-3.773 3.521-6.357v-4.699c3.474.71 7.07 1.084 10.75 1.084s7.276-.374 10.75-1.084v4.699c0 2.584 1.331 4.986 3.521 6.357l19.401 12.142c6.718 4.204 10.729 11.445 10.729 19.37v7.35c-13.427 6.938-28.654 10.861-44.781 10.861-15.824 0-30.781-3.779-44.022-10.476v-7.735zm142.315 236.283v-7.35c0-7.925 4.011-15.166 10.729-19.37l19.401-12.142c2.19-1.371 3.521-3.773 3.521-6.357v-4.699c3.474.71 7.07 1.084 10.75 1.084s7.276-.374 10.75-1.084v4.699c0 2.584 1.331 4.986 3.521 6.357l19.401 12.142c6.718 4.204 10.729 11.445 10.729 19.37v7.735c-13.241 6.696-28.198 10.476-44.022 10.476-16.126 0-31.353-3.923-44.78-10.861zm103.752-8.952c-.518-12.495-7.048-23.804-17.72-30.483l-15.88-9.938v-6.065c16.593-9.125 27.866-26.774 27.866-47.012 0-5.842-.949-11.614-2.82-17.157-1.325-3.925-5.581-6.027-9.505-4.708-3.924 1.325-6.032 5.581-4.707 9.505 1.349 3.995 2.032 8.153 2.032 12.36 0 21.293-17.323 38.616-38.616 38.616s-38.616-17.323-38.616-38.616 17.323-38.616 38.616-38.616c6.911 0 13.696 1.854 19.623 5.359 3.564 2.109 8.165.931 10.274-2.637 2.109-3.564.929-8.164-2.636-10.273-8.237-4.873-17.664-7.449-27.26-7.449-29.564 0-53.616 24.052-53.616 53.616 0 20.237 11.273 37.887 27.866 47.012v6.065l-15.879 9.938c-10.511 6.577-17.013 17.645-17.703 29.915-23.196-17.914-38.165-45.987-38.165-77.496 0-53.97 43.908-97.877 97.877-97.877s97.877 43.907 97.877 97.877c-.002 31.843-15.29 60.179-38.908 78.064z"/></g></svg>