<?xml version="1.0" encoding="utf-8"?>
<!-- Generator: Adobe Illustrator 24.3.0, SVG Export Plug-In . SVG Version: 6.00 Build 0)  -->
<svg version="1.1" id="Слой_1" xmlns:vectornator="http://vectornator.io"
	 xmlns="http://www.w3.org/2000/svg" xmlns:xlink="http://www.w3.org/1999/xlink" x="0px" y="0px" viewBox="0 0 100 100"
	 style="enable-background:new 0 0 100 100;" xml:space="preserve">
<style type="text/css">
	
		.st0{fill:#FFFFFF;stroke:#FFFFFF;stroke-width:0.6738;stroke-linecap:round;stroke-linejoin:round;stroke-miterlimit:1.6;stroke-dasharray:0,0.4851,1.337;}
	.st1{fill:#FFFFFF;stroke:#FFFFFF;stroke-width:0.6738;stroke-linecap:round;stroke-linejoin:round;stroke-miterlimit:1.6;}
</style>
<g id="Слой_1_1_" vectornator:layerName="РЎР»РѕР№ 1">
	<g>
		<path class="st0" d="M47.8,64.3h4.4l5.1-25.7"/>
		<path class="st0" d="M41.9,38.7l5.7,25.4"/>
	</g>
	<path class="st0" d="M37.2,63.7l7.7-6.3l12.6,0.1l5.2,6.1"/>
	<g>
		<path class="st1" d="M55.7,31.6l13.5-6.2L50,0L55.7,31.6z"/>
		<path class="st1" d="M43.5,31.7l-12.6-6.4L50,0.2L43.5,31.7z"/>
		<path class="st1" d="M41.9,39.1c-0.1-0.2-0.1-0.4-0.3-0.5c-0.5-0.4-1.3-0.3-1.5,0.4c-0.1,0.6,0.3,0.9,0.4,1.4
			c0.1,0.4,0.5,0.5,0.7,0.8c0.6,0.7,1.9,2.2,3,1.9c1.1-0.3,2-3.5,2.2-4.4c0.1-0.6,0.3-1.8-0.7-1.6c-0.7,0.1-0.8,1.2-0.6,1.7
			c0.4,1.3,1.2,2.4,2.3,3.2c0.3,0.2,0.8,0.6,1.2,0.4c1.6-0.6,2.1-1.9,2.5-3.5c0.1-0.6,0.2-1.8-0.6-2c-0.7-0.1-1.1,0.7-1.1,1.3
			c0,1,0.9,4,2.3,3.7c1.3-0.3,2.9-2.1,3.2-3.4c0.1-0.5,0.5-1.8-0.3-1.9c-0.8-0.2-1.2,0.6-1.3,1.3c-0.2,1.1-0.4,3.8,0.9,4.3
			c0.3,0.1,0.7,0,1-0.1c1.7-0.3,3.1-1.9,3.7-3.5c0.2-0.5,0.8-2-0.4-1.7c-0.6,0.2-1.2,1.2-1.3,1.8c-0.1,0.2-0.1,0.7-0.3,0.8"/>
		<path class="st1" d="M41.4,38.5c0.1,0.1,0.1,0.3,0.2,0.4c0.6,0.5,0.6,1,0.9,1.7"/>
		<path class="st1" d="M69,25.6l-6.4,18.9l0.3,19.3"/>
		<path class="st1" d="M43.3,70l12.8-0.2l-0.1-38H43.4L43.3,70z M43.4,70L37,63.6l-6.1-38.4 M56.2,69.7l6.6-5.9l6.2-38.3 M43.9,69.9
			l2.8,3.4l6.3,0l2.6-3.4 M43.9,70l-0.1,19.1l2.9,3.2l6.4,0.1l2.4-3.3l0.1-19.2 M46.7,92.3l0-22.4 M53.1,92.2L53,69.9 M43.5,69.7
			l12.3-37.9 M43.6,31.7l12.5,37.9 M56.3,69.3l6.3-24.9l-6.7-12.8 M43.6,31.7l-6.5,12.7l6,25.1 M43.8,86.1l2.8,3.1l6.3,0.1l2.5-3.1
			 M43.9,82.9l2.9,3.2l6.2,0.2l2.4-3.3 M43.9,79.6l2.8,3.2l6.3,0.1l2.4-3.2 M43.8,76.5l2.8,3.2l6.4,0.1l2.4-3.3 M43.9,73.4l2.7,3
			l6.4-0.1l2.5-3.1"/>
		<path class="st1" d="M31.1,25.7l6.1,18.8L37,63.3"/>
	</g>
</g>
</svg>
