<?xml version="1.0" encoding="UTF-8" standalone="no"?>
<svg
   xmlns:dc="http://purl.org/dc/elements/1.1/"
   xmlns:cc="http://creativecommons.org/ns#"
   xmlns:rdf="http://www.w3.org/1999/02/22-rdf-syntax-ns#"
   xmlns:svg="http://www.w3.org/2000/svg"
   xmlns="http://www.w3.org/2000/svg"
   xmlns:sodipodi="http://sodipodi.sourceforge.net/DTD/sodipodi-0.dtd"
   xmlns:inkscape="http://www.inkscape.org/namespaces/inkscape"
   id="Слой_1"
   data-name="Слой 1"
   viewBox="0 0 31.15382 49.99886"
   version="1.1"
   sodipodi:docname="Консультация.svg"
   inkscape:version="1.0.2-2 (e86c870879, 2021-01-15)">
  <metadata
     id="metadata29">
    <rdf:RDF>
      <cc:Work
         rdf:about="">
        <dc:format>image/svg+xml</dc:format>
        <dc:type
           rdf:resource="http://purl.org/dc/dcmitype/StillImage" />
      </cc:Work>
    </rdf:RDF>
  </metadata>
  <sodipodi:namedview
     pagecolor="#ffffff"
     bordercolor="#666666"
     borderopacity="1"
     objecttolerance="10"
     gridtolerance="10"
     guidetolerance="10"
     inkscape:pageopacity="0"
     inkscape:pageshadow="2"
     inkscape:window-width="1600"
     inkscape:window-height="1201"
     id="namedview27"
     showgrid="false"
     inkscape:zoom="16.600379"
     inkscape:cx="15.57691"
     inkscape:cy="24.878951"
     inkscape:window-x="-9"
     inkscape:window-y="51"
     inkscape:window-maximized="1"
     inkscape:current-layer="Слой_1" />
  <defs
     id="defs4">
    <style
       id="style2">.cls-1{fill:none;stroke:#000;stroke-linecap:round;stroke-linejoin:round;}.cls-2{fill-rule:evenodd;}</style>
  </defs>
  <path
     class="cls-1"
     d="M25.781,30.66931c-.04809-.09388-.30675.88511,1.22857,3.599,1.02683,1.815,3.88982,3.58471,3.45635,7.72016-.00231.02246-.342,7.54809-9.36161,7.91357-.18939.00763-7.89377-.73311-8.31935-8.29243-.00677-.121-.35854-4.01277,3.79149-7.47615,1.11154-.92764,1.27349-1.546,1.6286-3.20139.00686-.03189,7.81069-1.77306,7.81069-1.77306"
     transform="translate(-6.61661 -0.40324)"
     id="path6" />
  <path
     class="cls-1"
     d="M18.31277,28.13416l7.75959-1.43338"
     transform="translate(-6.61661 -0.40324)"
     id="path8" />
  <path
     class="cls-1"
     d="M18.23792,25.44469l7.75951-1.43347"
     transform="translate(-6.61661 -0.40324)"
     id="path10" />
  <path
     class="cls-1"
     d="M24.65261,22.96124A3.32477,3.32477,0,0,0,20.11284,22.86"
     transform="translate(-6.61661 -0.40324)"
     id="path12" />
  <path
     class="cls-1"
     d="M23.25309,32.03385c-.66941,2.3425,1.135,6.52785,1.05693,6.50539-2.33556-.67164-2.33085-1.42695-2.33085-1.42695s-1.50334,1.49965-2.38194,1.07184c-.06859-.03335,1.77032-3.9633,1.53807-6.18749"
     transform="translate(-6.61661 -0.40324)"
     id="path14" />
  <path
     class="cls-1"
     d="M22.5.90324a27.931,27.931,0,0,1-.32947,4.36092,4.74158,4.74158,0,0,1,2.61145.30723c1.47882.46546,3.84036,3.204,3.84036,3.204l-.61445.79.74614.54869-.6803.70216.74605.65835-.768.65835.78995.57065-.72411.70216.61446.61454-.74614.61445L28.05178,16.5l-11.43337-.15363-.13169-.85588-1.11916-.63641.96562-.74614-.812-.746.85588-.52675-.70224-.79.61445-.52675-.74614-.8119.65835-.48285-.61445-.6364.85579-.65835a6.55925,6.55925,0,0,1,2.809-3.24783,10.96465,10.96465,0,0,1,2.787-.395"
     transform="translate(-6.61661 -0.40324)"
     id="path16" />
  <path
     class="cls-2"
     d="M9.99567,20.59868c-.57123-.52862-1.52983.03644-1.52983.03644a.94139.94139,0,0,0-.23671,1.34123c.21606.383.47413.1569,2.32666,1.26864,1.0027,1.23194-.17742,2.52285-1.09485.90093-.879-.83807-2.14508-.72039-2.55227-1.63763-.01195-.027-1.048-1.27461.8558-2.80249a3.04034,3.04034,0,0,1,3.08914-.13293C12.334,20.39068,11.79182,22.26106,9.99567,20.59868Z"
     transform="translate(-6.61661 -0.40324)"
     id="path18" />
  <path
     class="cls-2"
     d="M10.72554,25.354h0a.80493.80493,0,0,0-.48881,1.028l.02935.08254a.80485.80485,0,0,0,1.028.48875h0a.80478.80478,0,0,0,.48875-1.0279l-.02935-.08254A.80481.80481,0,0,0,10.72554,25.354Z"
     transform="translate(-6.61661 -0.40324)"
     id="path20" />
  <path
     class="cls-2"
     d="M34.39138,20.4496c.57122-.52862,1.52983.03644,1.52983.03644a.94139.94139,0,0,1,.23671,1.34123c-.21606.383-.47414.1569-2.32666,1.26864-1.0027,1.23194.17742,2.52285,1.09485.90093.879-.83807,2.14508-.72039,2.55226-1.63763.01195-.027,1.048-1.27461-.8558-2.80249a3.04034,3.04034,0,0,0-3.08914-.13293C32.05309,20.2416,32.59522,22.112,34.39138,20.4496Z"
     transform="translate(-6.61661 -0.40324)"
     id="path22" />
  <path
     class="cls-2"
     d="M33.6615,25.205h0a.80492.80492,0,0,1,.48881,1.028l-.02935.08254a.80485.80485,0,0,1-1.028.48875h0a.80478.80478,0,0,1-.48875-1.0279l.02935-.08254A.80481.80481,0,0,1,33.6615,25.205Z"
     transform="translate(-6.61661 -0.40324)"
     id="path24" />
  <path
     style="fill:#ffffff;stroke-width:0.0602396"
     d="M 13.349581,49.784275 C 9.5297695,48.900852 6.9070899,46.578886 6.0296492,43.30364 5.446532,41.127024 5.6553728,39.118673 6.6770849,37.077467 7.2695002,35.893923 8.1559837,34.733773 9.1480332,33.843712 10.494056,32.636067 10.649162,32.406671 10.955863,31.169996 l 0.180267,-0.726866 0.355465,-0.230159 c 0.239409,-0.155014 0.516905,-0.267854 0.849939,-0.345615 2.27472,-0.531133 6.931752,-1.554749 7.073469,-1.554749 0.221065,0 0.438918,0.220057 0.438918,0.443358 0,0.269357 -0.223198,0.430968 -0.756756,0.547944 -0.262986,0.05766 -1.941978,0.434942 -3.731094,0.838413 l -3.252937,0.733583 -0.02199,-0.152157 c -0.01329,-0.09196 -0.100508,0.163826 -0.220442,0.646492 -0.330655,1.330697 -0.677401,1.904056 -1.67441,2.768702 -2.2940062,1.989454 -3.5571442,4.408804 -3.5470616,6.793859 0.0161,3.808443 2.4253014,6.760244 6.3674996,7.801584 1.095026,0.289253 1.386022,0.321836 2.183911,0.244535 2.535217,-0.245615 4.427027,-1.043779 5.861204,-2.472868 1.502613,-1.497283 2.346215,-3.560701 2.346215,-5.73875 0,-1.693177 -0.516919,-2.983801 -1.848251,-4.614651 -1.168668,-1.431591 -1.473887,-1.863038 -1.884997,-2.66457 -0.93621,-1.825312 -1.240242,-3.098128 -0.841438,-3.522636 0.179703,-0.191285 0.472227,-0.19644 0.641726,-0.01131 0.09693,0.105872 0.130268,0.241023 0.152299,0.617456 0.03453,0.589998 0.229595,1.189205 0.705969,2.168625 0.444899,0.91471 0.78317,1.42216 1.626325,2.439703 1.492413,1.801085 2.091404,2.980191 2.325752,4.578209 0.40516,2.762789 -0.870351,6.056917 -3.041383,7.854663 -1.4548,1.204662 -3.088699,1.897159 -5.214006,2.209855 -1.069805,0.157401 -1.884397,0.14574 -2.680472,-0.03837 z"
     id="path854" />
  <path
     style="fill:#ffffff;stroke-width:0.0602396"
     d="m 16.851189,38.342903 c -0.562649,-0.204281 -1.305467,-0.603346 -1.452228,-0.780182 -0.110061,-0.132615 -0.161286,-0.120255 -0.484289,0.116851 -0.157753,0.115801 -0.473124,0.298778 -0.700826,0.406617 -0.35873,0.169893 -0.477675,0.19607 -0.890901,0.19607 -0.327971,0 -0.484735,-0.02351 -0.501996,-0.0753 -0.01381,-0.04142 -0.06021,-0.0753 -0.103131,-0.0753 -0.04292,0 -0.112054,-0.08214 -0.153638,-0.18253 -0.06961,-0.168049 -0.04434,-0.267221 0.318448,-1.249972 0.870768,-2.358793 1.184207,-3.627986 1.187099,-4.806855 0.0011,-0.429771 0.01744,-0.501743 0.140615,-0.617455 0.190389,-0.178862 0.465274,-0.1703 0.644109,0.02006 0.128573,0.13686 0.141563,0.203318 0.138346,0.707815 -0.0046,0.72096 -0.09801,1.335951 -0.349912,2.303721 -0.193139,0.742003 -0.593329,1.972358 -0.867024,2.665602 -0.09506,0.240787 -0.105735,0.316258 -0.04472,0.316258 0.113242,0 0.731317,-0.4103 1.119292,-0.743025 0.381552,-0.327216 0.623601,-0.368199 0.836455,-0.141626 0.07204,0.07668 0.130979,0.166241 0.130979,0.199021 0,0.16015 0.96705,0.822973 1.062071,0.727952 0.01431,-0.01431 -0.08276,-0.398018 -0.215714,-0.852686 -0.635263,-2.172454 -0.798188,-3.831639 -0.483848,-4.92736 0.116854,-0.407327 0.607436,-0.516783 0.825383,-0.184154 0.08405,0.128272 0.08748,0.207883 0.02626,0.610057 -0.194933,1.280752 0.0602,2.894799 0.809267,5.119665 0.298102,0.885417 0.326066,1.010212 0.261368,1.166405 -0.147157,0.355268 -0.442103,0.374205 -1.251469,0.08035 z m -3.563383,-1.020922 c 0,-0.01461 -0.02711,-0.04332 -0.06024,-0.06379 -0.03313,-0.02048 -0.06024,-0.0085 -0.06024,0.02656 0,0.03509 0.02711,0.06379 0.06024,0.06379 0.03313,0 0.06024,-0.01195 0.06024,-0.02656 z"
     id="path856" />
  <path
     style="fill:#ffffff;stroke-width:0.0602396"
     d="m 11.38752,28.044267 c -0.189665,-0.189665 -0.193261,-0.451122 -0.0086,-0.624611 0.118949,-0.111746 0.709762,-0.236333 4.049117,-0.853854 2.150417,-0.39766 3.97297,-0.723018 4.05012,-0.723018 0.196302,0 0.435994,0.257661 0.435994,0.468678 0,0.381974 0.05422,0.36707 -4.198071,1.153967 -2.159847,0.399684 -3.98408,0.726699 -4.053851,0.726699 -0.06977,0 -0.193394,-0.06654 -0.274718,-0.147861 z"
     id="path858" />
  <path
     style="fill:#ffffff;stroke-width:0.0602396"
     d="m 11.431019,25.447144 c -0.304103,-0.127866 -0.344456,-0.55775 -0.07088,-0.755108 0.107283,-0.0774 1.284887,-0.317916 4.094284,-0.83624 4.245527,-0.783286 4.180719,-0.776616 4.331444,-0.445809 0.0976,0.214217 0.08555,0.297347 -0.06917,0.477227 -0.131203,0.152533 -0.307676,0.190966 -4.020993,0.875721 -2.136072,0.393903 -3.927362,0.726699 -3.980645,0.739546 -0.05328,0.01285 -0.1811,-0.01206 -0.284039,-0.05534 z"
     id="path860" />
  <path
     style="fill:#ffffff;stroke-width:0.0602396"
     d="m 17.648399,22.823607 c -0.651147,-0.522506 -1.167397,-0.715678 -1.912644,-0.715678 -0.607171,0 -1.141909,0.148253 -1.567484,0.434576 -0.551849,0.371279 -0.633535,0.404593 -0.826833,0.337209 -0.202144,-0.07047 -0.294591,-0.210353 -0.294591,-0.44576 0,-0.350155 0.91001,-0.947623 1.783663,-1.171066 1.09389,-0.279769 2.246395,-0.0326 3.193622,0.684915 0.446201,0.337992 0.555866,0.548731 0.421132,0.809276 -0.163896,0.316941 -0.454558,0.341208 -0.796865,0.06653 z"
     id="path862" />
  <path
     style="fill:#ffffff;stroke-width:0.0602396"
     d=""
     id="path864" />
  <path
     style="fill:#ffffff;stroke-width:0.0602396"
     d="m 27.125276,24.215373 c -0.321114,-0.252588 -0.344267,-0.683411 -0.06471,-1.204171 0.119795,-0.223158 0.236371,-0.323388 0.655833,-0.563872 0.280578,-0.16086 0.761043,-0.400326 1.067701,-0.532147 0.306658,-0.13182 0.607773,-0.284631 0.669146,-0.339579 0.309139,-0.276779 0.378909,-0.866743 0.144369,-1.220774 -0.199819,-0.301622 -0.70015,-0.536005 -1.144192,-0.536005 -0.396865,0 -0.486133,0.03694 -0.917682,0.37975 -0.764574,0.607355 -1.4169,0.6119 -1.4169,0.0099 0,-1.069262 1.753413,-1.829409 3.141665,-1.361986 0.72975,0.245706 1.324378,0.765222 1.664542,1.454281 0.238182,0.482479 0.231358,1.047569 -0.01814,1.502149 -0.276906,0.504516 -0.506579,0.687507 -1.254158,0.999247 -0.877186,0.365787 -1.192452,0.572178 -1.515699,0.992262 -0.247127,0.32116 -0.56088,0.542394 -0.769218,0.542394 -0.04851,0 -0.157655,-0.05464 -0.242554,-0.121421 z"
     id="path866" />
  <path
     style="fill:#ffffff;stroke-width:0.0602396"
     d="m 26.597237,26.383606 c -0.406318,-0.111554 -0.599052,-0.357434 -0.598653,-0.763729 4.46e-4,-0.452924 0.357416,-0.817915 0.794046,-0.811889 0.610869,0.0084 0.937665,0.663547 0.608815,1.220466 -0.159125,0.269486 -0.526042,0.431522 -0.804208,0.355152 z"
     id="path868" />
  <path
     style="fill:#ffffff;stroke-width:0.0602396"
     d="M 14.432358,16.474552 C 11.897777,16.435895 9.8183083,16.399969 9.8113159,16.394718 9.6797456,16.295895 9.5564321,16.087376 9.5264974,15.913099 9.4310062,15.35716 9.4476521,15.380377 8.9313405,15.082975 8.3762119,14.763214 8.2925617,14.679334 8.2898355,14.439704 8.2878557,14.265685 8.3972122,14.130488 8.7706358,13.84529 L 8.980675,13.684875 8.7146168,13.411102 c -0.2021407,-0.208001 -0.2660582,-0.32009 -0.2660582,-0.466574 0,-0.190233 0.066307,-0.269789 0.4521234,-0.542464 l 0.1381692,-0.09765 -0.2248668,-0.248901 c -0.2739858,-0.30327 -0.2842479,-0.477928 -0.044148,-0.751387 0.099395,-0.113204 0.1807188,-0.226324 0.1807188,-0.251377 0,-0.02505 -0.1084313,-0.163185 -0.2409584,-0.30696 C 8.4020202,10.412108 8.3872567,10.18779 8.6566765,9.9417136 L 8.8447146,9.7699669 8.6867963,9.5629258 C 8.5083444,9.3289631 8.480107,9.0330753 8.6226298,8.8905526 8.6741932,8.8389893 8.876742,8.6734064 9.072738,8.5225911 9.3685551,8.294965 9.4762131,8.1571507 9.7064523,7.711365 10.216767,6.723302 11.009196,5.8216729 11.920083,5.1926875 12.525729,4.774477 13.193405,4.5890332 14.539761,4.4650843 c 0.30756,-0.028315 0.571605,-0.063887 0.586767,-0.079049 0.06783,-0.067835 0.220078,-1.7555288 0.258995,-2.8711102 0.04147,-1.18855763 0.04708,-1.22946665 0.183991,-1.34033089 0.212779,-0.1722975 0.512837,-0.14942144 0.672944,0.0513044 0.128905,0.16160799 0.131132,0.19272202 0.09107,1.27239259 -0.02258,0.6087035 -0.08003,1.4761536 -0.127653,1.9276669 -0.04763,0.4515132 -0.08664,0.8412639 -0.0867,0.8661128 -6e-5,0.024849 0.163679,0.04518 0.363867,0.04518 0.463905,0 1.146047,0.1408148 1.73616,0.3583962 0.969198,0.3573547 1.682849,0.8889448 3.125647,2.3282563 1.030344,1.0278543 1.099372,1.1107241 1.099372,1.3198086 0,0.159959 -0.05437,0.2917415 -0.192129,0.4656748 l -0.192128,0.2425818 0.249937,0.2178837 c 0.362025,0.3155964 0.375988,0.4612756 0.08009,0.8356127 l -0.2428,0.307164 0.202897,0.178147 c 0.406544,0.35695 0.421586,0.59295 0.05813,0.912065 l -0.217789,0.191222 0.247373,0.211741 c 0.333082,0.285107 0.332964,0.473626 -5.43e-4,0.83542 l -0.247896,0.268936 0.187657,0.21373 c 0.311416,0.354684 0.252937,0.597074 -0.233558,0.96808 l -0.305292,0.232819 0.04077,0.913856 0.04077,0.913856 -0.156693,0.156693 -0.156677,0.156693 -1.282829,-0.01053 c -0.705557,-0.0058 -3.356577,-0.04215 -5.891158,-0.08081 z m 6.495559,-1.662478 -0.0198,-0.789981 0.252393,-0.219033 0.252392,-0.219033 -0.177093,-0.196729 c -0.252583,-0.280588 -0.238976,-0.517931 0.04645,-0.810234 l 0.223543,-0.228928 -0.144586,-0.101272 c -0.32587,-0.228249 -0.40014,-0.354489 -0.365125,-0.620623 0.0065,-0.0497 0.118266,-0.199902 0.248282,-0.333788 l 0.236394,-0.243429 -0.241145,-0.228508 c -0.311659,-0.295327 -0.319646,-0.492548 -0.0328,-0.810047 L 21.415155,9.7798606 21.176694,9.5671185 c -0.309103,-0.2757666 -0.315517,-0.4731766 -0.02762,-0.8502216 0.115961,-0.1518694 0.210839,-0.2993787 0.210839,-0.3277985 0,-0.082463 -1.556454,-1.6063495 -1.998181,-1.956371 -1.165479,-0.9235158 -2.21961,-1.2467552 -3.654417,-1.1205918 -2.884278,0.2536163 -3.031105,0.3018944 -4.083134,1.342577 -0.515745,0.510183 -0.934067,1.101958 -1.237833,1.751092 -0.122531,0.2618429 -0.27063,0.4629443 -0.4479117,0.6082133 L 9.6735826,9.2310454 9.8542252,9.4367859 c 0.2408708,0.2743371 0.2408458,0.5186496 -7.62e-5,0.7437051 -0.099395,0.09285 -0.1807188,0.190682 -0.1807188,0.217407 0,0.02673 0.100299,0.151307 0.2228865,0.276848 0.3033663,0.310675 0.3110993,0.594888 0.022734,0.835626 l -0.2001526,0.167095 0.2483443,0.294521 c 0.1490836,0.176805 0.2483446,0.355937 0.2483446,0.44818 0,0.180433 -0.193547,0.447937 -0.3630091,0.501723 -0.1732187,0.05498 -0.1465549,0.163695 0.091931,0.374834 0.1668871,0.14775 0.2108391,0.231589 0.2108391,0.402176 0,0.211755 -0.09872,0.342379 -0.4564735,0.603972 -0.1083974,0.07926 -0.1035864,0.08929 0.093263,0.1944 0.3619495,0.193268 0.5225505,0.390809 0.5688755,0.699726 l 0.04267,0.284576 1.005322,0.0085 c 0.552928,0.0047 2.157405,0.02655 3.565505,0.04856 1.408101,0.02201 3.328113,0.04528 4.266695,0.0517 l 1.706512,0.01168 z"
     id="path870" />
  <path
     style="fill:#ffffff;stroke-width:0.0602396"
     d="M 3.4245246,24.338033 C 3.3173698,24.272699 3.1334409,24.085261 3.0157936,23.921505 2.750238,23.551871 2.4162706,23.334693 1.5855614,22.991431 0.84571378,22.685714 0.57771267,22.502888 0.35708032,22.153384 -0.1597569,21.334661 -0.04053371,20.581978 0.73645055,19.758334 1.1559636,19.313628 1.5285078,19.084527 2.0552282,18.947333 c 1.3895964,-0.361944 2.9797536,0.388841 2.9797536,1.406876 0,0.186431 -0.034904,0.266442 -0.1587228,0.363838 C 4.788961,20.786717 4.6601994,20.842633 4.590121,20.84231 4.3852875,20.841364 3.8866584,20.575338 3.5293949,20.276397 3.3473916,20.124106 3.1081415,19.982556 2.9977279,19.961842 2.5242565,19.873019 1.8223077,20.11088 1.5883701,20.439415 c -0.1844265,0.259003 -0.2141507,0.783522 -0.060416,1.066119 0.063084,0.115961 0.2070537,0.256544 0.3199331,0.312406 0.1128794,0.05586 0.5817467,0.284185 1.0419275,0.507383 0.9549154,0.463155 1.1948965,0.665217 1.3298775,1.119748 0.1113885,0.375086 0.072411,0.649997 -0.1218839,0.859644 -0.171937,0.185523 -0.4047562,0.197045 -0.6732834,0.03332 z"
     id="path872" />
  <path
     style="fill:#ffffff;stroke-width:0.0602396"
     d="m 4.0218707,26.443348 c -0.2566504,-0.156475 -0.4532434,-0.580073 -0.400268,-0.862457 0.043181,-0.230175 0.2704946,-0.501935 0.4894876,-0.585196 0.5248471,-0.199546 1.0443707,0.19886 1.0443707,0.800896 0,0.596183 -0.6284437,0.954735 -1.1335903,0.646757 z"
     id="path874" />
</svg>
