<?xml version="1.0" encoding="utf-8"?>
<!-- Generator: Adobe Illustrator 24.3.0, SVG Export Plug-In . SVG Version: 6.00 Build 0)  -->
<svg version="1.1"
	 id="Слой_1" inkscape:version="1.0.2-2 (e86c870879, 2021-01-15)" sodipodi:docname="РљРѕРЅСЃСѓР»СЊС‚Р°С†РёСЏ.svg" xmlns:cc="http://creativecommons.org/ns#" xmlns:dc="http://purl.org/dc/elements/1.1/" xmlns:inkscape="http://www.inkscape.org/namespaces/inkscape" xmlns:rdf="http://www.w3.org/1999/02/22-rdf-syntax-ns#" xmlns:sodipodi="http://sodipodi.sourceforge.net/DTD/sodipodi-0.dtd" xmlns:svg="http://www.w3.org/2000/svg"
	 xmlns="http://www.w3.org/2000/svg" xmlns:xlink="http://www.w3.org/1999/xlink" x="0px" y="0px" viewBox="0 0 31.2 50"
	 style="enable-background:new 0 0 31.2 50;" xml:space="preserve">
<style type="text/css">
	.st0{fill:#FFFFFF;stroke:#FFFFFF;stroke-linecap:round;stroke-linejoin:round;}
	.st1{fill-rule:evenodd;clip-rule:evenodd;fill:#FFFFFF;stroke:#FFFFFF;stroke-miterlimit:10;}
	.st2{fill:#FFFFFF;stroke:#FFFFFF;stroke-miterlimit:10;}
</style>
<sodipodi:namedview  bordercolor="#666666" borderopacity="1" gridtolerance="10" guidetolerance="10" id="namedview27" inkscape:current-layer="Слой_1" inkscape:cx="15.57691" inkscape:cy="24.878951" inkscape:pageopacity="0" inkscape:pageshadow="2" inkscape:window-height="1201" inkscape:window-maximized="1" inkscape:window-width="1600" inkscape:window-x="-9" inkscape:window-y="51" inkscape:zoom="16.600379" objecttolerance="10" pagecolor="#ffffff" showgrid="false">
	</sodipodi:namedview>
<path id="path6" class="st0" d="M19.2,30.3c0-0.1-0.3,0.9,1.2,3.6c1,1.8,3.9,3.6,3.5,7.7c0,0-0.3,7.5-9.4,7.9
	c-0.2,0-7.9-0.7-8.3-8.3c0-0.1-0.4-4,3.8-7.5c1.1-0.9,1.3-1.5,1.6-3.2c0,0,7.8-1.8,7.8-1.8"/>
<path id="path8" class="st0" d="M11.7,27.7l7.8-1.4"/>
<path id="path10" class="st0" d="M11.6,25l7.8-1.4"/>
<path id="path12" class="st0" d="M18,22.6c-1.3-1.2-3.2-1.3-4.5-0.1"/>
<path id="path14" class="st0" d="M16.6,31.6c-0.7,2.3,1.1,6.5,1.1,6.5c-2.3-0.7-2.3-1.4-2.3-1.4s-1.5,1.5-2.4,1.1
	c-0.1,0,1.8-4,1.5-6.2"/>
<path id="path16" class="st0" d="M15.9,0.5c0,1.5-0.1,2.9-0.3,4.4c0.9-0.1,1.8,0,2.6,0.3C19.6,5.6,22,8.4,22,8.4l-0.6,0.8l0.7,0.5
	l-0.7,0.7l0.7,0.7l-0.8,0.7l0.8,0.6L21.5,13l0.6,0.6l-0.7,0.6l0.1,1.9L10,15.9l-0.1-0.9l-1.1-0.6l1-0.7L8.9,13l0.9-0.5l-0.7-0.8
	l0.6-0.5l-0.7-0.8l0.7-0.5L9,9.2l0.9-0.7c0.5-1.4,1.5-2.5,2.8-3.2c0.9-0.3,1.8-0.4,2.8-0.4"/>
<path id="path18" class="st1" d="M3.4,20.2c-0.6-0.5-1.5,0-1.5,0c-0.4,0.3-0.5,0.9-0.3,1.3c0,0,0,0,0,0c0.2,0.4,0.5,0.2,2.3,1.3
	c1,1.2-0.2,2.5-1.1,0.9C2,22.9,0.7,23,0.3,22.1c0,0-1-1.3,0.9-2.8c0.9-0.6,2.1-0.7,3.1-0.1C5.7,20,5.2,21.9,3.4,20.2z"/>
<path id="path20" class="st1" d="M4.1,25L4.1,25c-0.4,0.1-0.6,0.6-0.5,1l0,0.1c0.1,0.4,0.6,0.6,1,0.5c0,0,0,0,0,0l0,0
	c0.4-0.1,0.6-0.6,0.5-1c0,0,0,0,0,0l0-0.1C5,25,4.5,24.8,4.1,25C4.1,25,4.1,25,4.1,25z"/>
<path id="path22" class="st1" d="M27.8,20c0.6-0.5,1.5,0,1.5,0c0.4,0.3,0.5,0.9,0.3,1.3c0,0,0,0,0,0c-0.2,0.4-0.5,0.2-2.3,1.3
	c-1,1.2,0.2,2.5,1.1,0.9c0.9-0.8,2.1-0.7,2.6-1.6c0,0,1-1.3-0.9-2.8c-0.9-0.6-2.1-0.7-3.1-0.1C25.4,19.8,26,21.7,27.8,20z"/>
<path id="path24" class="st1" d="M27,24.8L27,24.8c0.4,0.1,0.6,0.6,0.5,1l0,0.1c-0.1,0.4-0.6,0.6-1,0.5c0,0,0,0,0,0l0,0
	c-0.4-0.1-0.6-0.6-0.5-1c0,0,0,0,0,0l0-0.1C26.2,24.9,26.6,24.7,27,24.8C27,24.8,27,24.8,27,24.8z"/>
<path id="path854" class="st2" d="M13.3,49.8c-3.8-0.9-6.4-3.2-7.3-6.5c-0.6-2.2-0.4-4.2,0.6-6.2c0.6-1.2,1.5-2.3,2.5-3.2
	c1.3-1.2,1.5-1.4,1.8-2.7l0.2-0.7l0.4-0.2c0.2-0.2,0.5-0.3,0.8-0.3c2.3-0.5,6.9-1.6,7.1-1.6c0.2,0,0.4,0.2,0.4,0.4
	c0,0.3-0.2,0.4-0.8,0.5c-0.3,0.1-1.9,0.4-3.7,0.8l-3.3,0.7l0-0.2c0-0.1-0.1,0.2-0.2,0.6c-0.3,1.3-0.7,1.9-1.7,2.8
	c-2.3,2-3.6,4.4-3.5,6.8c0,3.8,2.4,6.8,6.4,7.8c1.1,0.3,1.4,0.3,2.2,0.2c2.5-0.2,4.4-1,5.9-2.5c1.5-1.5,2.3-3.6,2.3-5.7
	c0-1.7-0.5-3-1.8-4.6c-1.2-1.4-1.5-1.9-1.9-2.7c-0.9-1.8-1.2-3.1-0.8-3.5c0.2-0.2,0.5-0.2,0.6,0c0.1,0.1,0.1,0.2,0.2,0.6
	c0,0.6,0.2,1.2,0.7,2.2c0.4,0.9,0.8,1.4,1.6,2.4c1.5,1.8,2.1,3,2.3,4.6c0.4,2.8-0.9,6.1-3,7.9c-1.5,1.2-3.1,1.9-5.2,2.2
	C15,50,14.1,50,13.3,49.8z"/>
<path id="path856" class="st2" d="M16.9,38.3c-0.6-0.2-1.3-0.6-1.5-0.8c-0.1-0.1-0.2-0.1-0.5,0.1c-0.2,0.1-0.5,0.3-0.7,0.4
	c-0.4,0.2-0.5,0.2-0.9,0.2c-0.3,0-0.5,0-0.5-0.1c0,0-0.1-0.1-0.1-0.1c0,0-0.1-0.1-0.2-0.2c-0.1-0.2,0-0.3,0.3-1.2
	c0.9-2.4,1.2-3.6,1.2-4.8c0-0.4,0-0.5,0.1-0.6c0.2-0.2,0.5-0.2,0.6,0C15,31.4,15,31.5,15,32c0,0.7-0.1,1.3-0.3,2.3
	c-0.2,0.7-0.6,2-0.9,2.7c-0.1,0.2-0.1,0.3,0,0.3c0.1,0,0.7-0.4,1.1-0.7c0.4-0.3,0.6-0.4,0.8-0.1c0.1,0.1,0.1,0.2,0.1,0.2
	c0,0.2,1,0.8,1.1,0.7c0,0-0.1-0.4-0.2-0.9c-0.6-2.2-0.8-3.8-0.5-4.9c0.1-0.4,0.6-0.5,0.8-0.2c0.1,0.1,0.1,0.2,0,0.6
	c-0.2,1.3,0.1,2.9,0.8,5.1c0.3,0.9,0.3,1,0.3,1.2C18,38.6,17.7,38.6,16.9,38.3z M13.3,37.3C13.3,37.3,13.3,37.3,13.3,37.3
	c-0.1-0.1-0.1-0.1-0.1,0C13.2,37.3,13.2,37.3,13.3,37.3C13.3,37.3,13.3,37.3,13.3,37.3z"/>
<path id="path858" class="st2" d="M11.4,28c-0.2-0.2-0.2-0.5,0-0.6c0.1-0.1,0.7-0.2,4-0.9c2.2-0.4,4-0.7,4.1-0.7
	c0.2,0,0.4,0.3,0.4,0.5c0,0.4,0.1,0.4-4.2,1.2c-2.2,0.4-4,0.7-4.1,0.7C11.6,28.2,11.5,28.1,11.4,28z"/>
<path id="path860" class="st2" d="M11.4,25.4c-0.3-0.1-0.3-0.6-0.1-0.8c0.1-0.1,1.3-0.3,4.1-0.8c4.2-0.8,4.2-0.8,4.3-0.4
	c0.1,0.2,0.1,0.3-0.1,0.5c-0.1,0.2-0.3,0.2-4,0.9c-2.1,0.4-3.9,0.7-4,0.7C11.7,25.5,11.5,25.5,11.4,25.4z"/>
<path id="path862" class="st2" d="M17.6,22.8c-0.7-0.5-1.2-0.7-1.9-0.7c-0.6,0-1.1,0.1-1.6,0.4c-0.6,0.4-0.6,0.4-0.8,0.3
	c-0.2-0.1-0.3-0.2-0.3-0.4c0-0.4,0.9-0.9,1.8-1.2c1.1-0.3,2.2,0,3.2,0.7c0.4,0.3,0.6,0.5,0.4,0.8C18.3,23.1,18,23.1,17.6,22.8z"/>
<path id="path864" class="st2" d="M0,0"/>
<path id="path866" class="st2" d="M27.1,24.2c-0.3-0.3-0.3-0.7-0.1-1.2c0.1-0.2,0.2-0.3,0.7-0.6c0.3-0.2,0.8-0.4,1.1-0.5
	s0.6-0.3,0.7-0.3c0.3-0.3,0.4-0.9,0.1-1.2c-0.2-0.3-0.7-0.5-1.1-0.5c-0.4,0-0.5,0-0.9,0.4c-0.8,0.6-1.4,0.6-1.4,0
	c0-1.1,1.8-1.8,3.1-1.4c0.7,0.2,1.3,0.8,1.7,1.5c0.2,0.5,0.2,1,0,1.5c-0.3,0.5-0.5,0.7-1.3,1c-0.9,0.4-1.2,0.6-1.5,1
	c-0.2,0.3-0.6,0.5-0.8,0.5C27.3,24.3,27.2,24.3,27.1,24.2L27.1,24.2z"/>
<path id="path868" class="st2" d="M26.6,26.4C26.2,26.3,26,26,26,25.6c0-0.5,0.4-0.8,0.8-0.8c0.6,0,0.9,0.7,0.6,1.2
	C27.2,26.3,26.9,26.5,26.6,26.4z"/>
<path id="path870" class="st2" d="M14.4,16.5c-2.5,0-4.6-0.1-4.6-0.1c-0.1-0.1-0.3-0.3-0.3-0.5c-0.1-0.6-0.1-0.5-0.6-0.8
	c-0.6-0.3-0.6-0.4-0.6-0.6c0-0.2,0.1-0.3,0.5-0.6L9,13.7l-0.3-0.3c-0.2-0.2-0.3-0.3-0.3-0.5c0-0.2,0.1-0.3,0.5-0.5L9,12.3l-0.2-0.2
	c-0.3-0.3-0.3-0.5,0-0.8C8.9,11.2,9,11.1,9,11.1c0,0-0.1-0.2-0.2-0.3c-0.3-0.3-0.3-0.6-0.1-0.8l0.2-0.2L8.7,9.6
	C8.5,9.3,8.5,9,8.6,8.9c0.1-0.1,0.3-0.2,0.5-0.4c0.3-0.2,0.4-0.4,0.6-0.8c0.5-1,1.3-1.9,2.2-2.5c0.6-0.4,1.3-0.6,2.6-0.7
	c0.3,0,0.6-0.1,0.6-0.1c0.1-0.1,0.2-1.8,0.3-2.9c0-1.2,0-1.2,0.2-1.3C15.8,0,16.1,0,16.2,0.2c0.1,0.2,0.1,0.2,0.1,1.3
	c0,0.6-0.1,1.5-0.1,1.9c0,0.5-0.1,0.8-0.1,0.9c0,0,0.2,0,0.4,0c0.5,0,1.1,0.1,1.7,0.4c1,0.4,1.7,0.9,3.1,2.3c1,1,1.1,1.1,1.1,1.3
	c0,0.2-0.1,0.3-0.2,0.5l-0.2,0.2l0.2,0.2c0.4,0.3,0.4,0.5,0.1,0.8l-0.2,0.3l0.2,0.2c0.4,0.4,0.4,0.6,0.1,0.9l-0.2,0.2l0.2,0.2
	c0.3,0.3,0.3,0.5,0,0.8L22.2,13l0.2,0.2c0.3,0.4,0.3,0.6-0.2,1l-0.3,0.2l0,0.9l0,0.9l-0.2,0.2l-0.2,0.2l-1.3,0
	C19.6,16.5,17,16.5,14.4,16.5z M20.9,14.8l0-0.8l0.3-0.2l0.3-0.2l-0.2-0.2c-0.3-0.3-0.2-0.5,0-0.8l0.2-0.2l-0.1-0.1
	C21,12,21,11.9,21,11.6c0,0,0.1-0.2,0.2-0.3l0.2-0.2l-0.2-0.2c-0.3-0.3-0.3-0.5,0-0.8l0.2-0.2l-0.2-0.2c-0.3-0.3-0.3-0.5,0-0.9
	c0.1-0.2,0.2-0.3,0.2-0.3c0-0.1-1.6-1.6-2-2c-1.2-0.9-2.2-1.2-3.7-1.1c-2.9,0.3-3,0.3-4.1,1.3c-0.5,0.5-0.9,1.1-1.2,1.8
	C10.3,8.7,10.1,8.9,9.9,9L9.7,9.2l0.2,0.2c0.2,0.3,0.2,0.5,0,0.7c-0.1,0.1-0.2,0.2-0.2,0.2c0,0,0.1,0.2,0.2,0.3
	c0.3,0.3,0.3,0.6,0,0.8l-0.2,0.2L10,12c0.1,0.2,0.2,0.4,0.2,0.4c0,0.2-0.2,0.4-0.4,0.5c-0.2,0.1-0.1,0.2,0.1,0.4
	c0.2,0.1,0.2,0.2,0.2,0.4c0,0.2-0.1,0.3-0.5,0.6c-0.1,0.1-0.1,0.1,0.1,0.2c0.4,0.2,0.5,0.4,0.6,0.7l0,0.3l1,0c0.6,0,2.2,0,3.6,0
	s3.3,0,4.3,0.1l1.7,0L20.9,14.8z"/>
<path id="path872" class="st2" d="M3.4,24.3c-0.1-0.1-0.3-0.3-0.4-0.4c-0.3-0.4-0.6-0.6-1.4-0.9c-0.7-0.3-1-0.5-1.2-0.8
	c-0.5-0.8-0.4-1.6,0.4-2.4c0.4-0.4,0.8-0.7,1.3-0.8c1.4-0.4,3,0.4,3,1.4c0,0.2,0,0.3-0.2,0.4c-0.1,0.1-0.2,0.1-0.3,0.1
	c-0.2,0-0.7-0.3-1.1-0.6C3.3,20.1,3.1,20,3,20c-0.5-0.1-1.2,0.1-1.4,0.5c-0.2,0.3-0.2,0.8-0.1,1.1c0.1,0.1,0.2,0.3,0.3,0.3
	c0.1,0.1,0.6,0.3,1,0.5c1,0.5,1.2,0.7,1.3,1.1c0.1,0.4,0.1,0.6-0.1,0.9C3.9,24.5,3.7,24.5,3.4,24.3z"/>
<path id="path874" class="st2" d="M4,26.4c-0.3-0.2-0.5-0.6-0.4-0.9c0-0.2,0.3-0.5,0.5-0.6c0.5-0.2,1,0.2,1,0.8
	C5.2,26.4,4.5,26.8,4,26.4z"/>
</svg>
