<svg id="Capa_1" enable-background="new 0 0 512.955 512.955" height="512" viewBox="0 0 512.955 512.955" width="512" xmlns="http://www.w3.org/2000/svg"><g><g><g><path d="m467.053 39.137h-421.58c-21.09 0-38.19 17.1-38.19 38.19v34.05l33.777 49.689h438.758l25.425-49.689v-34.05c0-21.09-17.1-38.19-38.19-38.19z" fill="#ee878a"/><path d="m52.346 39.137h-6.873c-21.09 0-38.19 17.1-38.19 38.19v34.05l33.777 49.689h11.286z" fill="#ec6e73"/><g id="XMLID_269_"><g><path d="m505.243 111.377v304.11c0 21.09-17.1 38.19-38.19 38.19h-421.58c-21.09 0-38.19-17.1-38.19-38.19v-304.11z" fill="#f9f7f7"/></g></g><path d="m443.624 194.637h-374.293c-6.435 0-11.652-5.217-11.652-11.652v-26.702c0-6.435 5.217-11.652 11.652-11.652h374.293c6.435 0 11.652 5.217 11.652 11.652v26.702c0 6.435-5.217 11.652-11.652 11.652z" fill="#a9e4f9"/><g fill="#ded4cf"><path d="m269.593 266.077h-26.231c-4.376 0-7.923-3.547-7.923-7.923v-19.539c0-4.375 3.547-7.923 7.923-7.923h26.231c4.375 0 7.923 3.547 7.923 7.923v19.539c0 4.376-3.548 7.923-7.923 7.923z"/><path d="m195.245 266.077h-26.231c-4.376 0-7.923-3.547-7.923-7.923v-19.539c0-4.375 3.547-7.923 7.923-7.923h26.231c4.375 0 7.923 3.547 7.923 7.923v19.539c0 4.376-3.547 7.923-7.923 7.923z"/><path d="m120.898 266.077h-26.231c-4.376 0-7.923-3.547-7.923-7.923v-19.539c0-4.375 3.547-7.923 7.923-7.923h26.231c4.376 0 7.923 3.547 7.923 7.923v19.539c-.001 4.376-3.548 7.923-7.923 7.923z"/><path d="m317.71 266.077h26.231c4.375 0 7.923-3.547 7.923-7.923v-19.539c0-4.375-3.547-7.923-7.923-7.923h-26.231c-4.376 0-7.923 3.547-7.923 7.923v19.539c0 4.376 3.547 7.923 7.923 7.923z"/><path d="m392.057 266.077h26.231c4.376 0 7.923-3.547 7.923-7.923v-19.539c0-4.375-3.547-7.923-7.923-7.923h-26.231c-4.375 0-7.923 3.547-7.923 7.923v19.539c.001 4.376 3.548 7.923 7.923 7.923z"/><path d="m269.593 334.522h-26.231c-4.376 0-7.923-3.547-7.923-7.923v-19.539c0-4.375 3.547-7.923 7.923-7.923h26.231c4.375 0 7.923 3.547 7.923 7.923v19.539c0 4.376-3.548 7.923-7.923 7.923z"/><path d="m195.245 334.522h-26.231c-4.376 0-7.923-3.547-7.923-7.923v-19.539c0-4.375 3.547-7.923 7.923-7.923h26.231c4.375 0 7.923 3.547 7.923 7.923v19.539c0 4.376-3.547 7.923-7.923 7.923z"/><path d="m120.898 334.522h-26.231c-4.376 0-7.923-3.547-7.923-7.923v-19.539c0-4.375 3.547-7.923 7.923-7.923h26.231c4.376 0 7.923 3.547 7.923 7.923v19.539c-.001 4.376-3.548 7.923-7.923 7.923z"/><path d="m269.593 402.966h-26.231c-4.376 0-7.923-3.547-7.923-7.923v-19.539c0-4.376 3.547-7.923 7.923-7.923h26.231c4.375 0 7.923 3.547 7.923 7.923v19.539c0 4.376-3.548 7.923-7.923 7.923z"/><path d="m195.245 402.966h-26.231c-4.376 0-7.923-3.547-7.923-7.923v-19.539c0-4.376 3.547-7.923 7.923-7.923h26.231c4.375 0 7.923 3.547 7.923 7.923v19.539c0 4.376-3.547 7.923-7.923 7.923z"/><path d="m120.898 402.966h-26.231c-4.376 0-7.923-3.547-7.923-7.923v-19.539c0-4.376 3.547-7.923 7.923-7.923h26.231c4.376 0 7.923 3.547 7.923 7.923v19.539c-.001 4.376-3.548 7.923-7.923 7.923z"/></g><path d="m410.244 296.825c-62.782 0-113.859 51.077-113.859 113.858v.04c.001 2.194-1.749 3.984-3.943 3.984h-182.768c-31.661 0-57.328-25.667-57.328-57.328v-246.002h-45.063v304.11c0 21.092 17.098 38.19 38.19 38.19h421.58c18.583 0 34.059-13.275 37.479-30.857.036-.184.066-.37.099-.555.096-.533.181-1.069.254-1.61.031-.229.061-.458.088-.689.062-.527.11-1.058.15-1.591.016-.217.037-.433.049-.651.043-.74.07-1.485.07-2.236v-.78-66.711c-20.397-30.809-55.362-51.172-94.998-51.172z" fill="#f2eae7"/><circle cx="410.244" cy="410.684" fill="#ee878a" r="93.859"/><path d="m351.863 410.684c0-45.771 32.773-83.893 76.127-92.187-5.745-1.099-11.681-1.671-17.746-1.671-51.837 0-93.859 42.022-93.859 93.859s42.022 93.859 93.859 93.859c6.065 0 12.007-.577 17.752-1.676-43.354-8.296-76.133-46.413-76.133-92.184z" fill="#ec6e73"/><g><path d="m399.212 456.464c-3.707 0-7.417-1.365-10.316-4.112l-24.849-23.549c-1.709-1.62-1.781-4.318-.162-6.027l14.772-15.587c1.62-1.709 4.318-1.781 6.027-.162l11.084 10.505c1.69 1.602 4.352 1.551 5.98-.114l46.094-47.133c1.646-1.683 4.345-1.713 6.028-.067l15.353 15.014c1.683 1.646 1.714 4.345.067 6.029l-59.352 60.69c-2.936 3.002-6.829 4.513-10.726 4.513z" fill="#f3f1f3"/></g></g><path d="m89.162 85.576c16.268 0 29.503-13.235 29.503-29.503v-16.936h-59.006v16.936c0 16.268 13.235 29.503 29.503 29.503z" fill="#ec6e73"/><path d="m89.162 70.577c-8.01 0-14.503-6.493-14.503-14.503v-33.863c0-8.01 6.493-14.503 14.503-14.503 8.01 0 14.503 6.493 14.503 14.503v33.862c.001 8.01-6.493 14.504-14.503 14.504z" fill="#f2eae7"/><path d="m155.961 85.576c16.268 0 29.503-13.235 29.503-29.503v-16.936h-59.007v16.936c0 16.268 13.236 29.503 29.504 29.503z" fill="#ec6e73"/><path d="m155.961 70.577c-8.01 0-14.503-6.493-14.503-14.503v-33.863c0-8.01 6.493-14.503 14.503-14.503 8.01 0 14.503 6.493 14.503 14.503v33.862c0 8.01-6.493 14.504-14.503 14.504z" fill="#f2eae7"/><path d="m222.759 85.576c16.268 0 29.503-13.235 29.503-29.503v-16.936h-59.007v16.936c.001 16.268 13.236 29.503 29.504 29.503z" fill="#ec6e73"/><path d="m222.759 70.577c-8.01 0-14.503-6.493-14.503-14.503v-33.863c0-8.01 6.493-14.503 14.503-14.503 8.01 0 14.503 6.493 14.503 14.503v33.862c0 8.01-6.493 14.504-14.503 14.504z" fill="#f2eae7"/><path d="m289.557 85.576c16.269 0 29.504-13.235 29.504-29.503v-16.936h-59.007v16.936c0 16.268 13.235 29.503 29.503 29.503z" fill="#ec6e73"/><path d="m289.557 70.577c-8.01 0-14.503-6.493-14.503-14.503v-33.863c0-8.01 6.493-14.503 14.503-14.503 8.01 0 14.503 6.493 14.503 14.503v33.862c.001 8.01-6.493 14.504-14.503 14.504z" fill="#f2eae7"/><path d="m356.356 85.576c16.268 0 29.503-13.235 29.503-29.503v-16.936h-59.006v16.936c0 16.268 13.235 29.503 29.503 29.503z" fill="#ec6e73"/><path d="m356.356 70.577c-8.01 0-14.503-6.493-14.503-14.503v-33.863c0-8.01 6.493-14.503 14.503-14.503 8.01 0 14.503 6.493 14.503 14.503v33.862c0 8.01-6.493 14.504-14.503 14.504z" fill="#f2eae7"/><path d="m423.154 85.576c16.269 0 29.504-13.235 29.504-29.503v-16.936h-59.007v16.936c0 16.268 13.235 29.503 29.503 29.503z" fill="#ec6e73"/><path d="m423.154 70.577c-8.01 0-14.503-6.493-14.503-14.503v-33.863c0-8.01 6.493-14.503 14.503-14.503 8.01 0 14.503 6.493 14.503 14.503v33.862c0 8.01-6.493 14.504-14.503 14.504z" fill="#f2eae7"/></g><g><path d="m294.351 446.876h-248.664c-16.921 0-30.687-13.766-30.687-30.686v-50.533c0-4.143-3.358-7.5-7.5-7.5s-7.5 3.357-7.5 7.5v50.533c0 25.191 20.495 45.686 45.687 45.686h248.664c4.143 0 7.5-3.357 7.5-7.5s-3.358-7.5-7.5-7.5z"/><path d="m467.269 32.347h-21.896v-9.432c0-12.133-9.871-22.003-22.004-22.003s-22.003 9.87-22.003 22.003v9.432h-22.792v-9.432c0-12.133-9.87-22.003-22.003-22.003s-22.003 9.87-22.003 22.003v9.432h-22.792v-9.432c0-12.133-9.871-22.003-22.004-22.003s-22.003 9.87-22.003 22.003v9.432h-22.792v-9.432c0-12.133-9.871-22.003-22.003-22.003s-22.003 9.87-22.003 22.003v9.432h-22.792v-9.432c0-12.133-9.871-22.003-22.003-22.003s-22.003 9.87-22.003 22.003v9.432h-22.793v-9.432c0-12.133-9.871-22.003-22.003-22.003s-22.003 9.87-22.003 22.003v9.432h-21.687c-25.192 0-45.687 20.494-45.687 45.685v255.578c0 4.143 3.358 7.5 7.5 7.5s7.5-3.357 7.5-7.5v-214.032h482.955v211.976c0 4.143 3.357 7.5 7.5 7.5s7.5-3.357 7.5-7.5v-253.522c0-25.191-20.495-45.685-45.686-45.685zm-50.904-9.432c0-3.861 3.142-7.003 7.003-7.003 3.862 0 7.004 3.142 7.004 7.003v33.862c0 3.861-3.142 7.003-7.004 7.003-3.861 0-7.003-3.142-7.003-7.003zm-66.798 0c0-3.861 3.142-7.003 7.003-7.003s7.003 3.142 7.003 7.003v33.862c0 3.861-3.142 7.003-7.003 7.003s-7.003-3.142-7.003-7.003zm-66.798 0c0-3.861 3.142-7.003 7.003-7.003 3.862 0 7.004 3.142 7.004 7.003v33.862c0 3.861-3.142 7.003-7.004 7.003-3.861 0-7.003-3.142-7.003-7.003zm-66.799 0c0-3.861 3.142-7.003 7.003-7.003s7.003 3.142 7.003 7.003v33.862c0 3.861-3.142 7.003-7.003 7.003s-7.003-3.142-7.003-7.003zm-66.798 0c0-3.861 3.142-7.003 7.003-7.003s7.003 3.142 7.003 7.003v33.862c0 3.861-3.142 7.003-7.003 7.003s-7.003-3.142-7.003-7.003zm-66.798 0c0-3.861 3.142-7.003 7.003-7.003s7.003 3.142 7.003 7.003v33.862c0 3.861-3.142 7.003-7.003 7.003s-7.003-3.142-7.003-7.003zm-67.374 81.663v-26.546c0-16.92 13.766-30.686 30.687-30.686h21.687v9.431c0 12.133 9.871 22.003 22.003 22.003s22.003-9.87 22.003-22.003v-9.431h22.792v9.431c0 12.133 9.871 22.003 22.003 22.003s22.003-9.87 22.003-22.003v-9.431h22.792v9.431c0 12.133 9.871 22.003 22.003 22.003s22.003-9.87 22.003-22.003v-9.431h22.792v9.431c0 12.133 9.87 22.003 22.003 22.003s22.004-9.87 22.004-22.003v-9.431h22.792v9.431c0 12.133 9.87 22.003 22.003 22.003s22.003-9.87 22.003-22.003v-9.431h22.792v9.431c0 12.133 9.87 22.003 22.003 22.003s22.004-9.87 22.004-22.003v-9.431h21.896c16.921 0 30.687 13.766 30.687 30.686v26.546z"/><path d="m462.776 182.985v-26.702c0-10.561-8.592-19.151-19.152-19.151h-374.293c-10.561 0-19.152 8.591-19.152 19.151v26.702c0 10.561 8.591 19.151 19.152 19.151h49.718c4.142 0 7.5-3.357 7.5-7.5s-3.358-7.5-7.5-7.5h-49.718c-2.29 0-4.152-1.862-4.152-4.151v-26.702c0-2.289 1.862-4.151 4.152-4.151h374.293c2.29 0 4.152 1.862 4.152 4.151v26.702c0 2.289-1.862 4.151-4.152 4.151h-292.529c-4.142 0-7.5 3.357-7.5 7.5s3.358 7.5 7.5 7.5h292.529c10.561.001 19.152-8.59 19.152-19.151z"/><path d="m285.016 238.615c0-8.504-6.919-15.423-15.423-15.423h-26.23c-8.504 0-15.423 6.919-15.423 15.423v19.539c0 8.504 6.918 15.423 15.423 15.423h26.23c8.504 0 15.423-6.919 15.423-15.423zm-15 19.539c0 .233-.189.423-.423.423h-26.23c-.233 0-.423-.189-.423-.423v-19.539c0-.233.189-.423.423-.423h26.23c.233 0 .423.189.423.423z"/><path d="m210.668 238.615c0-8.504-6.918-15.423-15.422-15.423h-26.231c-8.504 0-15.423 6.919-15.423 15.423v19.539c0 8.504 6.918 15.423 15.423 15.423h26.231c8.504 0 15.422-6.919 15.422-15.423zm-15 19.539c0 .233-.189.423-.422.423h-26.231c-.233 0-.423-.189-.423-.423v-19.539c0-.233.189-.423.423-.423h26.231c.233 0 .422.189.422.423z"/><path d="m136.32 238.615c0-8.504-6.918-15.423-15.422-15.423h-26.231c-8.504 0-15.422 6.919-15.422 15.423v19.539c0 8.504 6.918 15.423 15.422 15.423h26.231c8.504 0 15.422-6.919 15.422-15.423zm-15 19.539c0 .233-.189.423-.422.423h-26.231c-.233 0-.422-.189-.422-.423v-19.539c0-.233.189-.423.422-.423h26.231c.233 0 .422.189.422.423z"/><path d="m343.94 273.577c8.504 0 15.423-6.919 15.423-15.423v-19.539c0-8.504-6.919-15.423-15.423-15.423h-26.23c-8.504 0-15.423 6.919-15.423 15.423v19.539c0 8.504 6.919 15.423 15.423 15.423zm-26.653-15.423v-19.539c0-.233.189-.423.423-.423h26.23c.233 0 .423.189.423.423v19.539c0 .233-.189.423-.423.423h-26.23c-.233 0-.423-.189-.423-.423z"/><path d="m392.058 223.192c-8.504 0-15.423 6.919-15.423 15.423v19.539c0 8.504 6.919 15.423 15.423 15.423h26.23c8.504 0 15.423-6.919 15.423-15.423v-19.539c0-8.504-6.919-15.423-15.423-15.423zm26.653 15.423v19.539c0 .233-.189.423-.423.423h-26.23c-.233 0-.423-.189-.423-.423v-19.539c0-.233.189-.423.423-.423h26.23c.233 0 .423.19.423.423z"/><path d="m285.016 307.06c0-8.504-6.919-15.422-15.423-15.422h-26.23c-8.504 0-15.423 6.918-15.423 15.422v19.54c0 8.504 6.918 15.422 15.423 15.422h26.23c8.504 0 15.423-6.918 15.423-15.422zm-15 19.54c0 .232-.189.422-.423.422h-26.23c-.233 0-.423-.189-.423-.422v-19.54c0-.232.189-.422.423-.422h26.23c.233 0 .423.189.423.422z"/><path d="m210.668 307.06c0-8.504-6.918-15.422-15.422-15.422h-26.231c-8.504 0-15.423 6.918-15.423 15.422v19.54c0 8.504 6.918 15.422 15.423 15.422h26.231c8.504 0 15.422-6.918 15.422-15.422zm-15 19.54c0 .232-.189.422-.422.422h-26.231c-.233 0-.423-.189-.423-.422v-19.54c0-.232.189-.422.423-.422h26.231c.233 0 .422.189.422.422z"/><path d="m136.32 307.06c0-8.504-6.918-15.422-15.422-15.422h-26.231c-8.504 0-15.422 6.918-15.422 15.422v19.54c0 8.504 6.918 15.422 15.422 15.422h26.231c8.504 0 15.422-6.918 15.422-15.422zm-15 19.54c0 .232-.189.422-.422.422h-26.231c-.233 0-.422-.189-.422-.422v-19.54c0-.232.189-.422.422-.422h26.231c.233 0 .422.189.422.422z"/><path d="m269.593 360.082h-26.23c-8.504 0-15.423 6.919-15.423 15.423v19.539c0 8.504 6.918 15.423 15.423 15.423h26.23c8.504 0 15.423-6.919 15.423-15.423v-19.539c0-8.504-6.919-15.423-15.423-15.423zm.423 34.962c0 .233-.189.423-.423.423h-26.23c-.233 0-.423-.189-.423-.423v-19.539c0-.233.189-.423.423-.423h26.23c.233 0 .423.189.423.423z"/><path d="m195.246 360.082h-26.231c-8.504 0-15.423 6.919-15.423 15.423v19.539c0 8.504 6.918 15.423 15.423 15.423h26.231c8.504 0 15.422-6.919 15.422-15.423v-19.539c0-8.504-6.918-15.423-15.422-15.423zm.422 34.962c0 .233-.189.423-.422.423h-26.231c-.233 0-.423-.189-.423-.423v-19.539c0-.233.189-.423.423-.423h26.231c.233 0 .422.189.422.423z"/><path d="m120.898 360.082h-26.231c-8.504 0-15.422 6.919-15.422 15.423v19.539c0 8.504 6.918 15.423 15.422 15.423h26.231c8.504 0 15.422-6.919 15.422-15.423v-19.539c0-8.504-6.918-15.423-15.422-15.423zm.422 34.962c0 .233-.189.423-.422.423h-26.231c-.233 0-.422-.189-.422-.423v-19.539c0-.233.189-.423.422-.423h26.231c.233 0 .422.189.422.423z"/><path d="m410.244 309.325c-55.89 0-101.359 45.469-101.359 101.358s45.47 101.359 101.359 101.359 101.359-45.47 101.359-101.359-45.469-101.358-101.359-101.358zm0 187.718c-47.619 0-86.359-38.74-86.359-86.359 0-47.618 38.74-86.358 86.359-86.358s86.359 38.74 86.359 86.358c.001 47.619-38.74 86.359-86.359 86.359z"/><path d="m442.479 365.042-43.865 44.854-8.771-8.312c-2.28-2.161-5.28-3.301-8.407-3.222-3.141.084-6.061 1.386-8.224 3.667l-14.771 15.587c-4.461 4.706-4.262 12.165.445 16.631l24.851 23.549c4.198 3.978 9.693 6.168 15.475 6.168 6.105 0 11.818-2.403 16.089-6.769l12.781-13.069c2.896-2.962 2.843-7.71-.118-10.606-2.963-2.897-7.711-2.842-10.606.118l-12.78 13.069c-1.424 1.455-3.329 2.257-5.365 2.257-1.927 0-3.758-.73-5.157-2.057l-22.5-21.321 10.318-10.889 8.734 8.278c4.635 4.392 12.038 4.251 16.503-.312l43.83-44.819 10.725 10.487-21.958 22.453c-2.896 2.962-2.843 7.71.118 10.606 2.962 2.896 7.71 2.841 10.606-.118l24.223-24.77c2.196-2.246 3.386-5.213 3.351-8.354-.034-3.144-1.291-6.084-3.538-8.279l-15.354-15.015c-4.638-4.533-12.1-4.447-16.635.188z"/></g></g></svg>