<svg id="Слой_1" data-name="Слой 1" xmlns="http://www.w3.org/2000/svg" viewBox="0 0 35.51208 49.77434"><defs><style>.cls-1{fill:none;stroke:#000;stroke-linecap:round;stroke-linejoin:round;}.cls-2{fill-rule:evenodd;}</style></defs><path class="cls-1" d="M28.98105,23.48477c-.044-.08611-.28113.81115,1.126,3.29826.94094,1.66323,3.56476,3.28514,3.16752,7.075-.0022.02051-.31341,6.91724-8.57929,7.25218-.17356.00707-7.2341-.67177-7.62412-7.59946-.00629-.11086-.32866-3.67743,3.47457-6.85131,1.01865-.85012,1.16706-1.41684,1.49258-2.93393.0062-.02915,7.158-1.62489,7.158-1.62489" transform="translate(-7.20678 0.27434)"/><path class="cls-1" d="M22.137,21.16148,29.2481,19.8478" transform="translate(-7.20678 0.27434)"/><path class="cls-1" d="M22.06837,18.69668l7.11114-1.31359" transform="translate(-7.20678 0.27434)"/><path class="cls-1" d="M27.94707,16.42077A3.0471,3.0471,0,0,0,23.7866,16.328" transform="translate(-7.20678 0.27434)"/><path class="cls-1" d="M26.66451,24.73528c-.61355,2.14667,1.0401,5.98234.9686,5.96175-2.14038-.61551-2.13614-1.3077-2.13614-1.3077s-1.37763,1.37433-2.18281.98227c-.06285-.03064,1.6223-3.63218,1.40953-5.6705" transform="translate(-7.20678 0.27434)"/><path class="cls-2" d="M19.42514,20.20184l-.03174-6.6054L25.5,10.22574l6.26495,3.46239.01257,6.56226-1.92675-1.65907.01862-3.88289-4.26552-2.45466L21.303,14.76265l-.02428,3.82349Z" transform="translate(-7.20678 0.27434)"/><path class="cls-2" d="M23.23387,10.54026l.0348-1.92181,1.12951-.77273-.06655-5.123h2.56152v5.123l1.09046.74861.00731,2.079L25.59581,9.04328Z" transform="translate(-7.20678 0.27434)"/><path class="cls-2" d="M24.37948,1.83392s-.02412-1.53728-.0231-1.5603c.0154-.33824.50732-.538.515-.538.02428,0,1.99079.0154,1.99079.0154l.01532,2.05993Z" transform="translate(-7.20678 0.27434)"/><path class="cls-2" d="M27.629-.25728l.0062,2.08342,10.542-.001L38.12108.65318a1.34777,1.34777,0,0,0-.9829-.92641C37.11336-.27951,27.629-.25728,27.629-.25728Z" transform="translate(-7.20678 0.27434)"/><path class="cls-1" d="M37.21188,24.36435c.13137.06561.79834,1.00656,1.02981.85224.32739-.21826-.05044-1.77967.2841-1.84653.68-.136,1.93351.9312,2.4857,1.2073" transform="translate(-7.20678 0.27434)"/><path class="cls-1" d="M38.49028,31.7149c-.03214.06427,1.14876-1.47891,1.31383-1.31384.3538.3538.06427,2.30994.92327,1.38486a7.16842,7.16842,0,0,1,.60372-.56813c.11864-.10623.24247-.207.35506-.31962.63578-.63578.04965-.13011.5327-.53262" transform="translate(-7.20678 0.27434)"/><path class="cls-1" d="M36.92785,37.60963c.666,0,1.29341-.49,1.98851-.39064.59524.085.13192,1.74494.2486,2.09512.2632.78963,2.61211-.79629,3.01839-.95877" transform="translate(-7.20678 0.27434)"/><path class="cls-1" d="M13.98784,38.30851c-.05351.34444-.06828.68622-.08839,1.03483-.07119,1.23613-1.25271-.36087-2.04382-.22691-.523.08855-.75388,2.27505-.86607,2.66774" transform="translate(-7.20678 0.27434)"/><path class="cls-1" d="M12.26379,32.007c.07134.0645-.589,1.7561-.88649,1.69089-.40935-.08981-.3857-1.39877-.66053-1.69223-.13279-.14174-2.52286,2.17739-3.01,2.45246" transform="translate(-7.20678 0.27434)"/><path class="cls-1" d="M15.87751,24.95661c.25205-.2559-1.77449,1.4892-1.96824,1.29843-.3373-.33219,1.84221-3.45233-.59509-2.38575-.22219.09727-.45357.1723-.675.27-.339.14968-.67523.29691-1.02117.43166" transform="translate(-7.20678 0.27434)"/><path class="cls-1" d="M31.81166,43.82894c.348.17395,1.2014-.21183,1.48386.07063.18794.18794-.93521.86607-.89506,1.107.05154.30933,1.9317.564,2.19051.63594" transform="translate(-7.20678 0.27434)"/><path class="cls-1" d="M25.14593,44.97231c.46363.23185,1.21381.51611,1.43679,1.03632.01508.03528-1.52024.39-1.41322.87149.12036.5415,1.33324,1.61122,1.67234,2.11988" transform="translate(-7.20678 0.27434)"/><path class="cls-1" d="M17.89147,43.7818c0-.09759,1.1,1.37173.75372,1.64877-.33777.2702-1.84654-1.15143-1.9079-.04706a4.30475,4.30475,0,0,0,.07071.94212c.02593.16453.05524.32881.07063.49459.03143.33754.02358.69817.02358,1.03641" transform="translate(-7.20678 0.27434)"/></svg>