<svg id="Слой_1" data-name="Слой 1" xmlns="http://www.w3.org/2000/svg" viewBox="0 0 37.64629 47.44427"><defs><style>.cls-1,.cls-2,.cls-3{fill:none;stroke:#000;}.cls-1{stroke-linecap:round;stroke-linejoin:round;}.cls-2{stroke-linecap:square;stroke-miterlimit:4.21875;}.cls-2,.cls-3{stroke-width:0.25px;}.cls-3{stroke-miterlimit:10;}.cls-4{fill-rule:evenodd;}</style></defs><path class="cls-1" d="M14.01927,28.955c.0434.08364.2771-.788-1.11-3.20432-.92764-1.61588-3.51413-3.19162-3.12248-6.87348.00208-.02.30891-6.72026,8.45738-7.04567.17109-.00688,7.1313.65263,7.51579,7.38294.00616.10774.324,3.57276-3.42524,6.65628-1.00421.82589-1.15047,1.37648-1.47135,2.85037-.00616.02836-7.05626,1.57863-7.05626,1.57863" transform="translate(-0.85371 -1.1404)"/><path class="cls-1" d="M20.76607,31.21221l-7.01014,1.27616" transform="translate(-0.85371 -1.1404)"/><path class="cls-1" d="M20.83367,33.60677,13.82362,34.883" transform="translate(-0.85371 -1.1404)"/><path class="cls-1" d="M15.03853,35.81783a3.03422,3.03422,0,0,0,4.10133.09016" transform="translate(-0.85371 -1.1404)"/><path class="cls-1" d="M16.30291,27.74012c.60478-2.08555-1.02543-5.81191-.95483-5.792,2.10992.59807,2.10567,1.27054,2.10567,1.27054s1.35816-1.33524,2.15188-.95429c.062.02973-1.59931,3.52863-1.38953,5.50889" transform="translate(-0.85371 -1.1404)"/><path class="cls-1" d="M1.35371,1.6404H38V48.08467H1.35371Z" transform="translate(-0.85371 -1.1404)"/><path class="cls-2" d="M17.91254,11.54639l12.90424.14127" transform="translate(-0.85371 -1.1404)"/><path class="cls-2" d="M30.78579,37.06553l-13.45628.04178" transform="translate(-0.85371 -1.1404)"/><path class="cls-3" d="M28.93221,36.63872c-.00289-1.52689-.04757-24.5373-.04757-24.5373" transform="translate(-0.85371 -1.1404)"/><path class="cls-4" d="M28.88491,12.2011l.39908.29813-.40008-.79643-.39708.798Z" transform="translate(-0.85371 -1.1404)"/><path class="cls-4" d="M28.932,36.53905l-.39916-.29814.40016.79635.397-.79788Z" transform="translate(-0.85371 -1.1404)"/><path class="cls-4" d="M29.9233,24.97313h-.08555a.45308.45308,0,0,0-.03932-.16846.19374.19374,0,0,0-.1304-.07122v-.088h.88333v.119H29.9233Z" transform="translate(-0.85371 -1.1404)"/><path class="cls-4" d="M30.55136,24.34941a.518.518,0,0,1-.19945-.04739.38393.38393,0,0,1-.15423-.16075l-.06878-.119a.55846.55846,0,0,0-.07929-.11209.173.173,0,0,0-.24068-.00435.16942.16942,0,0,0-.04549.12387.16184.16184,0,0,0,.08673.15858.31048.31048,0,0,0,.12885.026v.11336a.39839.39839,0,0,1-.18893-.04268.26842.26842,0,0,1-.12886-.2559.26316.26316,0,0,1,.26578-.293.24938.24938,0,0,1,.18205.07494.73069.73069,0,0,1,.10656.15549l.04712.08491a.54612.54612,0,0,0,.0638.09533.23257.23257,0,0,0,.11952.07812v-.48444h.1053Z" transform="translate(-0.85371 -1.1404)"/><path class="cls-4" d="M29.66431,23.3403a.26207.26207,0,0,1,.14191-.249.63366.63366,0,0,1,.30039-.05944.72449.72449,0,0,1,.29922.05382.264.264,0,0,1,.16973.25527.25581.25581,0,0,1-.13874.23787.63632.63632,0,0,1-.311.065.7683.7683,0,0,1-.25953-.039A.2671.2671,0,0,1,29.66431,23.3403Zm.80966.00127a.15876.15876,0,0,0-.07684-.13819A.55647.55647,0,0,0,30.111,23.152a.70618.70618,0,0,0-.24874.03715.1413.1413,0,0,0-.0975.14435.15079.15079,0,0,0,.0926.144.63936.63936,0,0,0,.27285.04549.67055.67055,0,0,0,.218-.02908A.15867.15867,0,0,0,30.474,23.34157Z" transform="translate(-0.85371 -1.1404)"/></svg>