<?xml version="1.0" encoding="UTF-8" standalone="no"?>
<svg
   xmlns:dc="http://purl.org/dc/elements/1.1/"
   xmlns:cc="http://creativecommons.org/ns#"
   xmlns:rdf="http://www.w3.org/1999/02/22-rdf-syntax-ns#"
   xmlns:svg="http://www.w3.org/2000/svg"
   xmlns="http://www.w3.org/2000/svg"
   xmlns:sodipodi="http://sodipodi.sourceforge.net/DTD/sodipodi-0.dtd"
   xmlns:inkscape="http://www.inkscape.org/namespaces/inkscape"
   id="Слой_1"
   data-name="Слой 1"
   viewBox="0 0 37.64629 47.44427"
   version="1.1"
   sodipodi:docname="Проектування.svg"
   inkscape:version="1.0.2-2 (e86c870879, 2021-01-15)">
  <metadata
     id="metadata37">
    <rdf:RDF>
      <cc:Work
         rdf:about="">
        <dc:format>image/svg+xml</dc:format>
        <dc:type
           rdf:resource="http://purl.org/dc/dcmitype/StillImage" />
      </cc:Work>
    </rdf:RDF>
  </metadata>
  <sodipodi:namedview
     pagecolor="#ffffff"
     bordercolor="#666666"
     borderopacity="1"
     objecttolerance="10"
     gridtolerance="10"
     guidetolerance="10"
     inkscape:pageopacity="0"
     inkscape:pageshadow="2"
     inkscape:window-width="1600"
     inkscape:window-height="1201"
     id="namedview35"
     showgrid="false"
     inkscape:zoom="256"
     inkscape:cx="30.841752"
     inkscape:cy="23.61957"
     inkscape:window-x="-9"
     inkscape:window-y="51"
     inkscape:window-maximized="1"
     inkscape:current-layer="Слой_1" />
  <defs
     id="defs4">
    <style
       id="style2">.cls-1,.cls-2,.cls-3{fill:none;stroke:#fff;}.cls-1{stroke-linecap:round;stroke-linejoin:round;}.cls-2{stroke-linecap:square;stroke-miterlimit:4.21875;}.cls-2,.cls-3{stroke-width:0.25px;}.cls-3{stroke-miterlimit:10;}.cls-4{fill-rule:evenodd;}</style>
  </defs>
  <path
     class="cls-1"
     d="M14.01927,28.955c.0434.08364.2771-.788-1.11-3.20432-.92764-1.61588-3.51413-3.19162-3.12248-6.87348.00208-.02.30891-6.72026,8.45738-7.04567.17109-.00688,7.1313.65263,7.51579,7.38294.00616.10774.324,3.57276-3.42524,6.65628-1.00421.82589-1.15047,1.37648-1.47135,2.85037-.00616.02836-7.05626,1.57863-7.05626,1.57863"
     transform="translate(-0.85371 -1.1404)"
     id="path6" />
  <path
     class="cls-1"
     d="M20.76607,31.21221l-7.01014,1.27616"
     transform="translate(-0.85371 -1.1404)"
     id="path8" />
  <path
     class="cls-1"
     d="M20.83367,33.60677,13.82362,34.883"
     transform="translate(-0.85371 -1.1404)"
     id="path10" />
  <path
     class="cls-1"
     d="M15.03853,35.81783a3.03422,3.03422,0,0,0,4.10133.09016"
     transform="translate(-0.85371 -1.1404)"
     id="path12" />
  <path
     class="cls-1"
     d="M16.30291,27.74012c.60478-2.08555-1.02543-5.81191-.95483-5.792,2.10992.59807,2.10567,1.27054,2.10567,1.27054s1.35816-1.33524,2.15188-.95429c.062.02973-1.59931,3.52863-1.38953,5.50889"
     transform="translate(-0.85371 -1.1404)"
     id="path14" />
  <path
     class="cls-1"
     d="M1.35371,1.6404H38V48.08467H1.35371Z"
     transform="translate(-0.85371 -1.1404)"
     id="path16" />
  <path
     class="cls-2"
     d="M17.91254,11.54639l12.90424.14127"
     transform="translate(-0.85371 -1.1404)"
     id="path18" />
  <path
     class="cls-2"
     d="M30.78579,37.06553l-13.45628.04178"
     transform="translate(-0.85371 -1.1404)"
     id="path20" />
  <path
     class="cls-3"
     d="M28.93221,36.63872c-.00289-1.52689-.04757-24.5373-.04757-24.5373"
     transform="translate(-0.85371 -1.1404)"
     id="path22" />
  <path
     class="cls-4"
     d="M28.88491,12.2011l.39908.29813-.40008-.79643-.39708.798Z"
     transform="translate(-0.85371 -1.1404)"
     id="path24" />
  <path
     class="cls-4"
     d="M28.932,36.53905l-.39916-.29814.40016.79635.397-.79788Z"
     transform="translate(-0.85371 -1.1404)"
     id="path26" />
  <path
     class="cls-4"
     d="M29.9233,24.97313h-.08555a.45308.45308,0,0,0-.03932-.16846.19374.19374,0,0,0-.1304-.07122v-.088h.88333v.119H29.9233Z"
     transform="translate(-0.85371 -1.1404)"
     id="path28" />
  <path
     class="cls-4"
     d="M30.55136,24.34941a.518.518,0,0,1-.19945-.04739.38393.38393,0,0,1-.15423-.16075l-.06878-.119a.55846.55846,0,0,0-.07929-.11209.173.173,0,0,0-.24068-.00435.16942.16942,0,0,0-.04549.12387.16184.16184,0,0,0,.08673.15858.31048.31048,0,0,0,.12885.026v.11336a.39839.39839,0,0,1-.18893-.04268.26842.26842,0,0,1-.12886-.2559.26316.26316,0,0,1,.26578-.293.24938.24938,0,0,1,.18205.07494.73069.73069,0,0,1,.10656.15549l.04712.08491a.54612.54612,0,0,0,.0638.09533.23257.23257,0,0,0,.11952.07812v-.48444h.1053Z"
     transform="translate(-0.85371 -1.1404)"
     id="path30" />
  <path
     class="cls-4"
     d="M29.66431,23.3403a.26207.26207,0,0,1,.14191-.249.63366.63366,0,0,1,.30039-.05944.72449.72449,0,0,1,.29922.05382.264.264,0,0,1,.16973.25527.25581.25581,0,0,1-.13874.23787.63632.63632,0,0,1-.311.065.7683.7683,0,0,1-.25953-.039A.2671.2671,0,0,1,29.66431,23.3403Zm.80966.00127a.15876.15876,0,0,0-.07684-.13819A.55647.55647,0,0,0,30.111,23.152a.70618.70618,0,0,0-.24874.03715.1413.1413,0,0,0-.0975.14435.15079.15079,0,0,0,.0926.144.63936.63936,0,0,0,.27285.04549.67055.67055,0,0,0,.218-.02908A.15867.15867,0,0,0,30.474,23.34157Z"
     transform="translate(-0.85371 -1.1404)"
     id="path32" />
  <path
     style="fill:#ffffff;stroke-width:0.00390625"
     d="m 27.883313,35.501543 c -0.106696,-0.211783 -0.193289,-0.385764 -0.192429,-0.386624 8.61e-4,-8.6e-4 0.08845,0.06331 0.194632,0.142591 0.113505,0.08475 0.194703,0.142854 0.197035,0.141 0.03984,-0.03169 0.375098,-0.281437 0.377797,-0.281437 0.0021,0 0.0032,0.0017 0.0025,0.0037 -0.0049,0.01379 -0.380755,0.765468 -0.382861,0.765636 -0.0015,1.17e-4 -0.08995,-0.173065 -0.196645,-0.384849 z"
     id="path862" />
  <path
     style="fill:#ffffff;stroke-width:0.00390625"
     d="m 27.764476,11.102043 c 0.189792,-0.383818 0.261911,-0.526744 0.265789,-0.526744 0.003,0 0.387008,0.758614 0.387008,0.764526 0,0.0054 -0.02574,-0.01308 -0.197686,-0.141569 -0.102346,-0.07648 -0.188066,-0.138266 -0.190488,-0.137307 -0.0024,9.59e-4 -0.08785,0.06455 -0.189848,0.141317 -0.101994,0.07676 -0.187639,0.140416 -0.190323,0.141445 -0.0027,10e-4 0.04931,-0.10772 0.115548,-0.241668 z"
     id="path864" />
  <path
     style="fill:#ffffff;stroke-width:0.00390625"
     d="m 29.627826,23.199658 c -0.09679,-0.01754 -0.158616,-0.04958 -0.218992,-0.113479 -0.03022,-0.03198 -0.0404,-0.04717 -0.0942,-0.140583 -0.08396,-0.145759 -0.114562,-0.185327 -0.161474,-0.20877 -0.07792,-0.03894 -0.173894,-0.01652 -0.217396,0.05079 -0.02179,0.03371 -0.02883,0.06388 -0.02699,0.115652 0.0013,0.0378 0.0029,0.04537 0.01387,0.06874 0.02931,0.06229 0.08234,0.09364 0.173998,0.102855 l 0.02637,0.0027 v 0.05477 0.05477 l -0.03365,-0.0027 c -0.09494,-0.0077 -0.177317,-0.04572 -0.219696,-0.101399 -0.04914,-0.06456 -0.06359,-0.115917 -0.06113,-0.217258 0.0021,-0.08551 0.02176,-0.133366 0.078,-0.189605 0.05453,-0.05453 0.10776,-0.07696 0.183746,-0.07742 0.0474,-2.86e-4 0.07178,0.0052 0.115234,0.02573 0.02739,0.01297 0.03904,0.02161 0.06656,0.04941 0.03983,0.04022 0.07061,0.08578 0.126988,0.187983 0.05405,0.09798 0.0744,0.128124 0.110779,0.164063 0.02987,0.02951 0.06648,0.05196 0.09313,0.05711 l 0.0127,0.0025 v -0.242676 -0.242676 h 0.05078 0.05078 v 0.302735 0.302734 l -0.02051,-3.52e-4 c -0.01128,-1.94e-4 -0.03328,-0.0027 -0.04889,-0.0055 z"
     id="path866" />
  <path
     style="fill:#ffffff;stroke-width:0.00390625"
     d="m 29.18069,22.498036 c -0.06536,-0.0063 -0.179628,-0.0349 -0.219269,-0.05487 -0.06966,-0.0351 -0.124255,-0.103522 -0.141318,-0.177109 -0.0085,-0.03657 -0.0085,-0.113057 -1.28e-4,-0.144531 0.01453,-0.05431 0.05156,-0.110857 0.09317,-0.142249 0.03989,-0.0301 0.114256,-0.05953 0.189739,-0.07509 0.04811,-0.0099 0.182897,-0.0142 0.242405,-0.0077 0.08543,0.0093 0.173085,0.03344 0.232795,0.06406 0.03689,0.01891 0.08723,0.06642 0.106437,0.100437 0.05813,0.102972 0.04429,0.238639 -0.03268,0.320229 -0.03256,0.03451 -0.05915,0.05204 -0.11065,0.07291 -0.08526,0.03456 -0.163302,0.04861 -0.265063,0.04774 -0.03373,-2.9e-4 -0.07667,-0.002 -0.09543,-0.0038 z m 0.229421,-0.122393 c 0.05262,-0.0096 0.106977,-0.02511 0.128678,-0.03674 0.05835,-0.03127 0.09288,-0.10202 0.08099,-0.165937 -0.01112,-0.05977 -0.04593,-0.101152 -0.10494,-0.124725 -0.04566,-0.01824 -0.107072,-0.03304 -0.157464,-0.03794 -0.04938,-0.0048 -0.193578,6.99e-4 -0.240234,0.0092 -0.08939,0.01622 -0.132011,0.03185 -0.161655,0.0593 -0.02942,0.02724 -0.04341,0.05712 -0.04626,0.09882 -0.005,0.07253 0.02763,0.130017 0.09003,0.158826 0.04339,0.02003 0.120958,0.03995 0.180383,0.04631 0.03769,0.004 0.196232,-8.31e-4 0.230468,-0.0071 z"
     id="path868" />
  <path
     style="fill:#ffffff;stroke-width:0.00390625"
     d="m 28.982894,23.796109 c -0.0058,-0.0453 -0.01793,-0.09079 -0.03212,-0.120596 -0.01815,-0.03811 -0.06265,-0.06942 -0.113902,-0.08015 l -0.02246,-0.0047 v -0.04219 -0.04219 h 0.441406 0.441407 v 0.05859 0.05859 h -0.314453 -0.314454 v 0.103515 0.103516 h -0.0405 -0.0405 z"
     id="path870" />
</svg>
