<?xml version="1.0" encoding="UTF-8" standalone="no"?>
<svg
   xmlns:dc="http://purl.org/dc/elements/1.1/"
   xmlns:cc="http://creativecommons.org/ns#"
   xmlns:rdf="http://www.w3.org/1999/02/22-rdf-syntax-ns#"
   xmlns:svg="http://www.w3.org/2000/svg"
   xmlns="http://www.w3.org/2000/svg"
   xmlns:sodipodi="http://sodipodi.sourceforge.net/DTD/sodipodi-0.dtd"
   xmlns:inkscape="http://www.inkscape.org/namespaces/inkscape"
   id="Слой_1"
   data-name="Слой 1"
   viewBox="0 0 35.51208 49.77434"
   version="1.1"
   sodipodi:docname="Прототипуваннч.svg"
   inkscape:version="1.0.2-2 (e86c870879, 2021-01-15)">
  <metadata
     id="metadata45">
    <rdf:RDF>
      <cc:Work
         rdf:about="">
        <dc:format>image/svg+xml</dc:format>
        <dc:type
           rdf:resource="http://purl.org/dc/dcmitype/StillImage" />
      </cc:Work>
    </rdf:RDF>
  </metadata>
  <sodipodi:namedview
     pagecolor="#ffffff"
     bordercolor="#666666"
     borderopacity="1"
     objecttolerance="10"
     gridtolerance="10"
     guidetolerance="10"
     inkscape:pageopacity="0"
     inkscape:pageshadow="2"
     inkscape:window-width="1600"
     inkscape:window-height="1201"
     id="namedview43"
     showgrid="false"
     inkscape:zoom="16.675258"
     inkscape:cx="17.756041"
     inkscape:cy="24.767233"
     inkscape:window-x="-9"
     inkscape:window-y="51"
     inkscape:window-maximized="1"
     inkscape:current-layer="Слой_1" />
  <defs
     id="defs4">
    <style
       id="style2">.cls-1{fill:none;stroke:#000;stroke-linecap:round;stroke-linejoin:round;}.cls-2{fill-rule:evenodd;}</style>
  </defs>
  <path
     class="cls-1"
     d="M28.98105,23.48477c-.044-.08611-.28113.81115,1.126,3.29826.94094,1.66323,3.56476,3.28514,3.16752,7.075-.0022.02051-.31341,6.91724-8.57929,7.25218-.17356.00707-7.2341-.67177-7.62412-7.59946-.00629-.11086-.32866-3.67743,3.47457-6.85131,1.01865-.85012,1.16706-1.41684,1.49258-2.93393.0062-.02915,7.158-1.62489,7.158-1.62489"
     transform="translate(-7.20678 0.27434)"
     id="path6" />
  <path
     class="cls-1"
     d="M22.137,21.16148,29.2481,19.8478"
     transform="translate(-7.20678 0.27434)"
     id="path8" />
  <path
     class="cls-1"
     d="M22.06837,18.69668l7.11114-1.31359"
     transform="translate(-7.20678 0.27434)"
     id="path10" />
  <path
     class="cls-1"
     d="M27.94707,16.42077A3.0471,3.0471,0,0,0,23.7866,16.328"
     transform="translate(-7.20678 0.27434)"
     id="path12" />
  <path
     class="cls-1"
     d="M26.66451,24.73528c-.61355,2.14667,1.0401,5.98234.9686,5.96175-2.14038-.61551-2.13614-1.3077-2.13614-1.3077s-1.37763,1.37433-2.18281.98227c-.06285-.03064,1.6223-3.63218,1.40953-5.6705"
     transform="translate(-7.20678 0.27434)"
     id="path14" />
  <path
     class="cls-2"
     d="M19.42514,20.20184l-.03174-6.6054L25.5,10.22574l6.26495,3.46239.01257,6.56226-1.92675-1.65907.01862-3.88289-4.26552-2.45466L21.303,14.76265l-.02428,3.82349Z"
     transform="translate(-7.20678 0.27434)"
     id="path16" />
  <path
     class="cls-2"
     d="M23.23387,10.54026l.0348-1.92181,1.12951-.77273-.06655-5.123h2.56152v5.123l1.09046.74861.00731,2.079L25.59581,9.04328Z"
     transform="translate(-7.20678 0.27434)"
     id="path18" />
  <path
     class="cls-2"
     d="M24.37948,1.83392s-.02412-1.53728-.0231-1.5603c.0154-.33824.50732-.538.515-.538.02428,0,1.99079.0154,1.99079.0154l.01532,2.05993Z"
     transform="translate(-7.20678 0.27434)"
     id="path20" />
  <path
     class="cls-2"
     d="M27.629-.25728l.0062,2.08342,10.542-.001L38.12108.65318a1.34777,1.34777,0,0,0-.9829-.92641C37.11336-.27951,27.629-.25728,27.629-.25728Z"
     transform="translate(-7.20678 0.27434)"
     id="path22" />
  <path
     class="cls-1"
     d="M37.21188,24.36435c.13137.06561.79834,1.00656,1.02981.85224.32739-.21826-.05044-1.77967.2841-1.84653.68-.136,1.93351.9312,2.4857,1.2073"
     transform="translate(-7.20678 0.27434)"
     id="path24" />
  <path
     class="cls-1"
     d="M38.49028,31.7149c-.03214.06427,1.14876-1.47891,1.31383-1.31384.3538.3538.06427,2.30994.92327,1.38486a7.16842,7.16842,0,0,1,.60372-.56813c.11864-.10623.24247-.207.35506-.31962.63578-.63578.04965-.13011.5327-.53262"
     transform="translate(-7.20678 0.27434)"
     id="path26" />
  <path
     class="cls-1"
     d="M36.92785,37.60963c.666,0,1.29341-.49,1.98851-.39064.59524.085.13192,1.74494.2486,2.09512.2632.78963,2.61211-.79629,3.01839-.95877"
     transform="translate(-7.20678 0.27434)"
     id="path28" />
  <path
     class="cls-1"
     d="M13.98784,38.30851c-.05351.34444-.06828.68622-.08839,1.03483-.07119,1.23613-1.25271-.36087-2.04382-.22691-.523.08855-.75388,2.27505-.86607,2.66774"
     transform="translate(-7.20678 0.27434)"
     id="path30" />
  <path
     class="cls-1"
     d="M12.26379,32.007c.07134.0645-.589,1.7561-.88649,1.69089-.40935-.08981-.3857-1.39877-.66053-1.69223-.13279-.14174-2.52286,2.17739-3.01,2.45246"
     transform="translate(-7.20678 0.27434)"
     id="path32" />
  <path
     class="cls-1"
     d="M15.87751,24.95661c.25205-.2559-1.77449,1.4892-1.96824,1.29843-.3373-.33219,1.84221-3.45233-.59509-2.38575-.22219.09727-.45357.1723-.675.27-.339.14968-.67523.29691-1.02117.43166"
     transform="translate(-7.20678 0.27434)"
     id="path34" />
  <path
     class="cls-1"
     d="M31.81166,43.82894c.348.17395,1.2014-.21183,1.48386.07063.18794.18794-.93521.86607-.89506,1.107.05154.30933,1.9317.564,2.19051.63594"
     transform="translate(-7.20678 0.27434)"
     id="path36" />
  <path
     class="cls-1"
     d="M25.14593,44.97231c.46363.23185,1.21381.51611,1.43679,1.03632.01508.03528-1.52024.39-1.41322.87149.12036.5415,1.33324,1.61122,1.67234,2.11988"
     transform="translate(-7.20678 0.27434)"
     id="path38" />
  <path
     class="cls-1"
     d="M17.89147,43.7818c0-.09759,1.1,1.37173.75372,1.64877-.33777.2702-1.84654-1.15143-1.9079-.04706a4.30475,4.30475,0,0,0,.07071.94212c.02593.16453.05524.32881.07063.49459.03143.33754.02358.69817.02358,1.03641"
     transform="translate(-7.20678 0.27434)"
     id="path40" />
  <path
     style="fill:#ffffff;stroke-width:0.0599691"
     d="M 16.586643,41.712798 C 15.268389,41.43745 13.984479,40.908252 12.898545,40.192648 12.274208,39.781226 11.168211,38.689782 10.783616,38.105547 9.9876878,36.896461 9.5734088,35.680156 9.4254771,34.11811 c -0.166482,-1.757922 0.4296097,-3.713599 1.6613739,-5.450692 0.382247,-0.539062 1.180386,-1.386704 2.176041,-2.311005 0.541561,-0.50275 0.709148,-0.814347 0.948318,-1.763232 l 0.170762,-0.677479 0.353077,-0.232031 c 0.392543,-0.257967 0.04935,-0.169131 4.623999,-1.196933 2.785602,-0.625851 2.866117,-0.63561 3.010966,-0.364958 0.101028,0.188773 0.07485,0.457807 -0.05607,0.576291 -0.100125,0.09061 -3.053722,0.790306 -6.830739,1.61817 -0.182682,0.04004 -0.199475,0.03307 -0.161362,-0.067 0.02572,-0.06754 0.02129,-0.08798 -0.01122,-0.05172 -0.02957,0.03298 -0.126132,0.343323 -0.214584,0.689645 -0.08845,0.346321 -0.256604,0.832071 -0.373673,1.079443 -0.192773,0.407341 -0.319236,0.554423 -1.340603,1.559197 -1.483901,1.459793 -2.032978,2.218593 -2.547967,3.52118 -0.62632,1.584183 -0.646141,3.363842 -0.05578,5.008443 0.817221,2.276582 2.717758,3.876866 5.511789,4.641019 1.467193,0.40127 3.733662,0.06962 5.442752,-0.796426 1.584833,-0.803084 2.895481,-2.324585 3.478848,-4.038513 0.321964,-0.945928 0.370823,-1.272902 0.367405,-2.458733 -0.003,-1.035531 -0.01421,-1.145378 -0.168534,-1.64915 -0.295493,-0.96461 -0.742224,-1.699657 -1.846514,-3.038232 -0.753801,-0.913728 -1.094759,-1.429792 -1.513021,-2.290072 -0.921461,-1.895258 -1.025939,-3.117342 -0.266505,-3.117342 0.290325,0 0.485677,0.258805 0.438693,0.581189 -0.05503,0.377577 0.206842,1.189488 0.718401,2.227363 0.368459,0.747547 0.546182,1.026195 1.05184,1.64915 1.41089,1.738175 1.83998,2.400403 2.190142,3.380113 0.299789,0.838773 0.407118,1.573462 0.36914,2.526842 -0.08697,2.183211 -0.90483,4.080102 -2.406046,5.580419 -1.466496,1.465616 -3.354496,2.287057 -5.842003,2.541769 -0.826363,0.08462 -0.947641,0.07883 -1.717758,-0.08203 z"
     id="path870" />
  <path
     style="fill:#ffffff;stroke-width:0.0599691"
     d="m 19.689015,31.216011 c -0.560919,-0.203682 -0.96235,-0.410264 -1.316531,-0.677505 l -0.19314,-0.14573 -0.421331,0.280101 c -0.851861,0.566315 -1.584508,0.667615 -1.978557,0.273566 -0.06728,-0.06728 -0.122333,-0.197952 -0.122333,-0.290375 0,-0.09242 0.162881,-0.598412 0.361959,-1.12442 0.708236,-1.871319 1.01733,-3.129321 1.01733,-4.14051 0,-0.524577 0.01158,-0.580973 0.147196,-0.716585 0.194741,-0.19474 0.470372,-0.19474 0.665112,0 0.133046,0.133046 0.147197,0.19589 0.147197,0.653701 0,0.975048 -0.335557,2.447732 -0.918501,4.031094 -0.144812,0.393332 -0.23869,0.72467 -0.208616,0.736306 0.07042,0.02725 0.600568,-0.324865 0.968217,-0.643063 0.431626,-0.37357 0.684312,-0.331317 0.948305,0.158571 0.0562,0.104287 0.239505,0.265262 0.419784,0.368644 0.439081,0.251794 0.485411,0.243094 0.373988,-0.07022 -0.310006,-0.871724 -0.642431,-2.453382 -0.715278,-3.403246 -0.04379,-0.570993 0.05183,-1.428271 0.188876,-1.693281 0.124599,-0.240948 0.359161,-0.319034 0.605491,-0.201567 0.241725,0.11527 0.292612,0.299471 0.204264,0.739387 -0.198034,0.986086 0.04693,2.567574 0.708622,4.574826 0.379741,1.151951 0.383547,1.242637 0.0592,1.410365 -0.232467,0.120213 -0.305088,0.11095 -0.941253,-0.120055 z"
     id="path872" />
  <path
     style="fill:#ffffff;stroke-width:0.0599691"
     d="m 23.562431,19.621527 -0.880162,-0.761249 -0.0044,-1.958319 -0.0044,-1.958319 -2.093059,-1.203097 C 19.429266,13.078839 18.461113,12.52982 18.428996,12.5205 c -0.03212,-0.0093 -1.032863,0.549762 -2.223884,1.242405 l -2.165491,1.259351 -0.0032,1.919011 -0.0032,1.919011 -0.836538,0.719406 c -0.460095,0.395673 -0.863825,0.728501 -0.897176,0.739618 -0.04037,0.01346 -0.06061,-1.058722 -0.06054,-3.208123 l 1.04e-4,-3.228336 3.028297,-1.670228 3.028298,-1.670229 3.11843,1.722421 3.11843,1.722421 v 3.201131 c 0,1.760621 -0.02024,3.19962 -0.04498,3.197774 -0.02474,-0.0018 -0.44105,-0.345919 -0.92514,-0.764606 z"
     id="path874" />
  <path
     style="fill:#ffffff;stroke-width:0.0599691"
     d="M 19.56339,10.069585 C 18.928736,9.6379347 18.377142,9.298662 18.337626,9.315647 c -0.03952,0.016984 -0.557598,0.3407216 -1.151292,0.719415 l -1.079443,0.688534 -0.01671,-0.8463667 c -0.0092,-0.4655016 -0.0039,-0.8796343 0.01166,-0.9202952 0.0156,-0.040661 0.276241,-0.2405977 0.579197,-0.4443043 l 0.550827,-0.3703756 -0.04425,-2.5718999 -0.04425,-2.5719 h 1.26585 1.26585 v 2.5764815 2.5764816 l 0.539722,0.374018 0.539722,0.3740178 v 0.9774757 c 0,0.5376111 -0.0084,0.9774761 -0.01859,0.9774761 -0.01023,0 -0.537856,-0.353169 -1.17251,-0.78482 z"
     id="path876" />
  <path
     style="fill:#ffffff;stroke-width:0.0599691"
     d="m 17.215892,1.703455 c -2.34e-4,-0.2277658 -0.01753,-0.5951748 -0.03843,-0.81646454 -0.03785,-0.40072233 -0.03715,-0.40320115 0.174336,-0.61468312 l 0.212338,-0.21233825 h 1.025472 1.025471 V 1.049459 2.0389489 l -0.344822,2.219e-4 c -0.189652,1.2e-4 -0.729374,0.017811 -1.199382,0.039313 l -0.854559,0.039091 z"
     id="path878" />
  <path
     style="fill:#ffffff;stroke-width:0.0599691"
     d="M 20.454649,1.0833661 V 0.0678142 l 4.722566,-0.01974932 c 5.199503,-0.02174382 4.962597,-0.03745659 5.366298,0.3559193 0.272105,0.26514597 0.324471,0.42537293 0.37265,1.14021982 l 0.03739,0.554714 h -5.24945 -5.24945 z"
     id="path880" />
  <path
     style="fill:#ffffff;stroke-width:0.0599691"
     d="m 20.287665,16.910233 c -0.48596,-0.386927 -0.915606,-0.549323 -1.542135,-0.58289 -0.607896,-0.03257 -1.091997,0.09027 -1.541996,0.391267 -0.133772,0.08948 -0.313804,0.210459 -0.400071,0.268847 -0.297917,0.201635 -0.666588,-0.024 -0.666588,-0.407975 0,-0.25084 0.323048,-0.543568 0.929521,-0.842282 1.229781,-0.605721 2.560673,-0.473452 3.676581,0.365391 0.406516,0.305584 0.516878,0.493655 0.42755,0.728605 -0.147779,0.388687 -0.458968,0.416546 -0.882862,0.07904 z"
     id="path882" />
  <path
     style="fill:#ffffff;stroke-width:0.0599691"
     d="m 14.544969,19.282787 c -0.183418,-0.183418 -0.187838,-0.399476 -0.01227,-0.599622 0.126947,-0.144715 0.346058,-0.192794 3.703091,-0.812573 1.962489,-0.362316 3.653907,-0.658916 3.758708,-0.65911 0.134687,-2.5e-4 0.226983,0.04597 0.314838,0.157656 0.233739,0.297151 0.106342,0.631082 -0.282671,0.740934 -0.301556,0.08516 -7.041651,1.319912 -7.204926,1.319912 -0.07127,0 -0.195815,-0.06624 -0.276773,-0.147197 z"
     id="path884" />
  <path
     style="fill:#ffffff;stroke-width:0.0599691"
     d="m 14.604938,21.74152 c -0.268654,-0.268654 -0.141191,-0.637905 0.259764,-0.752521 0.329072,-0.09407 7.024776,-1.319139 7.209835,-1.319139 0.208822,0 0.419061,0.229861 0.419061,0.458172 0,0.390183 0.04117,0.37845 -3.854553,1.098538 -1.97024,0.36418 -3.650803,0.662146 -3.734583,0.662146 -0.08378,0 -0.218566,-0.06624 -0.299524,-0.147196 z"
     id="path886" />
  <path
     style="fill:#ffffff;stroke-width:0.0599691"
     d="m 6.436984,26.893965 c -0.072338,-0.05067 -0.1623861,-0.195129 -0.2001057,-0.321026 -0.06308,-0.210542 -0.043954,-0.300567 0.2384187,-1.122251 0.1688499,-0.491341 0.3068651,-0.928898 0.3067003,-0.97235 -3.958e-4,-0.1043 -0.067058,-0.08255 -1.2717685,0.414973 -0.5508845,0.227504 -1.0532344,0.413643 -1.116333,0.413643 -0.063099,0 -0.1858295,-0.05593 -0.272735,-0.12429 -0.1750424,-0.137689 -0.2153572,-0.435361 -0.083049,-0.613208 0.081967,-0.110177 1.8728052,-0.876911 2.4191358,-1.035734 0.5414968,-0.157417 0.9268446,-0.04108 1.1666559,0.352225 0.1570792,0.257617 0.1481878,0.599541 -0.030198,1.161282 -0.081124,0.25546 -0.1369582,0.475012 -0.1240767,0.487894 0.012881,0.01288 0.2209324,-0.132085 0.4623353,-0.322148 0.2414029,-0.190062 0.4735818,-0.372187 0.5159532,-0.404722 0.1397005,-0.107269 0.4494919,-0.05764 0.5632686,0.09024 0.1243674,0.161643 0.1418815,0.465879 0.034345,0.596598 C 8.9292941,25.636386 8.0033456,26.33526 7.4786403,26.677727 6.9683434,27.010789 6.68712,27.069169 6.4369841,26.893966 Z"
     id="path888" />
  <path
     style="fill:#ffffff;stroke-width:0.0599691"
     d="M 0.25462575,35.105848 C 0.08907896,34.989895 0.00119715,34.780312 0.04610852,34.60857 0.06428876,34.539049 0.24467581,34.351691 0.44696861,34.192218 0.64926143,34.032746 1.206072,33.556829 1.6843255,33.134626 c 1.438934,-1.270296 1.6293088,-1.391523 1.965299,-1.251474 0.2464154,0.102712 0.4133853,0.371842 0.5056256,0.814992 0.039476,0.189653 0.089763,0.344823 0.1117491,0.344823 0.049347,0 0.2958424,-0.583756 0.2958424,-0.70062 0,-0.312751 0.3705742,-0.593966 0.6476429,-0.491471 0.181705,0.06722 0.330978,0.428818 0.2775117,0.672248 -0.071303,0.324642 -0.4380691,1.137157 -0.6568605,1.455177 -0.2237365,0.325207 -0.4073047,0.443955 -0.6862983,0.443955 -0.3501976,0 -0.7075003,-0.495856 -0.8102331,-1.124421 -0.022911,-0.140178 -0.062462,-0.254868 -0.087891,-0.254868 -0.025429,0 -0.5155533,0.4085 -1.0891647,0.907779 -1.52921802,1.331052 -1.59484495,1.370889 -1.90292285,1.155102 z"
     id="path890" />
  <path
     style="fill:#ffffff;stroke-width:0.0599691"
     d="M 3.536239,42.457711 C 3.2991314,42.31917 3.2899586,42.1122 3.4790195,41.16664 3.7647391,39.737655 3.9321505,39.316499 4.3177546,39.056641 4.672647,38.817479 5.0947161,38.89126 5.832283,39.321393 c 0.1869564,0.109029 0.3516383,0.198235 0.3659598,0.198235 0.014322,0 0.043833,-0.236128 0.065581,-0.52473 0.054438,-0.722409 0.2308762,-0.939593 0.6731376,-0.828593 0.2856069,0.07168 0.3294806,0.239177 0.2611218,0.996867 -0.075985,0.842219 -0.1323216,1.028242 -0.3726414,1.230457 C 6.5333051,40.639446 6.1696171,40.584198 5.4871626,40.190331 5.1908909,40.019342 4.9058899,39.879442 4.853827,39.879442 c -0.1222138,0 -0.2482802,0.401351 -0.4426598,1.409274 -0.1706196,0.884719 -0.2392828,1.089781 -0.3923297,1.171689 -0.1355087,0.07252 -0.3559749,0.07129 -0.4825985,-0.0027 z"
     id="path892" />
  <path
     style="fill:#ffffff;stroke-width:0.0599691"
     d="M 9.370822,48.436164 C 9.2620408,48.320372 9.2404303,48.226294 9.2404303,47.86852 c 0,-0.235867 -0.043052,-0.73337 -0.095671,-1.105563 -0.2005508,-1.418564 0.00917,-1.96946 0.7519446,-1.975214 0.1692081,-0.0013 0.4091871,0.05042 0.5758051,0.124124 0.157126,0.0695 0.29795,0.114105 0.312943,0.09911 0.03106,-0.03106 -0.179836,-0.350806 -0.378535,-0.573886 -0.192656,-0.216294 -0.227331,-0.386388 -0.120775,-0.592444 0.107281,-0.207459 0.262645,-0.272232 0.518291,-0.216083 0.227667,0.05 0.613431,0.527186 0.911649,1.12769 0.303244,0.610626 0.317202,0.975107 0.04766,1.244646 -0.250659,0.250659 -0.590433,0.24075 -1.186386,-0.0346 -0.249856,-0.115441 -0.480613,-0.209892 -0.512793,-0.209892 -0.03596,0 -0.04405,0.155996 -0.02098,0.404791 0.02064,0.222635 0.05402,0.799589 0.07417,1.282119 0.03505,0.839289 0.03113,0.882841 -0.09051,1.004482 -0.1742336,0.174234 -0.487014,0.168687 -0.6564229,-0.01164 z"
     id="path894" />
  <path
     style="fill:#ffffff;stroke-width:0.0599691"
     d="m 19.486357,49.692604 c -0.08483,-0.0375 -0.326696,-0.266198 -0.537484,-0.508213 -0.210787,-0.242016 -0.551277,-0.633314 -0.756643,-0.869552 -0.524975,-0.603892 -0.698335,-0.940041 -0.660037,-1.279823 0.0362,-0.321129 0.241175,-0.562473 0.658623,-0.775468 0.15667,-0.07994 0.284854,-0.165955 0.284854,-0.19115 0,-0.02519 -0.203115,-0.146312 -0.451367,-0.26915 -0.317807,-0.157255 -0.468667,-0.268847 -0.509835,-0.377127 -0.118186,-0.310853 0.09178,-0.625214 0.417592,-0.625214 0.286379,0 1.153584,0.484941 1.522127,0.851172 0.191863,0.19066 0.3331,0.372126 0.31386,0.403258 -0.01924,0.03113 -0.0076,0.07355 0.02596,0.09427 0.09739,0.06019 0.07083,0.241731 -0.05964,0.407592 -0.07917,0.100654 -0.282144,0.207105 -0.591011,0.309967 -0.258733,0.08617 -0.520484,0.193271 -0.581669,0.23801 -0.105427,0.07709 -0.09882,0.09656 0.12625,0.372171 0.130623,0.159954 0.423238,0.493492 0.650257,0.741196 0.783171,0.85453 0.899938,1.110055 0.621705,1.360502 -0.188611,0.169776 -0.295443,0.196297 -0.473547,0.117559 z m -0.530935,-3.216562 c 0,-0.03298 -0.02699,-0.05997 -0.05997,-0.05997 -0.03298,0 -0.05997,0.02699 -0.05997,0.05997 0,0.03298 0.02699,0.05997 0.05997,0.05997 0.03298,0 0.05997,-0.02699 0.05997,-0.05997 z"
     id="path896" />
  <path
     style="fill:#ffffff;stroke-width:0.0599691"
     d="M 26.571496,46.231835 C 25.335645,45.982956 24.965493,45.831907 24.798071,45.508149 24.691035,45.301164 24.73409,45.079442 24.933272,44.8119 l 0.145101,-0.1949 h -0.21487 c -0.534144,0 -0.854979,-0.344101 -0.66442,-0.712602 0.112249,-0.217065 0.154783,-0.228463 1.030101,-0.276056 0.544054,-0.02958 0.712661,-0.01784 0.916833,0.06385 0.26261,0.105076 0.425479,0.327226 0.425479,0.580344 0,0.160554 -0.225135,0.490125 -0.466711,0.683209 -0.08963,0.07164 -0.146597,0.146789 -0.126593,0.167001 0.02,0.02021 0.390702,0.112573 0.823772,0.205247 0.854269,0.182806 1.028883,0.278115 1.028883,0.56159 0,0.491484 -0.220594,0.551434 -1.259351,0.342247 z"
     id="path898" />
  <path
     style="fill:#ffffff;stroke-width:0.0599691"
     d="m 32.049769,40.233568 c -0.103844,-0.03 -0.276042,-0.153907 -0.382662,-0.27534 l -0.193855,-0.220789 0.04229,-0.888504 0.04229,-0.888503 h -0.144988 c -0.07974,0 -0.300078,0.05336 -0.489632,0.118575 -1.149292,0.395414 -1.653112,0.32525 -1.653112,-0.230219 0,-0.204864 0.233277,-0.428078 0.447378,-0.428078 0.07225,0 0.412679,-0.08599 0.756518,-0.191084 0.775856,-0.237145 1.336829,-0.26349 1.595048,-0.07491 0.323407,0.236191 0.410777,0.515698 0.397788,1.272562 -0.0064,0.372208 -0.02878,0.730828 -0.04976,0.796934 -0.0337,0.106194 -0.01838,0.11565 0.131553,0.08119 0.194835,-0.04478 1.124601,-0.488656 1.897698,-0.905965 0.503663,-0.271871 0.536148,-0.281113 0.688171,-0.195785 0.237084,0.133072 0.351879,0.370085 0.27926,0.576577 -0.06187,0.17593 -0.261431,0.301637 -1.496048,0.942396 -0.860961,0.446834 -1.492212,0.619502 -1.86794,0.510944 z"
     id="path900" />
  <path
     style="fill:#ffffff;stroke-width:0.0599691"
     d="m 33.018173,32.747703 c -0.31791,-0.09162 -0.504783,-0.350871 -0.601287,-0.834168 -0.03652,-0.182869 -0.09157,-0.338294 -0.122351,-0.345388 -0.03078,-0.0071 -0.219618,0.18016 -0.419644,0.416122 -0.296134,0.349337 -0.400383,0.432603 -0.561276,0.448303 -0.259327,0.02531 -0.484354,-0.17663 -0.484213,-0.434526 7.9e-5,-0.145751 0.119021,-0.324597 0.566962,-0.852511 0.600362,-0.707546 0.867182,-0.921116 1.150784,-0.921116 0.366434,0 0.571501,0.275938 0.683644,0.919913 0.03825,0.219674 0.08944,0.399407 0.113737,0.399407 0.0243,0 0.357439,-0.295977 0.740308,-0.657726 0.382868,-0.36175 0.765203,-0.675065 0.849634,-0.696256 0.306416,-0.07691 0.630104,0.294916 0.516609,0.593431 -0.04896,0.128777 -1.704938,1.747316 -1.903474,1.860441 -0.158994,0.09059 -0.407026,0.139351 -0.529433,0.104074 z"
     id="path902" />
  <path
     style="fill:#ffffff;stroke-width:0.0599691"
     d="m 30.61941,25.858555 c -0.237396,-0.150901 -1.006184,-0.942612 -1.062101,-1.093769 -0.09179,-0.248123 0.181381,-0.597244 0.46731,-0.597244 0.07047,0 0.253373,0.110238 0.40644,0.244973 l 0.278304,0.244973 v -0.426807 c 0,-0.465511 0.08979,-0.747168 0.297139,-0.932034 0.213931,-0.190738 0.7262,-0.156218 1.238548,0.08346 0.458674,0.21457 1.810189,1.05367 1.927528,1.196721 0.122892,0.149823 0.09055,0.452699 -0.06383,0.597733 -0.192613,0.18095 -0.384259,0.163384 -0.764269,-0.07005 -0.179466,-0.110245 -0.569177,-0.351225 -0.866024,-0.53551 -0.296847,-0.184285 -0.607187,-0.351487 -0.689644,-0.371559 l -0.149923,-0.03649 -0.0047,0.616981 c -0.0064,0.840835 -0.146213,1.108911 -0.607616,1.165243 -0.158178,0.01931 -0.281911,-0.007 -0.407143,-0.08662 z"
     id="path904" />
</svg>
