<?xml version="1.0" encoding="utf-8"?>
<!-- Generator: Adobe Illustrator 24.3.0, SVG Export Plug-In . SVG Version: 6.00 Build 0)  -->
<svg version="1.1"
	 id="Слой_1" inkscape:version="1.0.2-2 (e86c870879, 2021-01-15)" sodipodi:docname="Р СџРЎР‚Р С•РЎвЂљР С•РЎвЂљР С‘Р С—РЎС“Р Р†Р В°Р Р…Р Р…РЎвЂЎ.svg" xmlns:cc="http://creativecommons.org/ns#" xmlns:dc="http://purl.org/dc/elements/1.1/" xmlns:inkscape="http://www.inkscape.org/namespaces/inkscape" xmlns:rdf="http://www.w3.org/1999/02/22-rdf-syntax-ns#" xmlns:sodipodi="http://sodipodi.sourceforge.net/DTD/sodipodi-0.dtd" xmlns:svg="http://www.w3.org/2000/svg"
	 xmlns="http://www.w3.org/2000/svg" xmlns:xlink="http://www.w3.org/1999/xlink" x="0px" y="0px" viewBox="0 0 35.5 49.8"
	 style="enable-background:new 0 0 35.5 49.8;" xml:space="preserve">
<style type="text/css">
	.st0{fill:none;stroke:#FFFFFF;stroke-linecap:round;stroke-linejoin:round;}
	.st1{fill-rule:evenodd;clip-rule:evenodd;fill:#FFFFFF;stroke:#FFFFFF;stroke-miterlimit:10;}
	.st2{fill:none;stroke:#FFFFFF;stroke-miterlimit:10;}
	.st3{fill:#FFFFFF;stroke:#FFFFFF;stroke-miterlimit:10;}
</style>
<sodipodi:namedview  bordercolor="#666666" borderopacity="1" gridtolerance="10" guidetolerance="10" id="namedview43" inkscape:current-layer="Слой_1" inkscape:cx="17.756041" inkscape:cy="24.767233" inkscape:pageopacity="0" inkscape:pageshadow="2" inkscape:window-height="1201" inkscape:window-maximized="1" inkscape:window-width="1600" inkscape:window-x="-9" inkscape:window-y="51" inkscape:zoom="16.675258" objecttolerance="10" pagecolor="#ffffff" showgrid="false">
	</sodipodi:namedview>
<path id="path6" class="st0" d="M21.8,23.8c0-0.1-0.3,0.8,1.1,3.3c0.9,1.7,3.6,3.3,3.2,7.1c0,0-0.3,6.9-8.6,7.3
	c-0.2,0-7.2-0.7-7.6-7.6c0-0.1-0.3-3.7,3.5-6.9c1-0.9,1.2-1.4,1.5-2.9l7.2-1.6"/>
<path id="path8" class="st0" d="M14.9,21.4l7.1-1.3"/>
<path id="path10" class="st0" d="M14.9,19l7.1-1.3"/>
<path id="path12" class="st0" d="M20.7,16.7c-1.1-1.1-3-1.2-4.2-0.1"/>
<path id="path14" class="st0" d="M19.5,25c-0.6,2.1,1,6,1,6c-2.1-0.6-2.1-1.3-2.1-1.3s-1.4,1.4-2.2,1c-0.1,0,1.6-3.6,1.4-5.7"/>
<path id="path16" class="st1" d="M12.2,20.5v-6.6l6.1-3.4l6.3,3.5v6.6l-1.9-1.7V15l-4.3-2.5L14.1,15v3.8L12.2,20.5z"/>
<path id="path18" class="st1" d="M16,10.8V8.9l1.1-0.8V3h2.6v5.1l1.1,0.7v2.1l-2.4-1.6L16,10.8z"/>
<path id="path20" class="st1" d="M17.2,2.1c0,0,0-1.5,0-1.6c0-0.3,0.5-0.5,0.5-0.5h2v2.1H17.2z"/>
<path id="path22" class="st1" d="M20.4,0v2.1h10.5l-0.1-1.2c-0.1-0.5-0.5-0.8-1-0.9C29.9,0,20.4,0,20.4,0z"/>
<path id="path24" class="st0" d="M30,24.6c0.1,0.1,0.8,1,1,0.9c0.3-0.2-0.1-1.8,0.3-1.8c0.7-0.1,1.9,0.9,2.5,1.2"/>
<path id="path26" class="st0" d="M31.3,32c0,0.1,1.1-1.5,1.3-1.3c0.4,0.4,0.1,2.3,0.9,1.4c0.2-0.2,0.4-0.4,0.6-0.6
	c0.1-0.1,0.2-0.2,0.4-0.3c0.6-0.6,0-0.1,0.5-0.5"/>
<path id="path28" class="st0" d="M29.7,37.9c0.7,0,1.3-0.5,2-0.4c0.6,0.1,0.1,1.7,0.2,2.1c0.3,0.8,2.6-0.8,3-1"/>
<path id="path30" class="st0" d="M6.8,38.6c-0.1,0.3-0.1,0.7-0.1,1c-0.1,1.2-1.3-0.4-2-0.2c-0.5,0.1-0.8,2.3-0.9,2.7"/>
<path id="path32" class="st0" d="M5.1,32.3c0,0-0.6,1.7-0.9,1.7c-0.4-0.1-0.4-1.4-0.7-1.7c-0.1-0.1-2.5,2.2-3,2.5"/>
<path id="path34" class="st0" d="M8.7,25.2c0.3-0.3-1.8,1.5-2,1.3c-0.3-0.3,1.8-3.5-0.6-2.4c-0.2,0.1-0.5,0.2-0.7,0.3
	c-0.3,0.1-0.7,0.3-1,0.4"/>
<path id="path36" class="st0" d="M24.6,44.1c0.3,0.2,1.2-0.2,1.5,0.1c0.2,0.2-0.9,0.9-0.9,1.1c0.1,0.3,1.9,0.6,2.2,0.6"/>
<path id="path38" class="st0" d="M17.9,45.2c0.5,0.2,1.2,0.5,1.4,1c0,0-1.5,0.4-1.4,0.9s1.3,1.6,1.7,2.1"/>
<path id="path40" class="st0" d="M10.7,44.1c0-0.1,1.1,1.4,0.8,1.6c-0.3,0.3-1.8-1.2-1.9,0c0,0.3,0,0.6,0.1,0.9
	c0,0.2,0.1,0.3,0.1,0.5c0,0.3,0,0.7,0,1"/>
<path id="path870" class="st2" d="M16.6,41.7c-1.3-0.3-2.6-0.8-3.7-1.5c-0.6-0.4-1.7-1.5-2.1-2.1c-0.8-1.2-1.2-2.4-1.4-4
	c-0.2-1.8,0.4-3.7,1.7-5.5c0.4-0.5,1.2-1.4,2.2-2.3c0.5-0.5,0.7-0.8,0.9-1.8l0.2-0.7l0.4-0.2c0.4-0.3,0-0.2,4.6-1.2
	c2.8-0.6,2.9-0.6,3-0.4s0.1,0.5-0.1,0.6c-0.1,0.1-3.1,0.8-6.8,1.6c-0.2,0-0.2,0-0.2-0.1s0-0.1,0-0.1s-0.1,0.3-0.2,0.7
	c-0.1,0.3-0.3,0.8-0.4,1.1c-0.2,0.4-0.3,0.6-1.3,1.6c-1.5,1.5-2,2.2-2.5,3.5c-0.6,1.6-0.6,3.4-0.1,5c0.8,2.3,2.7,3.9,5.5,4.6
	c1.5,0.4,3.7,0.1,5.4-0.8c1.6-0.8,2.9-2.3,3.5-4c0.3-0.9,0.4-1.3,0.4-2.5c0-1,0-1.1-0.2-1.6c-0.3-1-0.7-1.7-1.8-3
	c-0.8-0.9-1.1-1.4-1.5-2.3c-0.9-1.9-1-3.1-0.3-3.1c0.3,0,0.5,0.3,0.4,0.6c-0.1,0.4,0.2,1.2,0.7,2.2c0.4,0.7,0.5,1,1.1,1.6
	c1.4,1.7,1.8,2.4,2.2,3.4c0.3,0.8,0.4,1.6,0.4,2.5c-0.1,2.2-0.9,4.1-2.4,5.6s-3.4,2.3-5.8,2.5C17.5,41.9,17.4,41.9,16.6,41.7z"/>
<path id="path872" class="st2" d="M19.7,31.2c-0.6-0.2-1-0.4-1.3-0.7l-0.2-0.1l-0.4,0.3c-0.9,0.6-1.6,0.7-2,0.3
	c-0.1-0.1-0.1-0.2-0.1-0.3c0-0.1,0.2-0.6,0.4-1.1c0.7-1.9,1-3.1,1-4.1c0-0.5,0-0.6,0.1-0.7c0.2-0.2,0.5-0.2,0.7,0
	C18,24.9,18,25,18,25.5c0,1-0.3,2.4-0.9,4c-0.1,0.4-0.2,0.7-0.2,0.7c0.1,0,0.6-0.3,1-0.6c0.4-0.4,0.7-0.3,0.9,0.2
	c0.1,0.1,0.2,0.3,0.4,0.4c0.4,0.3,0.5,0.2,0.4-0.1c-0.3-0.9-0.6-2.5-0.7-3.4c0-0.6,0.1-1.4,0.2-1.7c0.1-0.2,0.4-0.3,0.6-0.2
	c0.2,0.1,0.3,0.3,0.2,0.7c-0.2,1,0,2.6,0.7,4.6c0.4,1.2,0.4,1.2,0.1,1.4C20.4,31.5,20.3,31.4,19.7,31.2z"/>
<path id="path874" class="st3" d="M23.6,19.6l-0.9-0.8v-2v-2l-2.1-1.2c-1.2-0.7-2.1-1.2-2.2-1.2c0,0-1,0.5-2.2,1.2L14,15v1.9v1.9
	l-0.8,0.7c-0.5,0.4-0.9,0.7-0.9,0.7s-0.1-1.1-0.1-3.2v-3.2l3-1.7l3-1.7l3.1,1.7l3.1,1.7V17c0,1.8,0,3.2,0,3.2
	C24.5,20.4,24,20,23.6,19.6L23.6,19.6z"/>
<path id="path876" class="st3" d="M19.6,10.1c-0.6-0.4-1.2-0.8-1.2-0.8s-0.6,0.3-1.2,0.7l-1.1,0.7V9.9c0-0.5,0-0.9,0-0.9
	s0.3-0.2,0.6-0.4l0.6-0.4V5.6V3h1.3h1.3v2.6v2.6l0.5,0.4L20.9,9v1c0,0.5,0,1,0,1C20.7,10.9,20.2,10.5,19.6,10.1L19.6,10.1z"/>
<path id="path878" class="st3" d="M17.2,1.7c0-0.2,0-0.6,0-0.8c0-0.4,0-0.4,0.2-0.6l0.2-0.2h1h1v1v1h-0.3c-0.2,0-0.7,0-1.2,0h-0.9
	L17.2,1.7z"/>
<path id="path880" class="st3" d="M20.5,1.1v-1h4.7c5.2,0,5,0,5.4,0.4c0.3,0.3,0.3,0.4,0.4,1.1v0.6h-5.2h-5.2L20.5,1.1z"/>
<path id="path882" class="st2" d="M20.3,16.9c-0.5-0.4-0.9-0.5-1.5-0.6c-0.6,0-1.1,0.1-1.5,0.4c-0.1,0.1-0.3,0.2-0.4,0.3
	c-0.3,0.2-0.7,0-0.7-0.4c0-0.3,0.3-0.5,0.9-0.8c1.2-0.6,2.6-0.5,3.7,0.4c0.4,0.3,0.5,0.5,0.4,0.7C21,17.2,20.7,17.2,20.3,16.9z"/>
<path id="path884" class="st2" d="M14.5,19.3c-0.2-0.2-0.2-0.4,0-0.6c0.1-0.1,0.3-0.2,3.7-0.8c2-0.4,3.7-0.7,3.8-0.7
	c0.1,0,0.2,0,0.3,0.2c0.2,0.3,0.1,0.6-0.3,0.7c-0.3,0.1-7,1.3-7.2,1.3C14.8,19.4,14.6,19.4,14.5,19.3z"/>
<path id="path886" class="st2" d="M14.6,21.7c-0.3-0.3-0.1-0.6,0.3-0.8c0.3-0.1,7-1.3,7.2-1.3c0.2,0,0.4,0.2,0.4,0.5
	c0,0.4,0,0.4-3.9,1.1c-2,0.4-3.7,0.7-3.7,0.7S14.7,21.8,14.6,21.7z"/>
<path id="path888" class="st2" d="M6.4,26.9c-0.1-0.1-0.2-0.2-0.2-0.3c-0.1-0.2,0-0.3,0.2-1.1c0.2-0.5,0.3-0.9,0.3-1
	s-0.1-0.1-1.3,0.4c-0.6,0.2-1.1,0.4-1.1,0.4c-0.1,0-0.2-0.1-0.3-0.1c-0.1-0.2-0.1-0.5,0-0.6s1.9-0.9,2.4-1c0.5-0.2,0.9,0,1.2,0.4
	c0.2,0.3,0.1,0.6,0,1.2c-0.1,0.3-0.1,0.5-0.1,0.5s0.2-0.1,0.5-0.3C8.3,25.2,8.5,25,8.5,25c0.1-0.1,0.4-0.1,0.6,0.1
	c0.1,0.2,0.1,0.5,0,0.6s-1,0.8-1.6,1.2C7,27,6.7,27.1,6.4,26.9z"/>
<path id="path890" class="st2" d="M0.3,35.1C0.1,35,0,34.8,0,34.6c0-0.1,0.2-0.3,0.4-0.4s0.8-0.6,1.2-1.1c1.4-1.3,1.6-1.4,2-1.3
	c0.2,0.1,0.4,0.4,0.5,0.8c0,0.2,0.1,0.3,0.1,0.3s0.3-0.6,0.3-0.7c0-0.3,0.4-0.6,0.6-0.5s0.3,0.4,0.3,0.7c0,0.4-0.4,1.3-0.6,1.6
	s-0.4,0.4-0.7,0.4c-0.4,0-0.7-0.5-0.8-1.1c0-0.1-0.1-0.3-0.1-0.3s-0.5,0.5-1,1C0.6,35.3,0.6,35.3,0.3,35.1z"/>
<path id="path892" class="st2" d="M3.5,42.5c-0.2-0.1-0.2-0.3-0.1-1.3c0.3-1.4,0.5-1.9,0.8-2.1c0.4-0.2,0.8-0.2,1.5,0.3
	c0.2,0.1,0.4,0.2,0.4,0.2s0-0.2,0.1-0.5c0.1-0.7,0.2-0.9,0.7-0.8c0.3,0.1,0.3,0.2,0.3,1c-0.1,0.8-0.1,1-0.4,1.2s-0.7,0.2-1.3-0.2
	C5.2,40.1,4.9,40,4.9,40c-0.1,0-0.2,0.4-0.4,1.4c-0.2,0.9-0.2,1.1-0.4,1.2C3.9,42.5,3.7,42.5,3.5,42.5z"/>
<path id="path894" class="st2" d="M9.4,48.4c-0.1-0.1-0.1-0.2-0.1-0.6c0-0.2,0-0.7-0.1-1.1c-0.2-1.4,0-2,0.8-2
	c0.2,0,0.4,0.1,0.6,0.1c0.2,0.1,0.3,0.1,0.3,0.1s-0.2-0.4-0.4-0.6c-0.2-0.2-0.2-0.4-0.1-0.6c0.1-0.2,0.3-0.3,0.5-0.2
	c0.2,0,0.6,0.5,0.9,1.1c0.3,0.6,0.3,1,0,1.2c-0.3,0.3-0.6,0.2-1.2,0c-0.2-0.1-0.5-0.2-0.5-0.2s0,0.2,0,0.4s0.1,0.8,0.1,1.3
	c0,0.8,0,0.9-0.1,1C9.9,48.6,9.5,48.6,9.4,48.4z"/>
<path id="path896" class="st2" d="M19.5,49.7c-0.1,0-0.3-0.3-0.5-0.5s-0.6-0.6-0.8-0.9c-0.5-0.6-0.7-0.9-0.7-1.3
	c0-0.3,0.2-0.6,0.7-0.8c0.2-0.1,0.3-0.2,0.3-0.2s-0.2-0.1-0.5-0.3s-0.5-0.3-0.5-0.4c-0.1-0.3,0.1-0.6,0.4-0.6s1.2,0.5,1.5,0.9
	c0.2,0.2,0.3,0.4,0.3,0.4v0.1c0.1,0.1,0.1,0.2-0.1,0.4c-0.1,0.1-0.3,0.2-0.6,0.3c-0.3,0.1-0.5,0.2-0.6,0.2c-0.1,0.1-0.1,0.1,0.1,0.4
	c0.1,0.2,0.4,0.5,0.7,0.7c0.8,0.9,0.9,1.1,0.6,1.4C19.8,49.7,19.7,49.8,19.5,49.7z M19,46.5C19,46.4,18.9,46.4,19,46.5
	c-0.1-0.1-0.1,0-0.1,0S18.9,46.5,19,46.5C18.9,46.5,19,46.5,19,46.5z"/>
<path id="path898" class="st2" d="M26.6,46.2c-1.2-0.2-1.6-0.4-1.8-0.7c-0.1-0.2-0.1-0.4,0.1-0.7l0.1-0.2h-0.2
	c-0.5,0-0.9-0.3-0.7-0.7c0.1-0.2,0.2-0.2,1-0.3c0.5,0,0.7,0,0.9,0.1c0.3,0.1,0.4,0.3,0.4,0.6c0,0.2-0.2,0.5-0.5,0.7
	c0.1,0,0.1,0.1,0.1,0.1s0.4,0.1,0.8,0.2c0.9,0.2,1,0.3,1,0.6C27.8,46.4,27.6,46.4,26.6,46.2z"/>
<path id="path900" class="st2" d="M32,40.2c-0.1,0-0.3-0.2-0.4-0.3l-0.2-0.2v-0.9v-0.9h-0.1c-0.1,0-0.3,0.1-0.5,0.1
	c-1.1,0.4-1.7,0.3-1.7-0.2c0-0.2,0.2-0.4,0.4-0.4c0.1,0,0.4-0.1,0.8-0.2c0.8-0.2,1.3-0.3,1.6-0.1c0.3,0.2,0.4,0.5,0.4,1.3
	c0,0.4,0,0.7,0,0.8s0,0.1,0.1,0.1c0.2,0,1.1-0.5,1.9-0.9c0.5-0.3,0.5-0.3,0.7-0.2s0.4,0.4,0.3,0.6c-0.1,0.2-0.3,0.3-1.5,0.9
	C33.1,40.2,32.4,40.3,32,40.2L32,40.2z"/>
<path id="path902" class="st2" d="M33,32.7c-0.3-0.1-0.5-0.4-0.6-0.8c0-0.2-0.1-0.3-0.1-0.3s-0.2,0.2-0.4,0.4
	c-0.3,0.3-0.4,0.4-0.6,0.4c-0.3,0-0.5-0.2-0.5-0.4c0-0.1,0.1-0.3,0.6-0.9c0.6-0.7,0.9-0.9,1.2-0.9c0.4,0,0.6,0.3,0.7,0.9
	c0,0.2,0.1,0.4,0.1,0.4s0.4-0.3,0.7-0.7s0.8-0.7,0.8-0.7c0.3-0.1,0.6,0.3,0.5,0.6c0,0.1-1.7,1.7-1.9,1.9
	C33.4,32.7,33.1,32.8,33,32.7z"/>
<path id="path904" class="st2" d="M30.6,25.9c-0.2-0.2-1-0.9-1.1-1.1s0.2-0.6,0.5-0.6c0.1,0,0.3,0.1,0.4,0.2l0.3,0.2v-0.4
	c0-0.5,0.1-0.7,0.3-0.9c0.2-0.2,0.7-0.2,1.2,0.1c0.5,0.2,1.8,1.1,1.9,1.2c0.1,0.1,0.1,0.5-0.1,0.6c-0.2,0.2-0.4,0.2-0.8-0.1
	c-0.2-0.1-0.6-0.4-0.9-0.5s-0.6-0.4-0.7-0.4h-0.1v0.6c0,0.8-0.1,1.1-0.6,1.2C30.9,26,30.7,25.9,30.6,25.9L30.6,25.9z"/>
</svg>
