<?xml version="1.0" encoding="utf-8"?>
<!-- Generator: Adobe Illustrator 24.3.0, SVG Export Plug-In . SVG Version: 6.00 Build 0)  -->
<svg version="1.1"
	 id="Слой_1" inkscape:version="1.0.2-2 (e86c870879, 2021-01-15)" sodipodi:docname="РџСЂРѕРµРєС‚СѓРІР°РЅРЅСЏ.svg" xmlns:cc="http://creativecommons.org/ns#" xmlns:dc="http://purl.org/dc/elements/1.1/" xmlns:inkscape="http://www.inkscape.org/namespaces/inkscape" xmlns:rdf="http://www.w3.org/1999/02/22-rdf-syntax-ns#" xmlns:sodipodi="http://sodipodi.sourceforge.net/DTD/sodipodi-0.dtd" xmlns:svg="http://www.w3.org/2000/svg"
	 xmlns="http://www.w3.org/2000/svg" xmlns:xlink="http://www.w3.org/1999/xlink" x="0px" y="0px" viewBox="0 0 37.6 47.4"
	 style="enable-background:new 0 0 37.6 47.4;" xml:space="preserve">
<style type="text/css">
	.st0{fill:#FFFFFF;stroke:#FFFFFF;stroke-linecap:round;stroke-linejoin:round;}
	.st1{fill:#FFFFFF;stroke:#FFFFFF;stroke-width:0.25;stroke-linecap:square;stroke-miterlimit:4.2188;}
	.st2{fill:#FFFFFF;stroke:#FFFFFF;stroke-width:0.25;stroke-miterlimit:10;}
	.st3{fill-rule:evenodd;clip-rule:evenodd;fill:#FFFFFF;stroke:#FFFFFF;stroke-miterlimit:10;}
	.st4{fill:#FFFFFF;stroke:#FFFFFF;stroke-miterlimit:10;}
</style>
<sodipodi:namedview  bordercolor="#666666" borderopacity="1" gridtolerance="10" guidetolerance="10" id="namedview35" inkscape:current-layer="Слой_1" inkscape:cx="30.841752" inkscape:cy="23.61957" inkscape:pageopacity="0" inkscape:pageshadow="2" inkscape:window-height="1201" inkscape:window-maximized="1" inkscape:window-width="1600" inkscape:window-x="-9" inkscape:window-y="51" inkscape:zoom="256" objecttolerance="10" pagecolor="#ffffff" showgrid="false">
	</sodipodi:namedview>
<path id="path6" class="st0" d="M13.2,27.8c0,0.1,0.3-0.8-1.1-3.2c-0.9-1.6-3.5-3.2-3.1-6.9c0,0,0.3-6.7,8.5-7
	c0.2,0,7.1,0.7,7.5,7.4c0,0.1,0.3,3.6-3.4,6.7c-1,0.8-1.2,1.4-1.5,2.9c0,0-7.1,1.6-7.1,1.6"/>
<path id="path8" class="st0" d="M19.9,30.1l-7,1.3"/>
<path id="path10" class="st0" d="M20,32.5l-7,1.3"/>
<path id="path12" class="st0" d="M14.2,34.7c1.1,1.1,2.9,1.1,4.1,0.1"/>
<path id="path14" class="st0" d="M15.4,26.6c0.6-2.1-1-5.8-1-5.8c2.1,0.6,2.1,1.3,2.1,1.3s1.4-1.3,2.2-1c0.1,0-1.6,3.5-1.4,5.5"/>
<path id="path16" class="st0" d="M0.5,0.5h36.6v46.4H0.5V0.5z"/>
<path id="path18" class="st1" d="M17.1,10.4L30,10.5"/>
<path id="path20" class="st1" d="M29.9,35.9l-13.5,0"/>
<path id="path22" class="st2" d="M28.1,35.5c0-1.5,0-24.5,0-24.5"/>
<path id="path24" class="st3" d="M28,11.1l0.4,0.3L28,10.6l-0.4,0.8L28,11.1z"/>
<path id="path26" class="st3" d="M28.1,35.4l-0.4-0.3l0.4,0.8l0.4-0.8L28.1,35.4z"/>
<path id="path28" class="st3" d="M29.1,23.8L29.1,23.8c-0.1-0.1-0.1-0.1-0.1-0.2c0,0-0.1-0.1-0.1-0.1v-0.1h0.9v0.1h-0.6V23.8z"/>
<path id="path30" class="st3" d="M29.7,23.2c-0.1,0-0.1,0-0.2,0c-0.1,0-0.1-0.1-0.2-0.2l-0.1-0.1c0,0,0-0.1-0.1-0.1
	c-0.1-0.1-0.2-0.1-0.2,0c0,0,0,0.1,0,0.1c0,0.1,0,0.1,0.1,0.2c0,0,0.1,0,0.1,0v0.1c-0.1,0-0.1,0-0.2,0c-0.1-0.1-0.1-0.2-0.1-0.3
	c0-0.1,0.1-0.3,0.2-0.3c0,0,0,0,0,0c0.1,0,0.1,0,0.2,0.1c0,0,0.1,0.1,0.1,0.2l0,0.1c0,0,0,0.1,0.1,0.1c0,0,0.1,0.1,0.1,0.1v-0.5h0.1
	L29.7,23.2z"/>
<path id="path32" class="st3" d="M28.8,22.2c0-0.1,0-0.2,0.1-0.2c0.1,0,0.2-0.1,0.3-0.1c0.1,0,0.2,0,0.3,0.1c0.1,0,0.2,0.1,0.2,0.3
	c0,0.1-0.1,0.2-0.1,0.2c-0.1,0-0.2,0.1-0.3,0.1c-0.1,0-0.2,0-0.3,0C28.9,22.4,28.8,22.3,28.8,22.2z M29.6,22.2c0-0.1,0-0.1-0.1-0.1
	c-0.1,0-0.2-0.1-0.3-0.1c-0.1,0-0.2,0-0.2,0c-0.1,0-0.1,0.1-0.1,0.1c0,0.1,0,0.1,0.1,0.1c0.1,0,0.2,0.1,0.3,0c0.1,0,0.1,0,0.2,0
	C29.6,22.3,29.6,22.3,29.6,22.2L29.6,22.2z"/>
<path id="path862" class="st4" d="M27.9,35.5c-0.1-0.2-0.2-0.4-0.2-0.4s0.1,0.1,0.2,0.1c0.1,0.1,0.2,0.1,0.2,0.1
	c0,0,0.4-0.3,0.4-0.3c0,0,0,0,0,0c0,0-0.4,0.8-0.4,0.8C28.1,35.9,28,35.7,27.9,35.5L27.9,35.5z"/>
<path id="path864" class="st4" d="M27.8,11.1c0.2-0.4,0.3-0.5,0.3-0.5c0,0,0.4,0.8,0.4,0.8c0,0,0,0-0.2-0.1
	c-0.1-0.1-0.2-0.1-0.2-0.1c0,0-0.1,0.1-0.2,0.1c-0.1,0.1-0.2,0.1-0.2,0.1C27.6,11.3,27.7,11.2,27.8,11.1z"/>
<path id="path866" class="st4" d="M29.6,23.2c-0.1,0-0.2,0-0.2-0.1c0,0,0,0-0.1-0.1c-0.1-0.1-0.1-0.2-0.2-0.2c-0.1,0-0.2,0-0.2,0.1
	c0,0,0,0.1,0,0.1c0,0,0,0,0,0.1c0,0.1,0.1,0.1,0.2,0.1l0,0v0.1v0.1l0,0c-0.1,0-0.2,0-0.2-0.1c0-0.1-0.1-0.1-0.1-0.2
	c0-0.1,0-0.1,0.1-0.2c0.1-0.1,0.1-0.1,0.2-0.1c0,0,0.1,0,0.1,0c0,0,0,0,0.1,0c0,0,0.1,0.1,0.1,0.2c0.1,0.1,0.1,0.1,0.1,0.2
	c0,0,0.1,0.1,0.1,0.1l0,0v-0.2v-0.2h0.1h0.1v0.3L29.6,23.2L29.6,23.2C29.7,23.2,29.6,23.2,29.6,23.2L29.6,23.2z"/>
<path id="path868" class="st4" d="M29.2,22.5c-0.1,0-0.2,0-0.2-0.1c-0.1,0-0.1-0.1-0.1-0.2c0,0,0-0.1,0-0.1c0-0.1,0.1-0.1,0.1-0.1
	c0,0,0.1-0.1,0.2-0.1c0,0,0.2,0,0.2,0c0.1,0,0.2,0,0.2,0.1c0,0,0.1,0.1,0.1,0.1c0.1,0.1,0,0.2,0,0.3c0,0-0.1,0.1-0.1,0.1
	C29.5,22.5,29.4,22.5,29.2,22.5C29.2,22.5,29.2,22.5,29.2,22.5L29.2,22.5z M29.4,22.4c0.1,0,0.1,0,0.1,0c0.1,0,0.1-0.1,0.1-0.2
	c0-0.1,0-0.1-0.1-0.1c0,0-0.1,0-0.2,0c0,0-0.2,0-0.2,0c-0.1,0-0.1,0-0.2,0.1c0,0,0,0.1,0,0.1c0,0.1,0,0.1,0.1,0.2c0,0,0.1,0,0.2,0
	C29.2,22.4,29.4,22.4,29.4,22.4L29.4,22.4z"/>
<path id="path870" class="st4" d="M29,23.8c0,0,0-0.1,0-0.1c0,0-0.1-0.1-0.1-0.1l0,0v0v0h0.4h0.4v0.1v0.1h-0.3h-0.3L29,23.8L29,23.8
	L29,23.8L29,23.8L29,23.8z"/>
</svg>
