<svg id="Capa_1" enable-background="new 0 0 511.592 511.592" height="512" viewBox="0 0 511.592 511.592" width="512" xmlns="http://www.w3.org/2000/svg"><g><g><path d="m106.676 383.963c-14.976-17.409-26.95-37.472-35.135-59.383l-15.969-12.403-25.416 15.546v31.811c10.78 23.406 25.082 44.855 42.249 63.649l17.678 20.717 37.941-32.306z" fill="#9de5d1"/><circle cx="255.296" cy="252.973" fill="#ee878a" r="134.389"/><path d="m176.929 260.103c0-70.396 54.107-128.159 123.012-133.925-13.976-4.924-28.985-7.594-44.645-7.594-74.221 0-134.388 60.168-134.388 134.389s60.168 134.389 134.388 134.389c3.825 0 7.584-.162 11.328-.475-52.261-18.414-89.695-68.224-89.695-126.784z" fill="#ec6e73"/><circle cx="255.296" cy="252.973" fill="#f9f7f7" r="101.743"/><path d="m227.414 155.098c-42.649 12.114-73.86 51.342-73.86 97.874 0 37.408 20.193 70.095 50.269 87.771-16.876-22.464-26.893-50.377-26.893-80.642-.001-42.495 19.695-80.374 50.484-105.003z" fill="#f2eae7"/><g><g id="XMLID_253_"><g><path d="m480.331 149.039c-10.768-22.746-24.879-43.6-41.714-61.909l-21.749-22.451-38.305 30.053 26.313 32.238 1.87 2.16c12.899 15.432 23.463 32.876 31.178 51.788l12.87 10.409 30.877-27.687z" fill="#fbe88c"/><path d="m441.836 123.913-3.22-36.13-3.82-42.84c-.41-4.58-5.98-6.58-9.21-3.32l-17.73 17.89c-42.01-32.6-94.77-52.01-152.06-52.01-137.13 0-248.3 111.16-248.3 248.29 0 37.021 8.112 72.142 22.642 103.697l8.118-6.795 33.286-28.114s0 .001.001.002c-7.997-21.411-12.376-44.586-12.376-68.789 0-108.59 88.03-196.63 196.63-196.63 43.1 0 82.95 13.87 115.36 37.38l-18.4 18.56c-3.25 3.28-1.15 8.87 3.46 9.18l48.66 3.34 31.22 2.15c3.309.228 6.039-2.561 5.739-5.861z" fill="#9de5d1"/><g fill="#fbe88c"><path d="m480.302 149.041c.002.005.005.01.007.015l.02-.015z"/><path d="m480.309 149.056-42.384 31.862c9.343 22.903 14.502 47.958 14.502 74.222 0 108.6-88.03 196.63-196.63 196.63-43.1 0-82.95-13.86-115.36-37.38l18.4-18.56c3.25-3.28 1.15-8.86-3.46-9.18l-48.7-3.34-31.18-2.14c-3.31-.23-6.04 2.55-5.74 5.86l3.16 35.45 3.88 43.52c.41 4.57 5.98 6.58 9.21 3.32l17.73-17.89c42.01 32.59 94.77 52.01 152.06 52.01 137.13 0 248.3-111.17 248.3-248.3-.001-37.956-8.555-73.91-23.788-106.084z"/></g></g></g></g><circle cx="255.296" cy="252.973" fill="#ee878a" r="22.485"/></g><g><path d="m146.054 252.973c0 60.236 49.006 109.242 109.242 109.242s109.242-49.006 109.242-109.242-49.005-109.243-109.242-109.243-109.242 49.006-109.242 109.243zm167.226-58.264c1.464 1.464 3.384 2.196 5.303 2.196s3.839-.732 5.304-2.197l2.979-2.979c12.522 14.612 20.655 33.086 22.341 53.365h-4.312c-4.143 0-7.5 3.357-7.5 7.5s3.357 7.5 7.5 7.5h4.377c-1.528 20.353-9.552 38.919-21.995 53.637l-3.154-3.154c-2.93-2.928-7.678-2.928-10.607 0-2.929 2.93-2.929 7.678 0 10.607l3.206 3.206c-14.651 12.618-33.211 20.812-53.59 22.498v-4.695c0-4.143-3.357-7.5-7.5-7.5s-7.5 3.357-7.5 7.5v4.753c-20.441-1.544-39.078-9.643-53.822-22.188l3.338-3.338c2.93-2.929 2.93-7.678.001-10.606-2.93-2.929-7.679-2.93-10.606-.001l-3.355 3.354c-12.585-14.706-20.731-33.317-22.337-53.739h4.683c4.143 0 7.5-3.357 7.5-7.5s-3.357-7.5-7.5-7.5h-4.675c1.622-20.375 9.753-38.942 22.307-53.623l3.14 3.14c1.465 1.464 3.385 2.196 5.304 2.196s3.839-.732 5.304-2.196c2.929-2.93 2.929-7.678 0-10.607l-3.128-3.128c14.667-12.488 33.191-20.572 53.513-22.18v4.3c0 4.143 3.357 7.5 7.5 7.5s7.5-3.357 7.5-7.5v-4.3c20.287 1.605 38.783 9.665 53.438 22.117l-2.956 2.957c-2.931 2.927-2.931 7.676-.001 10.605z"/><path d="m255.296 394.861c78.237 0 141.889-63.651 141.889-141.889 0-43.936-19.867-84.682-54.509-111.793-3.262-2.552-7.976-1.979-10.528 1.284-2.553 3.262-1.979 7.976 1.284 10.528 30.983 24.248 48.753 60.689 48.753 99.98 0 69.967-56.922 126.889-126.889 126.889s-126.889-56.922-126.889-126.889 56.922-126.889 126.889-126.889c18.222 0 35.809 3.778 52.271 11.231 3.771 1.707 8.217.033 9.926-3.74 1.708-3.773.033-8.217-3.74-9.926-18.419-8.338-38.087-12.565-58.457-12.565-78.237 0-141.889 63.651-141.889 141.889s63.652 141.89 141.889 141.89z"/><path d="m445.864 84.629-3.599-40.355c-.45-5.056-3.696-9.265-8.471-10.986-4.772-1.723-9.959-.552-13.531 3.054l-13.117 13.234c-44.093-32.457-96.277-49.576-151.35-49.576-68.325 0-132.561 26.607-180.875 74.921s-74.921 112.55-74.921 180.875c0 63.416 23.337 124.129 65.728 171.171l3.599 40.353c.45 5.054 3.696 9.263 8.47 10.984 4.771 1.722 9.958.552 13.532-3.053l13.118-13.236c32.688 24.014 70.868 40.006 110.843 46.37.399.064.797.095 1.188.095 3.623 0 6.811-2.631 7.397-6.321.651-4.091-2.137-7.935-6.227-8.586-39.676-6.317-77.477-22.715-109.317-47.418-2.995-2.325-7.255-2.048-9.925.646l-14.542 14.672-6.421-72.002 72.826 5.001-15.159 15.295c-1.541 1.555-2.325 3.705-2.148 5.887.178 2.182 1.299 4.178 3.071 5.463 34.989 25.389 76.402 38.808 119.762 38.808 112.557 0 204.129-91.572 204.129-204.129 0-42.979-13.642-84.896-38.652-119.524l14.307.982c3.771.259 7.45-1.141 10.095-3.84 2.646-2.699 3.97-6.406 3.634-10.17l-1.09-12.222c31.334 41.577 48.373 92.163 48.373 144.773 0 64.319-25.047 124.788-70.527 170.269-45.479 45.48-105.949 70.527-170.268 70.527-2.081 0-4.294-.036-6.965-.112-4.188-.127-7.593 3.143-7.712 7.282-.118 4.141 3.142 7.593 7.282 7.712 2.817.081 5.167.118 7.395.118 68.325 0 132.562-26.607 180.874-74.921 48.313-48.313 74.921-112.55 74.921-180.875 0-63.446-23.33-124.119-65.727-171.166zm-84.541 32.49 15.158-15.295c1.541-1.555 2.325-3.705 2.148-5.887-.178-2.182-1.299-4.178-3.071-5.463-34.989-25.388-76.402-38.808-119.762-38.808-59.528 0-115.956 25.91-154.814 71.088-2.7 3.141-2.345 7.876.796 10.576 3.14 2.702 7.876 2.347 10.576-.795 36.006-41.86 88.288-65.869 143.442-65.869 37.229 0 72.906 10.675 103.73 30.955l-12.096 12.204c-3.596 3.627-4.71 8.849-2.908 13.628 1.802 4.778 6.086 7.965 11.182 8.314l45.533 3.127c28.173 33.855 43.687 76.773 43.687 120.9 0 104.286-84.843 189.129-189.129 189.129-37.229 0-72.906-10.675-103.73-30.955l12.096-12.204c3.596-3.627 4.71-8.849 2.908-13.628-1.802-4.778-6.086-7.965-11.182-8.314l-45.526-3.126c-28.195-33.889-43.695-76.693-43.695-120.901 0-34.803 9.533-68.82 27.57-98.374 2.157-3.536 1.04-8.151-2.495-10.31-3.535-2.155-8.15-1.04-10.31 2.495-19.473 31.908-29.766 68.627-29.766 106.188 0 43.06 13.626 84.887 38.652 119.524l-14.306-.982c-3.775-.265-7.451 1.14-10.095 3.84-2.646 2.699-3.97 6.406-3.634 10.17l1.091 12.23c-31.332-41.578-48.373-92.194-48.373-144.78 0-64.319 25.047-124.788 70.527-170.269s105.951-70.527 170.269-70.527c53.939 0 104.932 17.441 147.462 50.438 2.995 2.324 7.256 2.048 9.925-.646l14.544-14.673 6.421 72.001z"/><path d="m281.119 268.188c2.64-4.464 4.162-9.665 4.162-15.216 0-13.945-9.569-25.697-22.485-29.036v-34.532c0-4.143-3.357-7.5-7.5-7.5s-7.5 3.357-7.5 7.5v34.532c-12.917 3.338-22.485 15.09-22.485 29.036 0 16.534 13.451 29.985 29.985 29.985 5.552 0 10.752-1.522 15.216-4.162l20.861 20.86c1.465 1.464 3.385 2.196 5.304 2.196s3.839-.732 5.304-2.196c2.929-2.93 2.929-7.678 0-10.607zm-40.808-15.215c0-8.263 6.723-14.985 14.985-14.985s14.985 6.723 14.985 14.985-6.723 14.985-14.985 14.985-14.985-6.723-14.985-14.985z"/></g></g></svg>